<svg xmlns="http://www.w3.org/2000/svg" width="70.719" height="59.06" viewBox="0 0 70.719 59.06"><path id="icon_quote.svg" d="M247.593 1677.37c-13.651 9.17-23.5 23.5-23.5 39.83 0 15 9.175 19.25 15.889 19.25a14.668 14.668 0 0014.994-14.77c0-6.49-4.028-14.32-13.651-14.32a11.622 11.622 0 00-6.938 2.01c.672-4.25 3.133-16.11 19.247-25.74zm-39.835 0c-14.323 9.4-23.5 22.82-23.5 39.83 0 15 9.176 19.25 15.889 19.25a14.72 14.72 0 0015-15c0-6.71-4.252-14.09-13.652-14.09a12.728 12.728 0 00-6.937 2.01c.9-4.92 3.356-16.34 19.246-25.74z" transform="translate(-184.25 -1677.38)" fill="#ebeef0" fill-rule="evenodd"/></svg>