<svg xmlns="http://www.w3.org/2000/svg" width="21.531" height="15.41" viewBox="0 0 21.531 15.41"><path id="txt_slide01_1.svg" d="M182.278 2764.88v1.74h2.569l-.536 2.95h-2.859v1.75h2.524l-.849 4.6h1.966l.848-4.6h3.351l-.849 4.6h1.943l.849-4.6h2.792v-1.75h-2.457l.536-2.95h2.748v-1.74h-2.413l.827-4.38H191.3l-.826 4.38h-3.351l.827-4.38h-1.944l-.826 4.38h-2.9zm4.534 1.74h3.351l-.558 2.95h-3.351zm16.15-6.12h-1.921l-2.211 1.7v2.1l2.211-1.58v13.2h1.921v-15.42z" transform="translate(-181.438 -2760.5)" fill="#ededed" fill-rule="evenodd"/></svg>