<svg xmlns="http://www.w3.org/2000/svg" width="24.99" height="16" viewBox="0 0 24.99 16"><g id="レイヤー_2" data-name="レイヤー 2"><g id="レイヤー_1-2" data-name="レイヤー 1"><path id="txt_slide01_3.svg" data-name="txt slide01 3.svg" d="M.83 4.63V6.4h2.6l-.55 3H0v1.77h2.55l-.86 4.66h2l.86-4.66h3.36l-.86 4.66H9l.86-4.66h2.82V9.39h-2.47l.54-3h2.77V4.63h-2.43l.83-4.44h-2L9.1 4.63H5.72L6.56.19h-2l-.8 4.44zM5.41 6.4h3.38l-.56 3H4.84zm13.52 2.24h1c2.07 0 3.15 1.11 3.15 3a2.57 2.57 0 01-2.49 2.63h-.1a2.67 2.67 0 01-2.91-2.34h-1.92c.16 2.36 1.83 4.1 4.8 4.1A4.37 4.37 0 0025 11.8v-.24a6.81 6.81 0 00-1.65-3.8 4.46 4.46 0 001.43-3.6A4.18 4.18 0 0020.57 0h-.27c-2.3 0-4.44 1.53-4.44 4h1.9a2.37 2.37 0 012.49-2.24h.05A2.4 2.4 0 0122.83 4v.08c0 1.7-.88 2.77-2.93 2.77h-1v1.79z" fill="#ededed" fill-rule="evenodd"/></g></g></svg>