<svg xmlns="http://www.w3.org/2000/svg" width="296.062" height="80.473" viewBox="0 0 296.062 80.473"><g id="グループ_7" data-name="グループ 7" transform="translate(-20.938 -58.045)"><g id="グループ_5" data-name="グループ 5" transform="translate(20.938 24.219)"><path id="パス_9" data-name="パス 9" d="M531.439 1108.77H326v64.055h290.1v-64.055z" transform="translate(-326 -1068.787)" fill="#fffc8e"/><path id="パス_10" data-name="パス 10" d="M540.556 1100.316H334.494v67.03h139.894l13.443 13.443 1.2-1.2-13.692-13.689-.312.312v-.561H336.191v-63.637h285.463v63.637H489.517v1.7h133.834v-67.03z" transform="translate(-327.288 -1066.489)" fill="#9b9b9b"/></g><path id="パス_11" data-name="パス 11" d="M-117.312-7.12c-.144.144-.144.192-.016.288a25.8 25.8 0 012.336 2.48 10.784 10.784 0 01-3.3 3.872 3.261 3.261 0 01.864.944c.144.224.224.336.32.336.08 0 .176-.08.336-.224a15.125 15.125 0 002.9-3.472c.48.688.928 1.392 1.344 2.128.064.1.1.144.144.144a.319.319 0 00.176-.112l.944-.864c.16-.16.144-.208.048-.336a33.132 33.132 0 00-1.872-2.56 16.508 16.508 0 001.008-4.736c.672.016.944.032 1.024.032.16 0 .176-.016.176-.192v-1.2c0-.16-.016-.176-.176-.176-.1 0-.56.032-1.952.032h-.464v-1.024a2.991 2.991 0 01.08-.96.9.9 0 00.1-.32c0-.1-.1-.16-.256-.16a15.092 15.092 0 00-1.7-.112 6.761 6.761 0 01.128 1.552v1.024h-.816c-1.376 0-1.84-.032-1.936-.032-.16 0-.176.016-.176.176v1.2c0 .176.016.192.176.192.1 0 .56-.032 1.936-.032h2.192a14 14 0 01-.576 3.344 54.803 54.803 0 00-1.888-1.968.169.169 0 00-.144-.08.216.216 0 00-.16.08zM-105.3-8.3c1.008.016 1.392.032 1.472.032.16 0 .176-.016.176-.176v-1.3c0-.16-.016-.176-.176-.176-.08 0-.464.032-1.472.032v-1.168a4.975 4.975 0 01.1-1.616.75.75 0 00.1-.336c0-.08-.1-.16-.256-.176-.528-.048-1.12-.08-1.7-.1a18.139 18.139 0 01.1 2.256v1.136h-1.544c-1.344 0-1.792-.032-1.888-.032-.16 0-.176.016-.176.176v1.3c0 .16.016.176.176.176.1 0 .544-.032 1.888-.032h1.536v7.328c0 .384-.128.512-.592.512-.48.016-1.2 0-1.824-.048a3.99 3.99 0 01.48 1.2c.112.5.112.48.592.48 1.552 0 2.208-.1 2.544-.352.4-.336.5-.688.5-1.5 0-.9-.032-2.112-.032-3.232zm-5.456 1.76c-.16.1-.192.144-.08.288a13.33 13.33 0 011.744 3.024c.064.16.1.176.288.064l1.024-.592c.16-.1.176-.144.112-.3a12.072 12.072 0 00-1.856-2.992c-.1-.128-.16-.128-.32-.032zm17.776-.448v2.16h-.592c-1.344 0-1.808-.032-1.92-.032-.16 0-.176.016-.176.176 0 .1.032.544.032 1.808v1.248c0 2.208-.032 2.624-.032 2.736 0 .144.016.16.176.16h1.312c.16 0 .176-.016.176-.16v-.66h3.808v.576c0 .144.016.16.176.16h1.32c.16 0 .176-.016.176-.16 0-.1-.032-.512-.032-2.7V-3.12c0-1.024.032-1.472.032-1.568 0-.16-.016-.176-.176-.176-.1 0-.576.032-1.92.032h-.68v-2.16h1.312c1.488 0 2 .032 2.1.032.16 0 .176-.016.176-.176v-1.216c0-.144-.016-.16-.176-.16-.1 0-.608.032-2.1.032H-91.3v-2.512a22.12 22.12 0 002.048-.608 2.547 2.547 0 01.624-.128c.224 0 .32-.064.32-.176a.432.432 0 00-.112-.272 11.42 11.42 0 00-.96-1.152 3.524 3.524 0 01-.816.4 22.8 22.8 0 01-6.064 1.216 2.987 2.987 0 01.56 1.088c.128.384.128.4.512.352q1.128-.144 2.208-.336v2.128h-1.04c-1.488 0-1.984-.032-2.08-.032-.16 0-.176.016-.176.16v1.216c0 .16.016.176.176.176.1 0 .592-.032 2.08-.032zM-94-3.392h3.808v2.416H-94zm-2.8.752c0-.752.032-1.136.032-1.232 0-.16-.016-.176-.176-.176-.112 0-.432.032-1.472.032h-1.536c-1.024 0-1.36-.032-1.456-.032-.176 0-.192.016-.192.176 0 .112.032.5.032 1.5V-1.3c0 1.936-.032 2.3-.032 2.416 0 .144.016.16.192.16h1.168c.16 0 .176-.016.176-.16V.384h1.776v.432c0 .16.016.176.176.176h1.168c.16 0 .176-.016.176-.176 0-.1-.032-.448-.032-2.3zm-1.488-.048v1.76h-1.776v-1.76zm-2.1-7.888c-1.216 0-1.616-.032-1.712-.032-.144 0-.16.016-.16.176V-9.3c0 .176.016.192.16.192.1 0 .5-.032 1.712-.032h2.192c1.216 0 1.616.032 1.712.032.16 0 .176-.016.176-.192v-1.136c0-.16-.016-.176-.176-.176-.1 0-.5.032-1.712.032zm.48-2.192c-1.04 0-1.36-.032-1.456-.032-.16 0-.176.016-.176.176v1.056c0 .16.016.176.176.176.1 0 .416-.032 1.456-.032h1.536c1.024 0 1.344.032 1.44.032.176 0 .192-.016.192-.176v-1.056c0-.16-.016-.176-.192-.176-.1 0-.416.032-1.44.032zm.048 4.448c-.976 0-1.264-.032-1.36-.032-.16 0-.176.016-.176.176v1.04c0 .16.016.176.176.176.1 0 .384-.032 1.36-.032h1.36c.976 0 1.248.032 1.344.032.176 0 .192-.016.192-.176v-1.04c0-.16-.016-.176-.192-.176-.1 0-.368.032-1.344.032zm0 2.144c-.976 0-1.264-.032-1.36-.032-.16 0-.176.016-.176.176v1.024c0 .16.016.176.176.176.1 0 .384-.032 1.36-.032h1.36c.976 0 1.248.032 1.344.032.176 0 .192-.016.192-.176v-1.024c0-.16-.016-.176-.192-.176-.1 0-.368.032-1.344.032zm20.64-1.5a1.6 1.6 0 00-1.6 1.6 1.6 1.6 0 001.6 1.6 1.6 1.6 0 001.6-1.6 1.6 1.6 0 00-1.596-1.604zM-58.08.816c1.536 0 2.048.032 2.144.032.176 0 .192-.016.192-.176V-.576c0-.176-.016-.192-.192-.192-.08 0-.4.032-1.2.032v-8.912c0-1.808.032-2.736.032-2.832 0-.176-.016-.192-.192-.192-.1 0-.528.032-1.824.032h-2.528c-1.28 0-1.728-.032-1.824-.032-.16 0-.176.016-.176.192 0 .1.032 1.008.032 2.832v8.912c-.928 0-1.264-.032-1.344-.032-.176 0-.192.016-.192.192V.672c0 .16.016.176.192.176.1 0 .624-.032 2.16-.032zm-3.9-1.552v-2.592h3.216v2.592zm0-4.128v-2.368h3.216v2.368zm3.216-6.224v2.32h-3.216v-2.32zm-7.184 3.072c-.224.08-.24.128-.176.272.16.32.32.64.448.976l-1.84.128c.736-.96 1.6-2.176 2.416-3.456a1.9 1.9 0 01.528-.656c.128-.064.176-.128.176-.24 0-.1-.048-.16-.192-.24a10.384 10.384 0 00-1.344-.688 8.239 8.239 0 01-.48 1.1c-.368.64-.752 1.28-1.152 1.9-.24-.3-.512-.592-.768-.88a23.121 23.121 0 001.424-2.256.976.976 0 01.3-.384c.08-.064.144-.128.144-.208s-.048-.16-.208-.256a10.111 10.111 0 00-1.392-.592 4.89 4.89 0 01-.368.992 16.334 16.334 0 01-.88 1.664l-.48-.48q-.1-.1-.144-.1c-.048 0-.1.048-.16.144l-.528.832c-.064.1-.112.16-.112.208s.032.08.1.144a20.906 20.906 0 012.208 2.416q-.384.576-.816 1.1h-.224a11.865 11.865 0 01-1.28-.032c.08.512.144.96.224 1.344.032.16.08.272.176.272a.6.6 0 00.256-.08 1.613 1.613 0 01.576-.128c.48-.032.976-.064 1.5-.112v4.288c0 1.472-.032 2-.032 2.1 0 .16.016.176.176.176h1.248c.16 0 .176-.016.176-.176 0-.08-.032-.624-.032-2.1v-4.4c.416-.048.832-.1 1.232-.128l.192.72c.032.144.1.176.272.112l.752-.272c.208-.08.256-.144.192-.32a17.964 17.964 0 00-1.168-2.864c-.08-.144-.112-.176-.3-.1zm-4.832 7.6a4.279 4.279 0 01.816.4.79.79 0 00.364.192c.08 0 .144-.1.224-.336a16.824 16.824 0 00.72-2.944 2.9 2.9 0 01.128-.576.456.456 0 00.1-.224c0-.08-.08-.144-.272-.192a11.431 11.431 0 00-1.236-.204 4.079 4.079 0 01-.064.9 12.92 12.92 0 01-.784 2.984zm4.912-3.824c-.192.048-.256.08-.192.256a10.776 10.776 0 01.512 2.576c.016.16.048.16.288.1l.784-.208c.208-.048.224-.112.208-.288a14.254 14.254 0 00-.592-2.5c-.048-.176-.08-.192-.272-.144zm21.708-2.784a25.517 25.517 0 00.448 4.08l.112.56a10.324 10.324 0 01-1.248 1.264c-.016-.336-.016-.944-.016-2.032v-1.44c0-1.024.032-1.472.032-1.568 0-.16-.016-.176-.176-.176-.1 0-.4.032-1.344.032h-1.264c-.96 0-1.264-.032-1.376-.032-.16 0-.176.016-.176.176 0 .112.032.576.032 1.968v1.264c0 2.336-.032 2.768-.032 2.864 0 .16.016.176.176.176h.976c.16 0 .176-.016.176-.176v-.912h1.68v.192c0 .16.016.176.176.176h.464a13.423 13.423 0 01-1.168.768 3.277 3.277 0 01.736.816c.112.176.176.256.256.256a.714.714 0 00.368-.176A14.573 14.573 0 00-43.12-.9C-42.592.384-41.952.992-41.344.992c.768 0 1.216-.672 1.424-2.576.032-.32.048-.384-.24-.528a4.983 4.983 0 01-.816-.576c-.064 1.488-.208 1.872-.384 1.872-.192 0-.432-.464-.688-1.44a15.026 15.026 0 001.2-2.144 4.632 4.632 0 01.416-.784c.112-.128.176-.192.176-.32 0-.1-.048-.176-.192-.272a8.61 8.61 0 00-1.216-.608 8.666 8.666 0 01-.368 1.28 8.737 8.737 0 01-.432.96c-.128-.816-.192-1.776-.256-2.88h.224c1.552 0 2.1.032 2.176.032.176 0 .192-.016.192-.176v-1.056c0-.176-.016-.192-.192-.192-.08 0-.624.032-2.176.032h-.272c-.032-.832-.032-1.744-.032-2.736a4.521 4.521 0 01.1-1.568 1.164 1.164 0 00.1-.336c0-.08-.128-.16-.272-.176a16.86 16.86 0 00-1.5-.1 19.335 19.335 0 01.112 2.224l.048 2.688h-1.228l.288-.848a.681.681 0 01.16-.288.225.225 0 00.1-.192c0-.1-.08-.128-.176-.176a8.114 8.114 0 00-1.248-.336 5.872 5.872 0 01-.08.688c-.064.352-.16.768-.272 1.152h-.672a10.851 10.851 0 00-.512-1.664c-.064-.16-.1-.176-.272-.128l-.736.208c-.208.064-.24.08-.176.24a8.886 8.886 0 01.416 1.344c-.7 0-1.008-.032-1.072-.032-.16 0-.176.016-.176.192v1.056c0 .16.016.176.176.176.1 0 .64-.032 2.192-.032zm-3.68 4.912v-.976h1.68v.976zm0-3.056h1.68v.976h-1.68zm1.5-5.248c1.1 0 1.424.032 1.52.032.16 0 .176-.016.176-.192v-1.04c0-.144-.016-.16-.176-.16-.1 0-.416.032-1.472.032v-.464a2.032 2.032 0 01.064-.656.784.784 0 00.112-.3c0-.064-.1-.128-.272-.144a14.727 14.727 0 00-1.5-.08 5.461 5.461 0 01.1 1.184v.464c-1.072 0-1.408-.032-1.5-.032-.16 0-.176.016-.176.16v.528a.893.893 0 00-.128-.08 7.977 7.977 0 00-1.232-.576 5.3 5.3 0 01-.448.976c-.3.544-.592 1.088-.928 1.632l-.576-.7c.464-.72.848-1.424 1.312-2.256a.743.743 0 01.272-.384.247.247 0 00.144-.208c0-.1-.048-.176-.208-.256-.384-.192-.816-.352-1.248-.528a6.252 6.252 0 01-.32.912 12.078 12.078 0 01-.88 1.712l-.24-.256c-.112-.128-.128-.128-.256.016l-.656.768c-.144.176-.16.224-.032.32A23.279 23.279 0 01-53.04-7.84c-.288.448-.608.88-.928 1.312-.32 0-.64 0-1.024-.016.064.464.144.928.24 1.344.048.176.112.272.176.272a.443.443 0 00.256-.08 1.436 1.436 0 01.608-.128c.336-.016.656-.048.96-.08v4.208c0 1.472-.032 2-.032 2.1 0 .16.016.176.176.176h1.152c.16 0 .176-.016.176-.176 0-.08-.032-.624-.032-2.1V-5.36c.192-.016.4-.048.608-.08l.1.544c.016.16.08.192.288.128l.672-.192c.192-.048.208-.1.176-.256a17.162 17.162 0 00-.832-2.752c-.048-.128-.1-.128-.288-.08l-.608.176c-.224.064-.224.112-.176.288.128.3.24.608.352.912-.464.048-.912.08-1.376.1a47.867 47.867 0 002.368-3.5c.224-.384.3-.512.464-.608l.1-.064v.176c0 .176.016.192.176.192.1 0 .432-.032 1.52-.032zm-8.668 10.08a4.546 4.546 0 01.736.416.79.79 0 00.372.192c.08 0 .128-.112.208-.368a13.842 13.842 0 00.56-2.976 1.894 1.894 0 01.08-.56.364.364 0 00.064-.24c0-.08-.048-.144-.24-.192a12.67 12.67 0 00-1.136-.208 9.507 9.507 0 01-.016.976 9.743 9.743 0 01-.628 2.96zm4.16-3.9c-.192.048-.224.064-.192.24a19.664 19.664 0 01.432 2.928c.016.192.032.208.288.128l.624-.192c.192-.064.24-.08.224-.256a18.528 18.528 0 00-.48-2.848c-.048-.16-.08-.192-.272-.144zM-40.576-10c.16-.064.192-.16.144-.32a8.774 8.774 0 00-.864-2.112c-.1-.144-.112-.128-.3-.048l-.72.288c-.192.08-.208.144-.128.288a8.993 8.993 0 01.784 2.144c.048.192.112.192.3.112zm15.6-.624c0-1.408.032-2.08.032-2.192 0-.16-.016-.176-.176-.176-.1 0-.528.032-1.776.032h-2.352c-1.248 0-1.664-.032-1.76-.032-.176 0-.192.016-.192.176 0 .112.032.48.032 1.408v2.144c0 .944-.032 1.3-.032 1.392 0 .16.016.176.192.176.1 0 .512-.032 1.76-.032h2.624v6.592c0 .48-.128.624-.656.624a7.953 7.953 0 01-1.168-.08A4.018 4.018 0 01-28.08.576c.08.5.1.5.592.5 1.28 0 1.744-.112 2.112-.432s.464-.7.464-1.472c0-.784-.064-1.808-.064-2.928zm-1.648 1.76H-29.6v-.928h2.976zm0-2.912v.912H-29.6v-.912zM-36.3-12.96c-1.184 0-1.792-.032-1.9-.032-.16 0-.176.016-.176.176 0 .112.032 1.248.032 3.488v6.944c0 2.24-.032 3.344-.032 3.456 0 .16.016.176.176.176h1.36c.16 0 .176-.016.176-.176 0-.112-.032-1.216-.032-3.456v-5.344h2.624c1.056 0 1.52.032 1.616.032.144 0 .16-.016.16-.176 0-.1-.032-.544-.032-1.52v-1.888c0-.976.032-1.424.032-1.536 0-.16-.016-.176-.16-.176-.1 0-.56.032-1.616.032zm2.4 4.1h-2.8v-.928h2.8zm0-2.912v.912h-2.8v-.912zm3.008 9.12v1.488c0 1.1-.032 1.632-.032 1.728 0 .176.016.192.176.192h1.184c.16 0 .176-.016.176-.192 0-.1-.032-.624-.032-1.728v-1.492c1.264 0 1.744.032 1.824.032.16 0 .176-.016.176-.192v-.96c0-.16-.016-.176-.176-.176-.08 0-.56.032-1.824.032v-1.456c.992.016 1.392.032 1.472.032.16 0 .176-.016.176-.176v-.98c0-.16-.016-.176-.176-.176-.1 0-.576.032-2 .032h-3.424c-1.424 0-1.9-.032-2-.032-.176 0-.192.016-.192.176v.976c0 .16.016.176.192.176.08 0 .448-.016 1.408-.032 0 .56-.016 1.056-.032 1.456-1.28 0-1.744-.032-1.824-.032-.16 0-.176.016-.176.176v.96c0 .176.016.192.176.192.08 0 .528-.016 1.744-.032l-.032.288a3.732 3.732 0 01-1.716 2.356 4.24 4.24 0 01.944.672c.192.192.272.288.368.288.064 0 .144-.08.3-.224a5.218 5.218 0 001.52-2.688 6.879 6.879 0 00.112-.688zM-32.48-3.92c.016-.416.032-.912.032-1.456h1.548v1.456zm19.056.592h1.616c1.536 0 2.048.032 2.16.032.16 0 .176-.016.176-.176v-1.152c0-.16-.016-.176-.176-.176-.112 0-.624.032-2.16.032h-1.616V-6.48c.736.016 1.04.032 1.12.032.16 0 .176-.016.176-.176v-.752A16.831 16.831 0 00-9.664-6.1a.974.974 0 00.368.112c.128 0 .176-.112.3-.416a4.458 4.458 0 01.576-1.008A15.36 15.36 0 01-11.024-8.5c.464-.4.88-.784 1.232-1.136a1.466 1.466 0 01.56-.432c.128-.048.208-.128.208-.224s-.048-.176-.192-.272c-.368-.24-.784-.48-1.248-.736a3.937 3.937 0 01-.448.688 13.6 13.6 0 01-1.36 1.328c-.3-.224-.592-.48-.88-.736a14.186 14.186 0 001.1-1.056 1.587 1.587 0 01.552-.424c.144-.064.208-.144.208-.24 0-.08-.032-.16-.176-.256a11.882 11.882 0 00-1.232-.736 4.071 4.071 0 01-.448.672 7.959 7.959 0 01-.96 1.024 3.882 3.882 0 01-.224-.32 4.959 4.959 0 01-.736-1.376c-.08-.176-.128-.192-.272-.192-.112 0-.56.032-1.456.032h-2.208c-1.2 0-1.584-.032-1.68-.032-.176 0-.192.016-.192.176v1.1c0 .16.016.176.192.176.1 0 .48-.032 1.68-.032h1.792a9.57 9.57 0 01-1.792 1.9 21.05 21.05 0 00-1.744-1.616c-.144-.112-.176-.08-.32.032l-.8.64c-.08.064-.128.112-.128.144 0 .048.048.1.128.16a13.293 13.293 0 011.616 1.552 17.6 17.6 0 01-2.96 1.472 3.507 3.507 0 01.656.88c.144.288.208.416.336.416a1.1 1.1 0 00.368-.128 21.13 21.13 0 002.144-1.184v.608c0 .16.016.176.192.176.064 0 .352-.016 1.04-.032v.544c0 .432-.016.816-.032 1.168h-1.44C-21.472-4.768-22-4.8-22.1-4.8c-.176 0-.192.016-.192.176v1.152c0 .16.016.176.192.176.1 0 .624-.032 2.144-.032h1.2c-.464 1.648-1.616 2.4-4.112 3.056a3.682 3.682 0 01.816 1.04c.16.288.224.4.352.4a1.361 1.361 0 00.352-.112c2.64-.96 3.872-2.16 4.32-4.384h1.968v2.64c0 .8.1 1.072.5 1.344a4.848 4.848 0 002.48.352 4.4 4.4 0 002.3-.4c.48-.3.688-.784.848-1.92.064-.416.032-.432-.4-.544a3.467 3.467 0 01-1.084-.444c-.064 1.04-.192 1.408-.4 1.6-.192.176-.56.256-1.264.256-.72 0-1.024-.048-1.168-.16-.128-.1-.176-.256-.176-.56zm-5.36-4.56a11.926 11.926 0 003.008-3.212 10.91 10.91 0 002.9 3.216zm1.936 3.12c.016-.368.032-.752.032-1.168v-.544h1.76v1.712zm17.936-5.04A3.634 3.634 0 014.672-6.1c0 3.024-2.128 4.144-4.832 4.784A3.393 3.393 0 01.96-.3c.208.32.352.384.688.288C4.9-.992 6.576-2.864 6.576-5.84c0-3.184-2.256-5.552-6.1-5.552a7 7 0 00-5.2 2.048 5.9 5.9 0 00-1.808 4.16c0 2.608 1.424 4.112 2.832 4.112a3.039 3.039 0 002.72-1.84 20.034 20.034 0 002-6.9zm-1.92.1a18.281 18.281 0 01-1.7 5.728c-.432.768-.784.976-1.2.976-.5 0-1.088-.816-1.088-2.288a4.607 4.607 0 011.248-2.96 4.819 4.819 0 012.74-1.46zm14.208-1.412c-1.04 0-1.84 0-2.7-.064a9.322 9.322 0 00.144 1.664c.032.176.08.288.208.272.864-.064 1.7-.1 2.528-.1l4.124-.012a19.626 19.626 0 01-3.008 4.016 19.435 19.435 0 01-5.632 4.08 4.384 4.384 0 011.344 1.04.358.358 0 00.272.144 1.013 1.013 0 00.368-.128A23.019 23.019 0 0016.4-4.432a29.125 29.125 0 014.16 3.968.329.329 0 00.224.128.277.277 0 00.192-.1 8.573 8.573 0 001.072-1.084.4.4 0 00.112-.24.364.364 0 00-.128-.224A37.62 37.62 0 0017.6-5.856a25.249 25.249 0 002.048-2.992 2.93 2.93 0 01.592-.7.442.442 0 00.208-.32.426.426 0 00-.08-.208 5.833 5.833 0 00-1.04-1.12.529.529 0 00-.272-.128.267.267 0 00-.176.064 2.35 2.35 0 01-1.1.144zm11.28 6.112A18.4 18.4 0 0026.144-3.6a.33.33 0 00.224.112.363.363 0 00.288-.208 5.249 5.249 0 01.64-.816c1.1-1.216 1.824-2.08 2.608-2.9a.334.334 0 01.256-.128.4.4 0 01.256.112A72.492 72.492 0 0037.5-1.84a.267.267 0 00.176.064c.08 0 .16-.064.24-.176a9.375 9.375 0 00.832-1.392.279.279 0 00-.144-.432 50.812 50.812 0 01-7.168-5.2 1.851 1.851 0 00-1.392-.656c-.5 0-.8.176-1.44.848-.752.8-1.536 1.616-2.32 2.416a7.367 7.367 0 01-1.628 1.36zm11.216-6.768a1.688 1.688 0 00-1.728 1.712 1.707 1.707 0 001.728 1.712 1.707 1.707 0 001.728-1.712 1.707 1.707 0 00-1.728-1.712zm0 .768a.916.916 0 01.944.944.916.916 0 01-.944.944.916.916 0 01-.944-.944.916.916 0 01.944-.944zM41.1-6.96a14.03 14.03 0 013.232 1.744.31.31 0 00.192.1c.064 0 .128-.064.208-.16a6.515 6.515 0 00.7-1.216.475.475 0 00.064-.176c0-.1-.064-.16-.176-.24a11.1 11.1 0 00-3.064-1.572c-.144-.032-.224.048-.3.16-.196.256-.456.72-.856 1.36zm1.936-3.76a15.474 15.474 0 013.1 1.968.412.412 0 00.24.112.178.178 0 00.16-.1 6.848 6.848 0 00.816-1.2.387.387 0 00.064-.208.253.253 0 00-.128-.208 10.877 10.877 0 00-3.008-1.776c-.192-.1-.288-.064-.4.128-.264.42-.568.868-.84 1.284zm-.668 9.12A10.1 10.1 0 0043.552.032a.412.412 0 00.32.192.355.355 0 00.256-.124 5.257 5.257 0 01.928-.544 37.146 37.146 0 004.784-3.012 29.809 29.809 0 004.064-3.7.5.5 0 00.176-.368.782.782 0 00-.08-.3 7.991 7.991 0 01-.464-1.792 29.116 29.116 0 01-4.608 4.464 26.8 26.8 0 01-4.384 2.768 7.4 7.4 0 01-2.176.784zm19.344-3.472l.752 2.96c.224.9.448 1.776.64 2.672.064.272.192.288.4.24A5.411 5.411 0 0064.56.48a.311.311 0 00.208-.432c-.24-.9-.464-1.68-.736-2.688l-.736-2.9 3.088-.816a11.55 11.55 0 01-1.7 2.448 4.277 4.277 0 011.28.48.46.46 0 00.24.08.3.3 0 00.24-.144A18.979 18.979 0 0068.256-6.5a1.231 1.231 0 01.256-.336.466.466 0 00.176-.32.359.359 0 00-.128-.24 8.634 8.634 0 00-.944-.8.5.5 0 00-.272-.144.277.277 0 00-.192.1 1.762 1.762 0 01-.8.352l-3.472.88-.3-1.2a2.61 2.61 0 01-.1-1.152c.032-.224-.08-.32-.336-.32-.416 0-1.216.1-1.872.176a6.092 6.092 0 01.656 1.616l.352 1.344-.96.256a19.1 19.1 0 01-2.432.528 8.97 8.97 0 00.56 1.408c.08.16.16.224.272.224a.879.879 0 00.288-.08 12.986 12.986 0 011.76-.624zM75.424-6.88c0 .688-.048 1.616-.048 2.176-.016.192.08.272.3.272h1.28c.256 0 .352-.08.352-.32-.016-.56-.048-1.184-.048-2.016V-10a3.683 3.683 0 01.176-1.52.67.67 0 00.064-.24c0-.112-.08-.208-.272-.256a11.841 11.841 0 00-1.984-.336 10.954 10.954 0 01.176 2.336zM82.96-10a4.82 4.82 0 01.144-1.744.507.507 0 00.064-.256.269.269 0 00-.224-.272 10.013 10.013 0 00-2.08-.352 11.748 11.748 0 01.176 2.608v3.024c0 2.032-.336 3.36-1.072 4.272a7.818 7.818 0 01-3.9 2.336 5.2 5.2 0 011.36.976.519.519 0 00.384.192A1.011 1.011 0 0078.144.7a8.255 8.255 0 003.52-2.512c.944-1.264 1.3-2.848 1.3-5.216zm9.616-1.12c-1.04 0-1.84 0-2.7-.064a9.322 9.322 0 00.144 1.664c.032.176.08.288.208.272.864-.064 1.7-.1 2.528-.1l4.124-.012a19.626 19.626 0 01-3.008 4.016 19.435 19.435 0 01-5.632 4.08 4.384 4.384 0 011.344 1.04.358.358 0 00.272.144 1.013 1.013 0 00.368-.128A23.019 23.019 0 0095.6-4.432a29.124 29.124 0 014.16 3.968.329.329 0 00.224.128.277.277 0 00.192-.1 8.573 8.573 0 001.072-1.088.4.4 0 00.112-.24.364.364 0 00-.128-.224A37.62 37.62 0 0096.8-5.856a25.249 25.249 0 002.048-2.992 2.93 2.93 0 01.592-.7.442.442 0 00.208-.32.426.426 0 00-.08-.208 5.833 5.833 0 00-1.04-1.12.529.529 0 00-.272-.128.267.267 0 00-.176.064 2.35 2.35 0 01-1.1.144zm17.776.608a4.167 4.167 0 01.112-1.5.842.842 0 00.128-.368c0-.128-.08-.224-.3-.272a11.81 11.81 0 00-2-.256 12.209 12.209 0 01.16 2.368v7.872c0 1.024-.016 1.968-.064 3.152 0 .192.08.24.3.24a10.573 10.573 0 001.424 0c.224 0 .3-.048.288-.24-.032-1.152-.064-2.1-.064-3.136v-3.54a17.721 17.721 0 014.208 2.048.245.245 0 00.176.08c.08 0 .144-.064.208-.176a9.4 9.4 0 00.688-1.392c.08-.208 0-.32-.176-.416a22.569 22.569 0 00-5.088-2.176zm-230.1 20.768v13.968h.96V11.136h4.064v-.88zm6.992 1.36v12.416h3.872c3.728 0 6.192-2.112 6.192-6.288s-2.208-6.128-5.9-6.128zm2.144 1.664h1.792c2.4 0 3.84 1.28 3.84 4.48 0 3.232-1.536 4.608-3.952 4.608h-1.68zm15.1-1.664h-2.608l-3.808 12.416h2.048l1.072-3.648H-95l1.056 3.648h2.256zm.128 7.168h-3.04l.672-2.528c.272-.96.5-1.856.768-3.04h.144c.272 1.168.464 2.08.736 3.056zm7.568-7.168h-2.176v12.416h2.176zm8.112 0h-2.608l-3.808 12.416h2.048L-83 20.384h3.808l1.056 3.648h2.256zm.128 7.168h-3.04l.672-2.528c.272-.96.5-1.856.768-3.04h.144c.272 1.168.464 2.08.736 3.056zm7.568-7.168h-2.176v12.416h8v-1.744h-5.824zm15.84 0h-8.192v12.416h8.32V22.32h-6.16v-4h4.56v-1.712h-4.56v-3.28h6.032zm11.44 3.552a4.5 4.5 0 00-4.72-3.776c-3.2 0-5.392 2.336-5.392 6.448 0 4.1 2.176 6.416 5.392 6.416a4.437 4.437 0 004.784-3.7l-2.032-.624c-.352 1.808-1.248 2.656-2.736 2.656-1.808 0-3.12-1.616-3.12-4.768 0-3.168 1.28-4.768 3.12-4.768 1.408 0 2.3.9 2.608 2.624zm6.08 10.416V11.616h-.96V24.7h-4.064v.88zm13.12-13.776a12.909 12.909 0 01-.288 2.384 30.544 30.544 0 00-.544 5.248 15 15 0 00.736 4.768c.032.112.1.192.208.176a7.942 7.942 0 001.312-.256c.144-.032.208-.1.208-.208 0-.128-.032-.256-.032-.448a1.817 1.817 0 01.048-.5 15.642 15.642 0 01.912-2.416.443.443 0 00.08-.256.637.637 0 00-.112-.24 4.153 4.153 0 01-.56-1.008c-.464 1.12-.752 1.648-1.088 2.384a15.429 15.429 0 01-.1-1.872 25.926 25.926 0 01.672-5.168 3.78 3.78 0 01.384-1.136c.208-.32.24-.368.24-.48 0-.144-.1-.24-.368-.384a7.081 7.081 0 00-1.708-.588zm3.68 8.256a3.525 3.525 0 00.56 2.08c.688.944 1.792 1.328 4.16 1.328a21.482 21.482 0 002.608-.172c.272-.032.272-.048.272-.24a11.855 11.855 0 00-.1-1.376c-.032-.208-.064-.224-.224-.208a22.935 22.935 0 01-3.056.208c-1.744 0-2.512-.4-2.608-1.5 0-.176-.032-.256-.16-.24zm.512-4.544a19.561 19.561 0 013.632-.368c.816 0 1.648.032 2.608.1.144.016.192-.048.208-.192.032-.448.032-.88.032-1.36 0-.16-.032-.192-.368-.208-.672-.064-1.408-.1-2.368-.1a25.546 25.546 0 00-3.472.288c-.16.032-.208.08-.224.272-.032.272-.032.672-.048 1.568zm21.088 5.488c1.5 0 2.016.032 2.112.032.16 0 .176-.016.176-.176v-1.12c0-.16-.016-.176-.176-.176-.08 0-.512.032-1.6.032v-2.16H.52c1.392 0 1.872.032 1.968.032.144 0 .16-.016.16-.176v-1.168c0-.16-.016-.176-.16-.176-.1 0-.576.032-1.968.032H.264V13.92c.992.016 1.376.032 1.456.032.176 0 .192-.016.192-.16V12.64c0-.16-.016-.176-.192-.176-.1 0-.64.032-2.192.032h-7.264c.192-.272.368-.544.528-.8a1.5 1.5 0 01.368-.464.278.278 0 00.144-.224c0-.08-.1-.16-.224-.208a9.156 9.156 0 00-1.38-.4 5.135 5.135 0 01-.4.96 9.142 9.142 0 01-2.784 2.976 3.3 3.3 0 01.72.7c.176.224.256.32.352.32.08 0 .176-.064.368-.208.272-.24.544-.5.8-.768v1.6H-9.7c-1.392 0-1.872-.032-1.968-.032-.144 0-.16.016-.16.176V17.3c0 .16.016.176.16.176.1 0 .576-.032 1.968-.032h.464V19.6c-1.152 0-1.6-.032-1.68-.032-.16 0-.176.016-.176.176v1.12c0 .16.016.176.176.176.1 0 .624-.032 2.112-.032zm-2.24-1.408v-2.16h1.28v2.16zm-2.656 0v-2.16h1.264v2.16zm-2.624 0v-2.16h1.232v2.16zm5.28-3.616V13.92h1.28v2.064zm-2.656 0V13.92h1.264v2.064zm-2.624 0V13.92h1.232v2.064zm-2.784 8.976c.1.064.144.1.192.1a.193.193 0 00.144-.1 10.5 10.5 0 001.888-2.8c.064-.16.064-.192-.144-.288l-.928-.384c-.224-.1-.256-.1-.32.064a7.977 7.977 0 01-1.808 2.464c-.064.064-.1.1-.1.144s.048.112.16.176zm9.872-3.072c-.208.1-.224.128-.128.256a14.666 14.666 0 011.616 2.672c.08.144.128.16.32.064l1.008-.56c.208-.112.224-.144.144-.288A13.081 13.081 0 00.552 21.5c-.112-.124-.16-.14-.352-.044zm-3.152.048c-.224.048-.256.08-.192.24a14.121 14.121 0 01.672 2.576c.032.176.064.176.3.128l1.136-.224c.208-.048.224-.08.192-.256a13.825 13.825 0 00-.816-2.544c-.064-.144-.1-.16-.3-.128zm-3.152-.036c-.24.016-.272.048-.24.24a13.918 13.918 0 01.272 2.64c0 .16.016.192.272.16l1.152-.1c.192-.016.224-.064.208-.224a15.4 15.4 0 00-.368-2.656c-.032-.176-.08-.176-.272-.16zm13.808-6.08h-.656c-1.248 0-1.648-.032-1.744-.032-.16 0-.176.016-.176.176V17.1c0 .144.016.16.176.16.1 0 .5-.032 1.744-.032h.288A13.447 13.447 0 013.88 21.68a3.962 3.962 0 01.576 1.168c.064.192.128.272.192.272.08 0 .16-.1.288-.256a15.06 15.06 0 001.936-3.648c-.032 2.992-.112 5.632-.112 5.872 0 .16.016.176.176.176h1.312c.176 0 .192-.016.192-.176 0-.24-.112-3.1-.112-6.272a13.4 13.4 0 001.3 2.288c.112.16.192.24.256.24s.128-.1.224-.288A4.879 4.879 0 0110.744 20a14.262 14.262 0 01-2.16-2.768c1.152 0 1.536.032 1.632.032.16 0 .176-.016.176-.16v-1.136c0-.16-.016-.176-.176-.176-.1 0-.5.032-1.728.032H8.36v-3.008a4.651 4.651 0 01.112-1.616.75.75 0 00.1-.336c0-.064-.1-.144-.256-.16a15.85 15.85 0 00-1.616-.112 14.927 14.927 0 01.128 2.256zm5.936 4.192c-1.392.272-1.92.32-2.08.352s-.176.032-.144.208l.208 1.264c.016.144.048.16.208.128s.672-.144 2.064-.416l2.192-.432V22.3c0 1.776-.032 2.656-.032 2.752 0 .16.016.176.176.176h1.328c.16 0 .176-.016.176-.176 0-.08-.032-.992-.032-2.768V20.8c1.1-.224 1.536-.288 1.648-.32.176-.032.176-.048.16-.192l-.192-1.248c-.032-.176-.032-.192-.176-.16s-.512.144-1.44.336v-6.128a6.572 6.572 0 01.1-1.776.9.9 0 00.1-.32c0-.1-.1-.16-.24-.176-.56-.064-1.088-.1-1.7-.112a15.133 15.133 0 01.128 2.432v6.4zm-1.808-3.852c-.08.08-.128.128-.128.176 0 .032.048.064.112.128a13.681 13.681 0 012.112 2.176c.112.128.144.128.32-.032l.784-.784c.16-.16.16-.192.048-.336a11.461 11.461 0 00-2.208-2.048c-.08-.064-.112-.1-.16-.1-.032 0-.064.032-.144.112zm.464-3.68c-.16.144-.144.224-.032.3a11.56 11.56 0 012.176 2.1c.1.144.128.128.3-.048l.768-.752c.144-.128.144-.192.048-.3a11.285 11.285 0 00-2.256-2.032c-.144-.1-.16-.064-.3.064zM8.664 14.7a4.4 4.4 0 01.64.272.8.8 0 00.32.144c.1 0 .144-.1.24-.336a19.929 19.929 0 00.736-2.032.567.567 0 01.192-.352.161.161 0 00.1-.16c0-.08-.048-.128-.176-.192A11.186 11.186 0 009.5 11.6a5.943 5.943 0 01-.1.688 14.982 14.982 0 01-.736 2.412zm-4.048-2.668c-.208.08-.24.112-.176.288a12.065 12.065 0 01.816 2.672c.032.176.048.192.288.1l.688-.256c.208-.08.24-.128.208-.288a12.786 12.786 0 00-.864-2.688c-.08-.16-.1-.176-.288-.1zm23.168 13.152c.176 0 .192-.016.192-.16v-.784h4.032v.736c0 .144.016.16.16.16h1.312c.16 0 .176-.016.176-.16 0-.1-.032-1.152-.032-6.016V15.3c0-2.64.032-3.712.032-3.808 0-.16-.016-.176-.176-.176-.1 0-.576.032-1.952.032h-3.072c-1.376 0-1.856-.032-1.968-.032-.16 0-.176.016-.176.176 0 .112.032 1.168.032 4.336v3.152c0 4.9-.032 5.952-.032 6.048 0 .144.016.16.176.16zm.192-2.48v-2.32h4.032V22.7zm0-9.824h4.032v2.272h-4.032zm0 6v-2.224h4.032v2.224zm-4.352 6.384c.16 0 .176-.016.176-.176 0-.288-.1-3.664-.112-7.9a9.952 9.952 0 001.248 2.384c.1.144.16.224.224.224.048 0 .1-.08.176-.256a6.31 6.31 0 01.608-1.232 11.61 11.61 0 01-2.112-3.056c1.1 0 1.472.032 1.568.032.16 0 .176-.016.176-.176v-1.172c0-.16-.016-.176-.176-.176-.1 0-.48.032-1.664.032v-1.008a4.536 4.536 0 01.112-1.552.75.75 0 00.1-.336c0-.08-.1-.144-.256-.16-.512-.064-1.024-.1-1.6-.112a12.012 12.012 0 01.128 2.176v.992h-.52c-1.168 0-1.552-.032-1.648-.032-.16 0-.176.016-.176.176V15.1c0 .16.016.176.176.176.1 0 .48-.032 1.648-.032h.368a13.725 13.725 0 01-2.608 4.864 5.351 5.351 0 01.576 1.36c.048.176.1.256.16.256s.144-.08.256-.24a14.463 14.463 0 001.808-3.664c-.032 3.808-.112 6.976-.112 7.264 0 .16.016.176.176.176zm17.088-3.856c0-.752.032-1.136.032-1.232 0-.16-.016-.176-.16-.176-.112 0-.448.032-1.472.032H37.9c-1.024 0-1.36-.032-1.456-.032-.16 0-.176.016-.176.176 0 .112.032.5.032 1.5V22.7c0 1.936-.032 2.3-.032 2.416 0 .144.016.16.176.16h1.152c.16 0 .176-.016.176-.16v-.736h1.488v.432c0 .16.016.176.176.176h1.152c.144 0 .16-.016.16-.176 0-.064-.016-.272-.032-.96a3.769 3.769 0 01.72.976c.144.288.208.4.336.4a1.263 1.263 0 00.368-.112 6.177 6.177 0 003.5-3.744 7.176 7.176 0 003.408 3.712 1.007 1.007 0 00.368.144c.128 0 .176-.128.3-.4a5.737 5.737 0 01.656-1.12 6.188 6.188 0 01-4.204-4.908c.064-.688.1-.848.176-.96a.418.418 0 00.1-.288c0-.112-.112-.176-.3-.208a10.8 10.8 0 00-1.536-.16 6.876 6.876 0 01.016 1.52c-.176 2.576-1.136 4.336-3.9 5.136zm-1.456-.048v1.712h-1.488V21.36zm11.056-4.8c-2.016-.64-3.728-1.776-4.144-4.4.048-.576.08-.72.16-.816a.439.439 0 00.112-.288c0-.112-.128-.16-.32-.192a16.353 16.353 0 00-1.488-.16 8.908 8.908 0 01.016 1.472c-.128 2.288-1.216 3.808-3.776 4.56a3.938 3.938 0 01.656.88c.16.288.224.4.352.4a1.361 1.361 0 00.352-.112 5.642 5.642 0 003.392-3.28 5.923 5.923 0 003.408 3.264 1.291 1.291 0 00.352.1c.144 0 .176-.112.32-.416a4.677 4.677 0 01.608-1.012zm-12.784-3.136c-1.2 0-1.6-.032-1.68-.032-.16 0-.176.016-.176.176V14.7c0 .176.016.192.176.192.08 0 .48-.032 1.68-.032H39.3c1.216 0 1.6.032 1.7.032.16 0 .176-.016.176-.192v-1.132c0-.16-.016-.176-.176-.176-.1 0-.48.032-1.7.032zm.368-2.192c-1.04 0-1.36-.032-1.456-.032-.144 0-.16.016-.16.176v1.072c0 .144.016.16.16.16.1 0 .416-.032 1.456-.032h1.3c1.024 0 1.344.032 1.44.032.16 0 .176-.016.176-.16v-1.072c0-.16-.016-.176-.176-.176-.1 0-.416.032-1.44.032zm.1 4.464c-.976 0-1.264-.032-1.36-.032-.16 0-.176.016-.176.176v1.04c0 .16.016.176.176.176.1 0 .384-.032 1.36-.032h1.024c.944 0 1.232.032 1.328.032.176 0 .192-.016.192-.176v-1.04c0-.16-.016-.176-.192-.176-.1 0-.384.032-1.328.032zm0 2.16c-.976 0-1.264-.032-1.36-.032-.16 0-.176.016-.176.176v1.024c0 .16.016.176.176.176.1 0 .384-.032 1.36-.032h1.024c.944 0 1.232.032 1.328.032.176 0 .192-.016.192-.176V18c0-.16-.016-.176-.192-.176-.1 0-.384.032-1.328.032zm3.92 3.76a.352.352 0 00.192.1c.064 0 .1-.032.16-.112a8.63 8.63 0 001.392-2.24c.064-.16.048-.192-.16-.3l-.8-.416c-.208-.112-.24-.1-.32.064a8.058 8.058 0 01-1.328 2c-.112.128-.128.16.064.3zm4.924-1.056a4.738 4.738 0 01.832.56c.208.16.3.256.416.256.1 0 .192-.1.352-.256a12.12 12.12 0 001.072-1.312 1.268 1.268 0 01.272-.3c.112-.064.176-.112.176-.24 0-.08-.064-.16-.288-.272a7.045 7.045 0 00-1.232-.48 2.4 2.4 0 01-.3.608 7.337 7.337 0 01-1.3 1.436zm.064-6.576a2.948 2.948 0 01.816.512c.176.144.272.224.368.224s.192-.1.384-.288a8.649 8.649 0 001.008-1.264 1.468 1.468 0 01.272-.32c.1-.08.16-.128.16-.24 0-.1-.048-.128-.256-.24a9.327 9.327 0 00-1.2-.512 1.92 1.92 0 01-.288.608 7.636 7.636 0 01-1.268 1.52zm-4.672.9a.352.352 0 00.192.1c.048 0 .08-.032.144-.112a8.023 8.023 0 001.248-2.224c.048-.16.032-.192-.16-.272l-.832-.32c-.224-.08-.24-.112-.3.064a6.834 6.834 0 01-1.152 1.952c-.112.128-.112.16.08.288zm17.468-.452c-1.936 1.264-3.072 2.8-3.072 5.072 0 3.328 3.088 4.944 5.9 4.944.192 0 .256-.1.3-.336a5.692 5.692 0 00.176-1.376c0-.176-.1-.24-.352-.24-2.784-.176-4.256-1.3-4.256-3.36 0-1.92 1.36-3.792 4.08-4.72a7.139 7.139 0 011.952-.352c.208 0 .3-.048.3-.24a9.141 9.141 0 00-.176-1.408c-.016-.112-.1-.208-.336-.176-4.128.544-7.648 1.072-9.616 1.36a22.072 22.072 0 01-2.544.272 11.149 11.149 0 00.592 1.728.374.374 0 00.3.24.934.934 0 00.352-.128c.24-.08.4-.112 1.008-.256 1.712-.352 3.424-.688 5.376-1.056zm2.32 2.288a7.939 7.939 0 011.616 1.856.167.167 0 00.272.048l.672-.5a.161.161 0 00.048-.256 7.364 7.364 0 00-1.52-1.712c-.1-.08-.16-.1-.24-.032zm1.48-1.056a7.569 7.569 0 011.6 1.84.164.164 0 00.272.048l.64-.5a.185.185 0 00.048-.288 6.682 6.682 0 00-1.52-1.648c-.1-.08-.144-.1-.24-.032zm9.8-2.288a28.212 28.212 0 01-3.984.256c.1.512.208 1.1.256 1.28.032.16.128.224.32.224a27.708 27.708 0 003.888-.384c.208.448.448.992.608 1.328a27.9 27.9 0 01-4.3.4 8.073 8.073 0 00.288 1.312c.048.16.112.224.288.224a37.8 37.8 0 004.384-.48 18.608 18.608 0 001.328 1.888 7.409 7.409 0 00-2.752-.4c-2.5 0-3.968 1.072-3.968 2.784 0 1.968 1.952 3.008 5.632 3.008q.6 0 1.152-.048c.224-.016.288-.08.336-.24a10.4 10.4 0 00.32-1.456c.016-.128-.032-.208-.192-.208-.576.032-1.168.1-1.76.1-2.448 0-3.808-.336-3.808-1.376 0-.752.88-1.216 2.384-1.216a7.79 7.79 0 013.008.512 4.029 4.029 0 01.944.512.425.425 0 00.224.1c.1 0 .16-.048.256-.16a4.64 4.64 0 00.656-.992c.08-.176.08-.24-.08-.384a11.93 11.93 0 01-2.1-2.768 19.692 19.692 0 002.7-.784c.16-.064.16-.144.128-.288a6.067 6.067 0 00-.288-1.056c-.048-.144-.128-.176-.288-.1a18.791 18.791 0 01-2.912.832 17.384 17.384 0 01-.56-1.344c1.088-.24 2.064-.48 3.136-.816a.245.245 0 00.192-.288c-.064-.32-.176-.768-.272-1.072-.048-.128-.128-.144-.272-.08a24.954 24.954 0 01-3.264.848 8.065 8.065 0 01-.256-.832 2.84 2.84 0 01-.064-.48c0-.1.032-.208.032-.3 0-.16-.128-.288-.352-.288a11.314 11.314 0 00-1.936.176 4.058 4.058 0 01.56 1.024c.168.392.264.664.388 1.032zm16.448 7.1c-.752-.064-1.136-.064-1.536-.064-1.936 0-3.2.976-3.2 2.272 0 1.328 1.184 2.24 3.264 2.24 2.192 0 3.232-.7 3.248-2.432a12.7 12.7 0 013.184 1.824.245.245 0 00.176.08.235.235 0 00.208-.128 4.813 4.813 0 00.7-1.184c.048-.192.048-.24-.112-.384a14.266 14.266 0 00-4.24-1.936c-.048-.736-.08-1.52-.112-2.256a28.979 28.979 0 003.136-.384c.176-.016.24-.064.24-.224 0-.48-.032-1.008-.048-1.312-.016-.144-.064-.176-.256-.128-1.152.176-1.92.336-3.136.416 0-.576-.016-1.168-.016-1.808a32.731 32.731 0 003.7-.416c.128-.016.176-.048.176-.256a8.548 8.548 0 00-.08-1.168c-.016-.192-.08-.24-.272-.192a26.923 26.923 0 01-3.5.48c.016-.48.016-.7.032-1.024a2.056 2.056 0 01.24-.768.326.326 0 00-.176-.48 9.271 9.271 0 00-2.016-.288 4.6 4.6 0 01.192 1.072c.016.544.032.96.032 1.552a36.581 36.581 0 01-4.192-.16c.032.656.064 1.04.112 1.44.016.16.1.224.272.224a26.331 26.331 0 003.824.08c.016.608.016 1.232.032 1.84a22.512 22.512 0 01-3.6-.128 9.55 9.55 0 00.1 1.36c.016.208.08.272.256.272a28.331 28.331 0 003.3.064c.008.548.04 1.204.072 1.908zM89.784 22a1.535 1.535 0 01-.176.9 1.976 1.976 0 01-1.456.48c-1.1 0-1.584-.3-1.584-.72 0-.512.56-.848 1.728-.848a6.9 6.9 0 011.488.188zm16.416-8.48c-1.92.112-3.984.24-4.96.32a10.553 10.553 0 01-1.952.064 11.211 11.211 0 00.4 1.616c.048.16.112.224.272.224.144 0 .4-.144.752-.192 1.264-.176 3.52-.368 5.536-.48 0 .528.016 1.072.016 1.632a1.961 1.961 0 00-1.216-.32 2.331 2.331 0 00-2.416 2.4 2.216 2.216 0 002.224 2.448 1.847 1.847 0 001.5-.64 5.345 5.345 0 01-3.28 3.52 3.566 3.566 0 011.216.64.906.906 0 00.48.24 1.525 1.525 0 00.624-.3 5.974 5.974 0 002.848-5.168 4.985 4.985 0 00-.24-1.584c-.016-.976-.016-2-.016-2.976 1.664-.016 3.216-.016 4.88.032.192.016.272-.032.272-.208.016-.4.016-.816 0-1.216-.016-.208-.048-.24-.24-.24-1.536 0-3.184.016-4.912.08.016-.608.016-.816.032-1.024a1.673 1.673 0 01.128-.464.674.674 0 00.144-.368c0-.144-.176-.256-.448-.3a16.256 16.256 0 00-1.872-.224 5.084 5.084 0 01.192 1.168c.02.424.02.824.036 1.32zm-1.024 4.112a.959.959 0 011.056 1.024 1.028 1.028 0 01-1.088 1.1.992.992 0 01-1.024-1.088 1.018 1.018 0 011.056-1.036zm18.144-6.3h-2.5l.448 9.52h1.616zm-2.4 11.068v2.16h2.272V22.4z" transform="translate(173.471 84.684)" fill="#313131"/></g></svg>