<svg id="txt_head_single-cv.svg" xmlns="http://www.w3.org/2000/svg" width="914" height="96.72" viewBox="0 0 914 96.72"><defs><style>.cls-3,.cls-4{fill-rule:evenodd}.cls-3{opacity:.38}.cls-4{fill:#9e9e9e}</style></defs><path id="長方形_517" data-name="長方形 517" fill="#fffc8e" d="M0 13h901v72H0z"/><path id="対話_組織開発のスペシャリスト_DAIALEC_に無料相談できます_" data-name="対話・組織開発のスペシャリスト「DAIALEC」に無料相談できます！" d="M297.866 4325.91c-.207.2-.207.27-.023.41a37.625 37.625 0 013.357 3.56 15.437 15.437 0 01-4.737 5.57 4.623 4.623 0 011.242 1.36.813.813 0 00.46.48 1.029 1.029 0 00.483-.32 21.839 21.839 0 004.162-4.99c.69.99 1.334 2 1.932 3.06a.346.346 0 00.207.2.468.468 0 00.253-.16l1.356-1.24c.23-.23.207-.3.069-.48a47.763 47.763 0 00-2.69-3.68 23.707 23.707 0 001.448-6.81c.966.02 1.357.05 1.472.05.23 0 .253-.03.253-.28v-1.72c0-.23-.023-.26-.253-.26-.138 0-.805.05-2.805.05h-.667v-1.47a4.266 4.266 0 01.115-1.38 1.341 1.341 0 00.138-.46c0-.14-.138-.23-.368-.23a19.96 19.96 0 00-2.438-.16 9.716 9.716 0 01.184 2.23v1.47h-1.172c-1.978 0-2.645-.05-2.783-.05-.23 0-.253.03-.253.26v1.72c0 .25.023.28.253.28.138 0 .805-.05 2.783-.05h3.15a20.14 20.14 0 01-.828 4.81 75.566 75.566 0 00-2.713-2.83.255.255 0 00-.207-.12.328.328 0 00-.23.12zm17.269-1.71c1.449.03 2 .05 2.116.05.23 0 .253-.02.253-.25v-1.86c0-.23-.023-.26-.253-.26-.115 0-.667.05-2.116.05v-1.68a7.107 7.107 0 01.138-2.32 1.093 1.093 0 00.138-.49.348.348 0 00-.368-.25c-.758-.07-1.609-.11-2.437-.14a26.169 26.169 0 01.138 3.25v1.63h-2.208c-1.931 0-2.575-.05-2.713-.05-.23 0-.253.03-.253.26v1.86c0 .23.023.25.253.25.138 0 .782-.05 2.713-.05h2.208v10.54c0 .55-.184.73-.851.73a24.189 24.189 0 01-2.621-.07 5.669 5.669 0 01.689 1.73c.161.71.161.69.851.69 2.231 0 3.174-.14 3.657-.51.574-.48.712-.99.712-2.16 0-1.29-.046-3.04-.046-4.64v-6.31zm-7.841 2.53c-.23.14-.276.21-.115.42a19.156 19.156 0 012.507 4.34c.092.23.138.26.413.1l1.472-.85c.23-.14.253-.21.161-.44a17.283 17.283 0 00-2.667-4.3c-.138-.19-.23-.19-.46-.05zm25.782-.64v3.1h-.85c-1.932 0-2.6-.04-2.76-.04-.23 0-.253.02-.253.25 0 .14.046.78.046 2.6v1.79c0 3.18-.046 3.77-.046 3.94 0 .2.023.23.253.23h1.886c.23 0 .253-.03.253-.23v-.95h5.473v.83c0 .21.023.23.253.23h1.885c.23 0 .253-.02.253-.23 0-.14-.046-.74-.046-3.89v-2.06c0-1.48.046-2.12.046-2.26 0-.23-.023-.25-.253-.25-.138 0-.828.04-2.759.04h-.966v-3.1h1.886c2.138 0 2.874.05 3.012.05.23 0 .253-.03.253-.26v-1.74c0-.21-.023-.23-.253-.23-.138 0-.874.04-3.012.04h-1.886v-3.61c1.035-.25 2.024-.55 2.943-.87a3.8 3.8 0 01.9-.19c.322 0 .46-.09.46-.25a.613.613 0 00-.161-.39 16.89 16.89 0 00-1.38-1.66 5.044 5.044 0 01-1.172.58 32.809 32.809 0 01-8.716 1.75 4.231 4.231 0 01.8 1.56c.184.55.184.58.736.51 1.081-.14 2.139-.3 3.173-.49v3.06h-1.494c-2.139 0-2.852-.04-2.99-.04-.23 0-.252.02-.252.23v1.74c0 .23.022.26.252.26.138 0 .851-.05 2.99-.05h1.494zm-1.471 5.17h5.473v3.48h-5.473v-3.48zm-4.024 1.08c0-1.08.046-1.63.046-1.77 0-.23-.023-.25-.253-.25-.161 0-.621.05-2.116.05h-2.207c-1.472 0-1.955-.05-2.093-.05-.253 0-.276.02-.276.25 0 .17.046.72.046 2.17v1.54c0 2.78-.046 3.31-.046 3.47 0 .21.023.23.276.23h1.679c.23 0 .253-.02.253-.23v-1.06h2.552v.62c0 .23.023.25.253.25h1.679c.23 0 .253-.02.253-.25 0-.14-.046-.64-.046-3.31v-1.66zm-2.139-.06v2.53h-2.552v-2.53h2.552zm-3.012-11.34c-1.748 0-2.323-.05-2.461-.05-.207 0-.23.03-.23.26v1.63c0 .25.023.27.23.27.138 0 .713-.04 2.461-.04h3.15c1.748 0 2.323.04 2.461.04.23 0 .253-.02.253-.27v-1.63c0-.23-.023-.26-.253-.26-.138 0-.713.05-2.461.05h-3.15zm.69-3.15c-1.5 0-1.955-.05-2.093-.05-.23 0-.253.03-.253.26v1.51c0 .23.023.26.253.26.138 0 .6-.05 2.093-.05h2.207c1.472 0 1.932.05 2.07.05.253 0 .276-.03.276-.26V4318c0-.23-.023-.26-.276-.26-.138 0-.6.05-2.07.05h-2.207zm.069 6.39c-1.4 0-1.817-.04-1.955-.04-.23 0-.253.02-.253.25v1.49c0 .23.023.26.253.26.138 0 .552-.05 1.955-.05h1.954c1.4 0 1.794.05 1.932.05.253 0 .276-.03.276-.26v-1.49c0-.23-.023-.25-.276-.25-.138 0-.529.04-1.932.04h-1.954zm0 3.08c-1.4 0-1.817-.04-1.955-.04-.23 0-.253.02-.253.25v1.47c0 .23.023.25.253.25.138 0 .552-.04 1.955-.04h1.954c1.4 0 1.794.04 1.932.04.253 0 .276-.02.276-.25v-1.47c0-.23-.023-.25-.276-.25-.138 0-.529.04-1.932.04h-1.954zm29.9-2.16a2.3 2.3 0 102.3 2.3 2.309 2.309 0 00-2.302-2.3zm30.611 12.21c2.208 0 2.944.05 3.082.05.253 0 .276-.03.276-.26v-1.79c0-.25-.023-.27-.276-.27-.115 0-.575.04-1.725.04v-12.81c0-2.6.046-3.93.046-4.07 0-.25-.023-.27-.276-.27-.138 0-.759.04-2.621.04h-3.633c-1.84 0-2.484-.04-2.622-.04-.23 0-.253.02-.253.27 0 .14.046 1.45.046 4.07v12.81c-1.334 0-1.816-.04-1.931-.04-.253 0-.276.02-.276.27v1.79c0 .23.023.26.276.26.138 0 .9-.05 3.1-.05h6.787zm-5.61-2.23v-3.72h4.622v3.72h-4.622zm0-5.93v-3.4h4.622v3.4h-4.622zm4.622-8.95v3.34h-4.622v-3.34h4.622zm-10.325 4.42c-.322.11-.345.18-.253.39.23.46.46.92.644 1.4l-2.645.19a72.23 72.23 0 003.473-4.97 2.668 2.668 0 01.758-.94.369.369 0 00.253-.35.38.38 0 00-.275-.34 13.761 13.761 0 00-1.932-.99 11.765 11.765 0 01-.69 1.58c-.529.92-1.081 1.84-1.656 2.74-.344-.44-.735-.85-1.1-1.26a34.136 34.136 0 002.046-3.25 1.4 1.4 0 01.437-.55.415.415 0 00.207-.3.45.45 0 00-.3-.36 14.459 14.459 0 00-2-.86 6.966 6.966 0 01-.529 1.43 23.66 23.66 0 01-1.265 2.39l-.69-.69a.407.407 0 00-.207-.14.36.36 0 00-.23.21l-.759 1.2a.711.711 0 00-.161.3.329.329 0 00.138.2 30.7 30.7 0 013.174 3.47 17.928 17.928 0 01-1.173 1.59h-.322c-.552.02-1.173 0-1.84-.04.115.73.207 1.37.322 1.93a.379.379 0 00.253.39.817.817 0 00.368-.12 2.251 2.251 0 01.828-.18c.69-.05 1.4-.09 2.162-.16v6.16c0 2.12-.046 2.87-.046 3.01 0 .23.023.26.253.26h1.793c.23 0 .253-.03.253-.26 0-.11-.046-.89-.046-3.01v-6.35c.6-.07 1.2-.13 1.771-.18l.276 1.03c.046.21.138.26.391.17l1.08-.4c.3-.11.368-.2.276-.46a26.229 26.229 0 00-1.678-4.11c-.115-.21-.161-.25-.437-.14zm-6.945 10.92a6.3 6.3 0 011.173.58 1.145 1.145 0 00.529.27.555.555 0 00.322-.48 24.361 24.361 0 001.035-4.23 4.257 4.257 0 01.184-.83.649.649 0 00.138-.32c0-.12-.115-.21-.391-.28-.437-.11-1.081-.2-1.771-.3a5.863 5.863 0 01-.092 1.29 18.565 18.565 0 01-1.129 4.3zm7.06-5.49c-.276.06-.368.11-.276.36a15.492 15.492 0 01.736 3.71c.023.23.069.23.414.13l1.126-.3a.3.3 0 00.3-.41 20.6 20.6 0 00-.85-3.59c-.069-.25-.115-.27-.391-.2zm31.439-4.01a36.779 36.779 0 00.644 5.87l.161.8a14.792 14.792 0 01-1.794 1.82c-.023-.48-.023-1.36-.023-2.92v-2.07c0-1.47.046-2.12.046-2.25 0-.23-.023-.26-.253-.26-.138 0-.575.05-1.931.05h-1.817c-1.38 0-1.816-.05-1.977-.05-.23 0-.253.03-.253.26 0 .16.046.82.046 2.82v1.82c0 3.36-.046 3.98-.046 4.12 0 .23.023.25.253.25h1.4c.23 0 .253-.02.253-.25v-1.31h2.415v.27c0 .23.023.26.253.26h.666a19.818 19.818 0 01-1.678 1.1 4.661 4.661 0 011.058 1.17.606.606 0 00.368.37 1.046 1.046 0 00.528-.25 21.414 21.414 0 003.174-2.81c.759 1.84 1.678 2.71 2.552 2.71 1.1 0 1.748-.96 2.047-3.7.046-.46.069-.55-.345-.76a7.712 7.712 0 01-1.173-.82c-.092 2.13-.3 2.69-.552 2.69-.276 0-.621-.67-.989-2.07a21.574 21.574 0 001.725-3.08 6.674 6.674 0 01.6-1.13.69.69 0 00.253-.46.468.468 0 00-.276-.39 13.053 13.053 0 00-1.748-.88 12.284 12.284 0 01-.529 1.84 11.632 11.632 0 01-.62 1.38c-.184-1.17-.276-2.55-.368-4.14h.322c2.23 0 3.012.05 3.127.05.253 0 .276-.02.276-.25v-1.52c0-.25-.023-.28-.276-.28-.115 0-.9.05-3.127.05h-.393c-.046-1.2-.046-2.51-.046-3.93a6.538 6.538 0 01.138-2.26 1.593 1.593 0 00.138-.48.405.405 0 00-.391-.25c-.828-.09-1.311-.12-2.162-.14a27.919 27.919 0 01.161 3.2l.069 3.86H402.1l.414-1.22a.93.93 0 01.23-.41.334.334 0 00.138-.28.312.312 0 00-.253-.25 10.265 10.265 0 00-1.793-.48 8.206 8.206 0 01-.115.98 16.719 16.719 0 01-.391 1.66h-.966a15.569 15.569 0 00-.736-2.39c-.092-.23-.138-.25-.391-.19l-1.057.3c-.3.1-.345.12-.253.35a12.678 12.678 0 01.6 1.93c-1.011 0-1.448-.05-1.54-.05-.23 0-.253.03-.253.28v1.52c0 .23.023.25.253.25.138 0 .92-.05 3.15-.05h4.806zm-5.289 7.06v-1.4h2.415v1.4h-2.417zm0-4.39h2.415v1.4h-2.417v-1.4zm2.162-7.54c1.586 0 2.046.05 2.184.05.23 0 .253-.03.253-.28v-1.5c0-.2-.023-.23-.253-.23-.138 0-.6.05-2.115.05v-.67a2.934 2.934 0 01.092-.94 1.085 1.085 0 00.161-.44.363.363 0 00-.391-.2 20.836 20.836 0 00-2.162-.12 7.858 7.858 0 01.138 1.7v.67c-1.54 0-2.023-.05-2.161-.05-.23 0-.253.03-.253.23v.76a1.294 1.294 0 00-.184-.11 11.378 11.378 0 00-1.771-.83 7.592 7.592 0 01-.644 1.4c-.437.79-.851 1.57-1.333 2.35l-.828-1.01c.667-1.04 1.218-2.05 1.885-3.25a1.125 1.125 0 01.391-.55.355.355 0 00.207-.3.406.406 0 00-.3-.36c-.552-.28-1.172-.51-1.793-.76a9.145 9.145 0 01-.46 1.31 17.68 17.68 0 01-1.265 2.46l-.345-.37c-.161-.18-.184-.18-.368.02l-.943 1.11c-.207.25-.23.32-.046.46a33.28 33.28 0 012.668 3.1c-.414.65-.874 1.27-1.334 1.89-.46 0-.92 0-1.472-.03.092.67.207 1.34.345 1.94a.452.452 0 00.253.39.632.632 0 00.368-.12 2.063 2.063 0 01.874-.18q.725-.045 1.38-.12v6.05c0 2.12-.046 2.87-.046 3.01 0 .23.023.26.253.26h1.655c.23 0 .253-.03.253-.26 0-.11-.046-.89-.046-3.01v-6.25c.276-.03.575-.07.874-.12l.138.78c.023.23.115.28.414.19l.966-.28c.276-.07.3-.14.253-.37a24.459 24.459 0 00-1.2-3.95c-.069-.19-.138-.19-.414-.12l-.874.26c-.322.09-.322.16-.253.41.184.44.345.87.506 1.31a26.3 26.3 0 01-1.977.14c1.1-1.47 2.207-3.11 3.4-5.04a2.154 2.154 0 01.667-.87l.138-.09v.25c0 .25.023.28.253.28.138 0 .621-.05 2.184-.05h2.07zm-12.464 14.49a6.276 6.276 0 011.058.59 1.1 1.1 0 00.529.28.618.618 0 00.3-.53 19.952 19.952 0 00.805-4.28 2.741 2.741 0 01.115-.8.532.532 0 00.092-.35c0-.11-.069-.2-.345-.27-.368-.09-.989-.21-1.633-.3a13.578 13.578 0 01-.023 1.4 14.038 14.038 0 01-.9 4.26zm5.979-5.61c-.276.06-.322.09-.276.34a28.242 28.242 0 01.621 4.21c.023.27.046.3.414.18l.9-.27c.276-.1.345-.12.322-.37a26.518 26.518 0 00-.69-4.09c-.069-.23-.115-.28-.391-.21zm14.763-8.28a.319.319 0 00.207-.46 12.525 12.525 0 00-1.242-3.04c-.138-.21-.161-.18-.437-.07l-1.035.42c-.275.11-.3.2-.183.41a13.086 13.086 0 011.126 3.08c.069.28.161.28.437.16zm22.655-.9c0-2.02.046-2.99.046-3.15 0-.23-.023-.25-.253-.25-.138 0-.759.04-2.552.04h-3.381c-1.793 0-2.391-.04-2.529-.04-.253 0-.276.02-.276.25 0 .16.046.69.046 2.02v3.08c0 1.36-.046 1.87-.046 2.01 0 .23.023.25.276.25.138 0 .736-.05 2.529-.05h3.772v9.48c0 .69-.184.89-.943.89a11.649 11.649 0 01-1.679-.11 5.783 5.783 0 01.529 1.68c.115.71.138.71.851.71 1.839 0 2.506-.16 3.035-.62a2.433 2.433 0 00.667-2.12c0-1.12-.092-2.6-.092-4.2v-9.87zm-2.368 2.53H425.1v-1.33h4.278v1.33zm0-4.19v1.32H425.1v-1.32h4.278zm-13.912-1.7c-1.7 0-2.576-.04-2.737-.04-.23 0-.253.02-.253.25 0 .16.046 1.79.046 5.01v9.98c0 3.22-.046 4.81-.046 4.97 0 .23.023.25.253.25h1.955c.23 0 .253-.02.253-.25 0-.16-.046-1.75-.046-4.97v-7.68h3.771c1.518 0 2.184.05 2.322.05.207 0 .23-.02.23-.25 0-.14-.046-.79-.046-2.19v-2.71c0-1.41.046-2.05.046-2.21 0-.23-.023-.25-.23-.25-.138 0-.8.04-2.322.04h-3.2zm3.449 5.89h-4.026v-1.33h4.024v1.33zm0-4.19v1.32h-4.026v-1.32h4.024zm4.323 13.11v2.14c0 1.59-.046 2.35-.046 2.48 0 .26.023.28.253.28h1.7c.23 0 .253-.02.253-.28 0-.13-.046-.89-.046-2.48v-2.14c1.817 0 2.507.05 2.622.05.23 0 .253-.03.253-.28v-1.38c0-.23-.023-.25-.253-.25-.115 0-.805.05-2.622.05v-2.1c1.426.03 2 .05 2.116.05.23 0 .253-.02.253-.25v-1.41c0-.23-.023-.25-.253-.25-.138 0-.828.05-2.874.05h-4.921c-2.047 0-2.737-.05-2.875-.05-.253 0-.276.02-.276.25v1.41c0 .23.023.25.276.25.115 0 .644-.02 2.024-.05 0 .81-.023 1.52-.046 2.1-1.84 0-2.507-.05-2.622-.05-.23 0-.253.02-.253.25v1.38c0 .25.023.28.253.28.115 0 .759-.03 2.507-.05l-.046.42a5.389 5.389 0 01-2.461 3.38 6 6 0 011.357.96 1.058 1.058 0 00.529.42 1.079 1.079 0 00.437-.33 7.429 7.429 0 002.184-3.86 9.864 9.864 0 00.161-.99h2.415zm-2.277-1.81c.023-.6.046-1.32.046-2.1h2.231v2.1h-2.279zm27.622.85h2.323c2.207 0 2.943.04 3.1.04.23 0 .253-.02.253-.25v-1.66c0-.23-.023-.25-.253-.25-.161 0-.9.05-3.1.05h-2.323v-2.46c1.058.02 1.5.04 1.61.04.23 0 .253-.02.253-.25v-1.08a24.377 24.377 0 003.541 1.84 1.5 1.5 0 00.529.16c.184 0 .253-.16.437-.6a6.458 6.458 0 01.828-1.45 21.553 21.553 0 01-3.748-1.56c.666-.58 1.264-1.13 1.77-1.63a2.019 2.019 0 01.805-.62.391.391 0 00.3-.33.481.481 0 00-.276-.39c-.529-.34-1.127-.69-1.794-1.06a5.486 5.486 0 01-.643.99 18.036 18.036 0 01-1.955 1.91c-.437-.32-.851-.69-1.265-1.06a19.822 19.822 0 001.587-1.51 2.174 2.174 0 01.782-.62.41.41 0 00.3-.35.443.443 0 00-.253-.37 17.385 17.385 0 00-1.771-1.05 6.134 6.134 0 01-.644.96 11.3 11.3 0 01-1.379 1.47 5.579 5.579 0 01-.322-.46 7.154 7.154 0 01-1.058-1.97.338.338 0 00-.391-.28c-.161 0-.805.05-2.093.05h-3.173c-1.725 0-2.276-.05-2.414-.05-.253 0-.276.02-.276.25v1.59c0 .23.023.25.276.25.138 0 .689-.04 2.414-.04h2.576a13.833 13.833 0 01-2.576 2.73 30.2 30.2 0 00-2.506-2.32c-.207-.16-.253-.12-.46.05l-1.15.92a.448.448 0 00-.184.2.371.371 0 00.184.23 19.562 19.562 0 012.322 2.23 25.33 25.33 0 01-4.254 2.12 5.052 5.052 0 01.943 1.26.773.773 0 00.483.6 1.67 1.67 0 00.529-.18 30.631 30.631 0 003.081-1.7v.87c0 .23.023.25.276.25.092 0 .506-.02 1.495-.04v.78c0 .62-.023 1.17-.046 1.68H439.2c-2.184 0-2.943-.05-3.081-.05-.253 0-.276.02-.276.25v1.66c0 .23.023.25.276.25.138 0 .9-.04 3.081-.04h1.725c-.667 2.36-2.322 3.45-5.91 4.39a5.169 5.169 0 011.173 1.49.781.781 0 00.506.58 2.026 2.026 0 00.506-.16c3.794-1.38 5.565-3.11 6.208-6.3h2.829v3.79c0 1.15.138 1.54.713 1.93.6.42 1.678.51 3.564.51a6.25 6.25 0 003.311-.58c.69-.43.989-1.12 1.219-2.76.092-.59.046-.62-.575-.78a5 5 0 01-1.564-.64c-.092 1.49-.276 2.02-.574 2.3a2.794 2.794 0 01-1.817.37 3.157 3.157 0 01-1.679-.23.921.921 0 01-.253-.81v-3.1zm-7.7-6.56a17.085 17.085 0 004.323-4.62 15.707 15.707 0 004.162 4.62h-8.485zm2.782 4.49c.023-.53.046-1.08.046-1.68v-.78h2.53v2.46h-2.576zm26.013-7.25a5.226 5.226 0 015.151 5.34c0 4.34-3.059 5.95-6.945 6.87a4.9 4.9 0 011.61 1.45.74.74 0 00.989.42c4.668-1.41 7.082-4.1 7.082-8.37 0-4.58-3.242-7.98-8.761-7.98a10.065 10.065 0 00-7.473 2.94 8.478 8.478 0 00-2.6 5.98c0 3.75 2.047 5.91 4.07 5.91 1.725 0 2.921-.92 3.909-2.65a28.748 28.748 0 002.875-9.91h.092zm-2.76.14a26.22 26.22 0 01-2.437 8.23c-.621 1.11-1.127 1.41-1.725 1.41-.713 0-1.563-1.18-1.563-3.29a6.655 6.655 0 011.793-4.26 6.953 6.953 0 013.927-2.09zm20.655-2.02c-1.5 0-2.645 0-3.886-.09a13.483 13.483 0 00.207 2.39c.046.25.115.41.3.39 1.241-.09 2.437-.14 3.633-.14l5.933-.02a28.466 28.466 0 01-4.324 5.77 27.88 27.88 0 01-8.094 5.86 6.424 6.424 0 011.932 1.5.5.5 0 00.391.2 1.478 1.478 0 00.529-.18 33.1 33.1 0 007.726-6.07 41.933 41.933 0 015.979 5.7.464.464 0 00.322.19.409.409 0 00.276-.14 12.158 12.158 0 001.54-1.57.545.545 0 00.161-.34.512.512 0 00-.184-.32 54.667 54.667 0 00-6.369-5.57 36.15 36.15 0 002.943-4.3 4.219 4.219 0 01.851-1.01.63.63 0 00.3-.46.642.642 0 00-.115-.3 8.5 8.5 0 00-1.5-1.61.768.768 0 00-.391-.18.375.375 0 00-.253.09 3.419 3.419 0 01-1.586.21h-6.324zm16.446 8.78a27.594 27.594 0 002.139 2.03.5.5 0 00.322.16.532.532 0 00.414-.3 7.177 7.177 0 01.919-1.18c1.587-1.74 2.622-2.98 3.749-4.16a.492.492 0 01.368-.18.543.543 0 01.368.16 103.2 103.2 0 0010.186 8.02.389.389 0 00.253.1.5.5 0 00.345-.26 13.41 13.41 0 001.2-2 .4.4 0 00-.207-.62 73.063 73.063 0 01-10.3-7.47 2.652 2.652 0 00-2-.94c-.713 0-1.15.25-2.07 1.21a233.079 233.079 0 01-3.334 3.48 10.424 10.424 0 01-2.357 1.95zm16.12-9.73a2.431 2.431 0 00-2.484 2.47 2.484 2.484 0 102.479-2.47zm0 1.11a1.355 1.355 0 11-1.357 1.36 1.315 1.315 0 011.352-1.36zm7.754 5.82a19.909 19.909 0 014.645 2.5.461.461 0 00.276.14.488.488 0 00.3-.23 9.447 9.447 0 001.012-1.75.653.653 0 00.092-.25.429.429 0 00-.253-.34 15.927 15.927 0 00-4.415-2.26.411.411 0 00-.437.23c-.282.37-.65 1.04-1.225 1.96zm2.783-5.41a22.358 22.358 0 014.461 2.83.6.6 0 00.344.16.249.249 0 00.23-.14 9.835 9.835 0 001.173-1.72.577.577 0 00.092-.3.366.366 0 00-.184-.3 15.769 15.769 0 00-4.323-2.55.364.364 0 00-.575.18c-.395.6-.833 1.24-1.223 1.84zm-.966 13.11a14.728 14.728 0 001.7 2.35.594.594 0 00.46.27.535.535 0 00.368-.18 7.049 7.049 0 011.334-.78 53.686 53.686 0 006.875-4.33 42.887 42.887 0 005.841-5.31.7.7 0 00.253-.53 1.169 1.169 0 00-.115-.44 11.342 11.342 0 01-.667-2.57 41.9 41.9 0 01-6.622 6.41 38.4 38.4 0 01-6.3 3.98 10.536 10.536 0 01-3.132 1.13zm28.036-4.99l1.08 4.25c.322 1.29.644 2.56.92 3.84a.4.4 0 00.575.35 7.918 7.918 0 001.518-.46.449.449 0 00.3-.62c-.345-1.29-.667-2.42-1.058-3.87l-1.058-4.16 4.438-1.17a16.744 16.744 0 01-2.437 3.52 6.139 6.139 0 011.839.69.663.663 0 00.345.11.448.448 0 00.345-.2 27.072 27.072 0 002.6-4.33 1.781 1.781 0 01.368-.48.673.673 0 00.252-.46.509.509 0 00-.183-.34 11.582 11.582 0 00-1.357-1.15.7.7 0 00-.391-.21.371.371 0 00-.276.14 2.619 2.619 0 01-1.15.5l-4.99 1.27-.437-1.73a3.731 3.731 0 01-.138-1.65c.046-.32-.115-.46-.483-.46-.6 0-1.747.14-2.69.25a8.8 8.8 0 01.943 2.32l.506 1.93-1.38.37a28.156 28.156 0 01-3.5.76 12.487 12.487 0 00.805 2.02.454.454 0 00.391.33 1.259 1.259 0 00.413-.12 20.337 20.337 0 012.53-.9zm19.941-2.6c0 .99-.069 2.32-.069 3.13-.023.27.115.39.437.39h1.84a.406.406 0 00.506-.46c-.023-.81-.069-1.7-.069-2.9v-4.64a5.31 5.31 0 01.253-2.19.939.939 0 00.092-.34.416.416 0 00-.391-.37 16.547 16.547 0 00-2.852-.48 15.664 15.664 0 01.253 3.35v4.51zm10.831-4.48a6.927 6.927 0 01.207-2.51.711.711 0 00.092-.37.389.389 0 00-.322-.39 14.49 14.49 0 00-2.989-.5 16.811 16.811 0 01.253 3.74v4.35c0 2.92-.483 4.83-1.541 6.14a11.23 11.23 0 01-5.611 3.36 7.419 7.419 0 011.955 1.4.742.742 0 00.552.28 1.446 1.446 0 00.482-.12 11.788 11.788 0 005.059-3.61c1.357-1.82 1.863-4.09 1.863-7.5v-4.27zm14.055-1.61c-1.5 0-2.645 0-3.886-.09a13.483 13.483 0 00.207 2.39c.046.25.115.41.3.39 1.241-.09 2.437-.14 3.633-.14l5.933-.02a28.466 28.466 0 01-4.324 5.77 27.88 27.88 0 01-8.094 5.86 6.424 6.424 0 011.932 1.5.5.5 0 00.391.2 1.478 1.478 0 00.529-.18 33.1 33.1 0 007.726-6.07 41.88 41.88 0 015.979 5.7.464.464 0 00.322.19.409.409 0 00.276-.14 12.158 12.158 0 001.54-1.57.545.545 0 00.161-.34.512.512 0 00-.184-.32 54.667 54.667 0 00-6.369-5.57 36.15 36.15 0 002.943-4.3 4.219 4.219 0 01.851-1.01.63.63 0 00.3-.46.642.642 0 00-.115-.3 8.5 8.5 0 00-1.5-1.61.768.768 0 00-.391-.18.375.375 0 00-.253.09 3.419 3.419 0 01-1.586.21h-6.324zm25.782.87a5.972 5.972 0 01.161-2.16 1.218 1.218 0 00.184-.53.428.428 0 00-.437-.39 17.466 17.466 0 00-2.874-.37 17.587 17.587 0 01.23 3.41v11.31c0 1.47-.023 2.83-.092 4.53 0 .27.115.34.437.34a13.972 13.972 0 002.046 0c.322 0 .437-.07.414-.34-.046-1.66-.092-3.01-.092-4.51v-5.08a25.519 25.519 0 016.048 2.94.331.331 0 00.253.12.385.385 0 00.3-.25 13.655 13.655 0 00.989-2.01.418.418 0 00-.253-.59 32.124 32.124 0 00-7.313-3.13v-3.29zm27.116-4.64v20.07h1.38v-18.81h5.841v-1.26h-7.221zm10.284 1.95v17.85h5.565c5.358 0 8.9-3.04 8.9-9.04s-3.173-8.81-8.485-8.81h-5.979zm3.081 2.39h2.576c3.449 0 5.519 1.84 5.519 6.44 0 4.65-2.208 6.62-5.68 6.62h-2.415v-13.06zm22.286-2.39h-3.753l-5.473 17.85h2.944l1.54-5.25h5.473l1.518 5.25h3.242zm.184 10.3h-4.369l.966-3.63c.391-1.38.713-2.67 1.1-4.37h.207c.391 1.68.667 2.99 1.057 4.39zm11.11-10.3h-3.127v17.85h3.127v-17.85zm11.89 0h-3.748l-5.473 17.85h2.943l1.541-5.25h5.473l1.517 5.25h3.24zm.184 10.3h-4.369l.965-3.63c.391-1.38.713-2.67 1.1-4.37h.207c.391 1.68.667 2.99 1.058 4.39zm11.11-10.3h-3.128v17.85h11.5v-2.51H725.6v-15.34zm23 0H736.82v17.85h11.957v-2.47h-8.853v-5.74h6.554v-2.46h-6.554v-4.72h8.669v-2.46zm16.675 5.11a6.474 6.474 0 00-6.784-5.43c-4.6 0-7.749 3.36-7.749 9.27 0 5.88 3.127 9.22 7.749 9.22 3.634 0 5.933-1.64 6.876-5.31l-2.92-.9c-.506 2.6-1.794 3.82-3.933 3.82-2.6 0-4.484-2.33-4.484-6.86 0-4.55 1.84-6.85 4.484-6.85 2.024 0 3.312 1.29 3.749 3.77zm8.971 14.97v-20.08h-1.387v18.81h-5.841v1.27h7.22zm19.091-19.8a18.533 18.533 0 01-.414 3.42 44 44 0 00-.782 7.55 21.549 21.549 0 001.058 6.85.278.278 0 00.3.25 11.623 11.623 0 001.886-.37.294.294 0 00.3-.3c0-.18-.046-.36-.046-.64a2.606 2.606 0 01.069-.71 22.142 22.142 0 011.31-3.47.657.657 0 00.115-.37.984.984 0 00-.161-.35 5.775 5.775 0 01-.8-1.45c-.667 1.61-1.081 2.37-1.564 3.43a22.069 22.069 0 01-.138-2.69 37.242 37.242 0 01.966-7.43 5.439 5.439 0 01.552-1.63 1.3 1.3 0 00.345-.69.688.688 0 00-.529-.55 9.971 9.971 0 00-2.475-.85zm5.289 11.86a5.057 5.057 0 00.8 2.99c.989 1.36 2.575 1.91 5.979 1.91a31.628 31.628 0 003.748-.25c.391-.05.391-.07.391-.35a17.157 17.157 0 00-.138-1.98c-.046-.29-.092-.32-.322-.29a33.7 33.7 0 01-4.392.29c-2.507 0-3.611-.57-3.748-2.16 0-.25-.046-.36-.23-.34zm.736-6.53a28.2 28.2 0 015.22-.53c1.172 0 2.368.05 3.748.14.207.02.276-.07.3-.28.046-.64.046-1.26.046-1.95 0-.23-.046-.28-.529-.3-.966-.09-2.024-.14-3.4-.14a35.67 35.67 0 00-4.99.42.33.33 0 00-.322.39c-.058.39-.058.96-.081 2.25zm30.542 7.89c2.162 0 2.9.04 3.036.04.229 0 .252-.02.252-.25v-1.61c0-.23-.023-.25-.252-.25-.115 0-.736.05-2.3.05v-3.11H831c2 0 2.69.05 2.828.05.207 0 .23-.03.23-.26v-1.67c0-.23-.023-.26-.23-.26-.138 0-.827.05-2.828.05h-.368v-2.97c1.426.03 1.978.05 2.093.05.253 0 .276-.02.276-.23v-1.66c0-.23-.023-.25-.276-.25-.138 0-.92.05-3.151.05h-10.438c.275-.4.528-.79.758-1.15a2.136 2.136 0 01.529-.67.4.4 0 00.207-.32.419.419 0 00-.322-.3 13.393 13.393 0 00-1.977-.58 7.409 7.409 0 01-.575 1.38 13.085 13.085 0 01-4 4.28 4.573 4.573 0 011.034 1.01.909.909 0 00.506.46 1.109 1.109 0 00.529-.3c.391-.34.782-.71 1.15-1.1v2.3h-.667c-2 0-2.69-.05-2.828-.05-.207 0-.23.03-.23.26v1.67c0 .23.023.26.23.26.138 0 .828-.05 2.828-.05h.667v3.11c-1.656 0-2.3-.05-2.414-.05-.23 0-.253.02-.253.25v1.61c0 .23.023.25.253.25.138 0 .9-.04 3.035-.04h12.3zm-3.219-2.02v-3.11h1.84v3.11h-1.84zm-3.817 0v-3.11h1.816v3.11h-1.816zm-3.771 0v-3.11h1.77v3.11h-1.77zm7.588-5.2v-2.97h1.84v2.97h-1.84zm-3.817 0v-2.97h1.816v2.97h-1.816zm-3.771 0v-2.97h1.77v2.97h-1.77zm-4 12.9a.621.621 0 00.276.14.287.287 0 00.207-.14 15.136 15.136 0 002.714-4.03c.092-.23.092-.27-.207-.41l-1.334-.55c-.322-.14-.368-.14-.46.09a11.459 11.459 0 01-2.6 3.54.32.32 0 00-.138.21.362.362 0 00.23.25zm14.188-4.42c-.3.14-.322.19-.184.37a21.109 21.109 0 012.323 3.84c.115.21.184.23.46.09l1.448-.8c.3-.16.322-.21.207-.41a18.706 18.706 0 00-2.483-3.64c-.161-.18-.23-.21-.506-.07zm-4.53.07c-.322.07-.368.12-.276.35a20.076 20.076 0 01.966 3.7c.046.25.092.25.437.18l1.633-.32c.3-.07.322-.11.276-.37a19.881 19.881 0 00-1.173-3.65c-.092-.21-.138-.23-.437-.19zm-4.53-.04c-.345.02-.391.07-.345.34a20.043 20.043 0 01.391 3.8c0 .23.023.27.391.23l1.656-.14c.276-.03.322-.09.3-.32a22 22 0 00-.529-3.82c-.046-.25-.115-.25-.391-.23zm20.08-8.74h-.943c-1.793 0-2.368-.05-2.506-.05-.23 0-.253.03-.253.26v1.63c0 .21.023.23.253.23.138 0 .713-.05 2.506-.05h.414a19.17 19.17 0 01-3.7 6.39 5.858 5.858 0 01.828 1.68.448.448 0 00.276.39.75.75 0 00.414-.36 21.59 21.59 0 002.782-5.25c-.046 4.3-.161 8.1-.161 8.44 0 .23.023.26.253.26h1.885c.253 0 .276-.03.276-.26 0-.34-.161-4.46-.161-9.01a19.628 19.628 0 001.863 3.29.348.348 0 10.69-.07 6.981 6.981 0 01.92-1.52 20.27 20.27 0 01-3.1-3.98c1.656 0 2.208.05 2.346.05.23 0 .253-.02.253-.23v-1.63c0-.23-.023-.26-.253-.26-.138 0-.713.05-2.484.05h-.204v-4.32a6.734 6.734 0 01.161-2.33 1.051 1.051 0 00.138-.48.359.359 0 00-.368-.23c-.781-.09-1.471-.14-2.322-.16a21.39 21.39 0 01.184 3.24v4.28zm8.531 6.02c-2 .39-2.759.46-2.989.51s-.253.05-.207.3l.3 1.81c.023.21.069.23.3.19s.965-.21 2.966-.6l3.15-.62v1.7c0 2.55-.046 3.82-.046 3.96 0 .23.023.25.253.25h1.909c.23 0 .253-.02.253-.25 0-.12-.046-1.43-.046-3.98v-2.14c1.586-.32 2.207-.41 2.368-.46.253-.05.253-.07.23-.28l-.276-1.79c-.046-.25-.046-.28-.253-.23s-.735.21-2.069.48v-8.8a9.5 9.5 0 01.138-2.56 1.225 1.225 0 00.138-.46.32.32 0 00-.345-.25 26.76 26.76 0 00-2.438-.16 21.758 21.758 0 01.184 3.5v9.19zm-2.6-5.54a.531.531 0 00-.184.25.442.442 0 00.161.19 19.51 19.51 0 013.035 3.13c.161.18.207.18.46-.05l1.127-1.13c.23-.23.23-.27.069-.48a16.171 16.171 0 00-3.174-2.94.381.381 0 00-.23-.14.387.387 0 00-.207.16zm.667-5.29c-.23.21-.207.32-.047.44a16.917 16.917 0 013.128 3.01c.138.21.184.19.437-.07l1.1-1.08c.206-.18.206-.27.068-.43a16.3 16.3 0 00-3.242-2.93c-.207-.13-.23-.09-.437.1zm-3.956 3.2a6.914 6.914 0 01.92.39 1.142 1.142 0 00.46.21c.138 0 .207-.14.345-.49a27.4 27.4 0 001.058-2.92.8.8 0 01.276-.5.239.239 0 00.138-.23.322.322 0 00-.253-.28 14.268 14.268 0 00-1.748-.64 8.724 8.724 0 01-.138.99 21.6 21.6 0 01-1.066 3.47zm-5.817-3.84c-.3.11-.345.16-.253.41a17.349 17.349 0 011.172 3.84c.046.26.069.28.414.14l.989-.37c.3-.11.345-.18.3-.41a18.293 18.293 0 00-1.242-3.86c-.115-.23-.138-.26-.414-.14zm33.531 18.9c.253 0 .276-.02.276-.23v-1.13h5.8v1.06c0 .21.023.23.23.23h1.886c.23 0 .253-.02.253-.23 0-.14-.047-1.65-.047-8.64v-5.27c0-3.79.047-5.34.047-5.47 0-.23-.023-.26-.253-.26-.138 0-.828.05-2.806.05h-4.428c-1.977 0-2.667-.05-2.828-.05-.23 0-.253.03-.253.26 0 .16.046 1.68.046 6.23v4.53c0 7.04-.046 8.55-.046 8.69 0 .21.023.23.253.23h1.862zm.276-3.56v-3.34h5.8v3.34h-5.8zm0-14.12h5.8v3.26h-5.8v-3.26zm0 8.62v-3.2h5.8v3.2h-5.8zm-6.254 9.18c.23 0 .253-.03.253-.26 0-.41-.138-5.26-.161-11.36a14.4 14.4 0 001.793 3.43.563.563 0 00.322.32.544.544 0 00.253-.37 9.352 9.352 0 01.874-1.77 16.583 16.583 0 01-3.035-4.39c1.586 0 2.115.05 2.253.05.23 0 .253-.03.253-.26v-1.67c0-.23-.023-.26-.253-.26-.138 0-.69.05-2.391.05v-1.45a6.472 6.472 0 01.161-2.23 1.088 1.088 0 00.138-.48.329.329 0 00-.368-.23 20.557 20.557 0 00-2.3-.16 17.172 17.172 0 01.184 3.12v1.43h-.736c-1.678 0-2.23-.05-2.368-.05-.23 0-.253.03-.253.26v1.67c0 .23.023.26.253.26.138 0 .69-.05 2.368-.05h.529a19.693 19.693 0 01-3.748 6.99 7.731 7.731 0 01.828 1.96c.069.25.138.36.23.36a.647.647 0 00.368-.34 20.9 20.9 0 002.6-5.27c-.046 5.48-.161 10.03-.161 10.44 0 .23.023.26.253.26h1.863zm24.793-5.55c0-1.08.046-1.63.046-1.77 0-.23-.023-.25-.23-.25-.161 0-.644.05-2.115.05h-1.748c-1.472 0-1.954-.05-2.092-.05-.23 0-.253.02-.253.25 0 .16.046.72.046 2.16v1.48c0 2.78-.046 3.31-.046 3.47 0 .21.023.23.253.23h1.655c.23 0 .253-.02.253-.23v-1.06h2.139v.62c0 .23.023.25.253.25h1.655c.207 0 .23-.02.23-.25 0-.09-.023-.39-.046-1.38a5.594 5.594 0 011.035 1.4.729.729 0 00.483.58 1.871 1.871 0 00.529-.16 8.887 8.887 0 005.036-5.38 10.3 10.3 0 004.9 5.33 1.435 1.435 0 00.529.21c.183 0 .252-.18.436-.58a8.185 8.185 0 01.943-1.6 8.911 8.911 0 01-6.047-7.06 3.146 3.146 0 01.252-1.38.63.63 0 00.138-.42c0-.16-.161-.25-.436-.3a17.485 17.485 0 00-2.208-.23 9.927 9.927 0 01.023 2.19c-.253 3.7-1.633 6.23-5.611 7.38v-3.5zm-2.092-.07v2.47h-2.139v-2.47h2.139zm15.889-6.89c-2.9-.92-5.358-2.56-5.955-6.33a2.243 2.243 0 01.229-1.17.621.621 0 00.161-.41c0-.16-.183-.23-.459-.28-.621-.09-1.334-.18-2.139-.23a12.834 12.834 0 01.023 2.12c-.184 3.28-1.748 5.47-5.427 6.55a5.716 5.716 0 01.943 1.26.781.781 0 00.506.58 2.026 2.026 0 00.506-.16 8.094 8.094 0 004.875-4.72 8.491 8.491 0 004.9 4.69 1.615 1.615 0 00.506.14c.206 0 .252-.16.459-.59a6.518 6.518 0 01.864-1.45zm-18.373-4.51c-1.724 0-2.3-.05-2.414-.05-.23 0-.253.03-.253.26v1.63c0 .25.023.27.253.27.115 0 .69-.04 2.414-.04h2.553c1.747 0 2.3.04 2.437.04.23 0 .253-.02.253-.27v-1.63c0-.23-.023-.26-.253-.26-.138 0-.69.05-2.437.05h-2.553zm.529-3.15c-1.5 0-1.954-.05-2.092-.05-.207 0-.23.03-.23.26v1.54c0 .2.023.23.23.23.138 0 .6-.05 2.092-.05h1.863c1.471 0 1.931.05 2.069.05.23 0 .253-.03.253-.23V4318c0-.23-.023-.26-.253-.26-.138 0-.6.05-2.069.05h-1.863zm.138 6.41c-1.4 0-1.817-.04-1.954-.04-.23 0-.253.02-.253.25v1.5c0 .23.023.25.253.25.137 0 .551-.05 1.954-.05h1.472c1.356 0 1.77.05 1.908.05.253 0 .276-.02.276-.25v-1.5c0-.23-.023-.25-.276-.25-.138 0-.552.04-1.908.04h-1.48zm0 3.11c-1.4 0-1.817-.05-1.954-.05-.23 0-.253.03-.253.26v1.47c0 .23.023.25.253.25.137 0 .551-.05 1.954-.05h1.472c1.356 0 1.77.05 1.908.05.253 0 .276-.02.276-.25v-1.47c0-.23-.023-.26-.276-.26-.138 0-.552.05-1.908.05h-1.48zm5.634 5.4a.528.528 0 00.276.14.3.3 0 00.23-.16 12.385 12.385 0 002-3.22c.092-.23.069-.28-.23-.44l-1.149-.59c-.3-.17-.345-.14-.46.09a11.521 11.521 0 01-1.909 2.87c-.161.19-.184.23.092.44zm7.082-1.51a6.894 6.894 0 011.2.8 1.28 1.28 0 00.6.37.962.962 0 00.506-.37 16.882 16.882 0 001.541-1.89 1.742 1.742 0 01.39-.43.364.364 0 00.253-.35.555.555 0 00-.414-.39 11.121 11.121 0 00-1.77-.69 3.541 3.541 0 01-.437.88 10.867 10.867 0 01-1.877 2.07zm.092-9.46a4.434 4.434 0 011.173.74 1.019 1.019 0 00.529.32 1.1 1.1 0 00.552-.41 12.181 12.181 0 001.449-1.82 1.971 1.971 0 01.39-.46.42.42 0 00.23-.34c0-.14-.069-.19-.368-.35a12.8 12.8 0 00-1.724-.73 2.772 2.772 0 01-.414.87 10.7 10.7 0 01-1.825 2.18zm-6.714 1.29a.528.528 0 00.276.14.309.309 0 00.207-.16 11.486 11.486 0 001.793-3.2c.069-.23.046-.27-.23-.39l-1.2-.46c-.322-.11-.345-.16-.437.09a9.8 9.8 0 01-1.656 2.81c-.161.18-.161.23.115.41zm25.345-.64c-2.782 1.81-4.415 4.02-4.415 7.29 0 4.78 4.438 7.1 8.485 7.1.276 0 .368-.14.437-.48a8.154 8.154 0 00.253-1.98c0-.25-.138-.34-.506-.34-4-.26-6.116-1.87-6.116-4.83 0-2.76 1.954-5.45 5.863-6.78a10.008 10.008 0 012.806-.51c.3 0 .437-.07.437-.35a13.165 13.165 0 00-.253-2.02c-.023-.16-.138-.3-.483-.25-5.933.78-10.992 1.54-13.82 1.95a29.018 29.018 0 01-3.656.39 16.139 16.139 0 00.85 2.49.544.544 0 00.437.34 1.319 1.319 0 00.506-.18c.345-.12.575-.16 1.449-.37 2.46-.51 4.921-.99 7.726-1.52v.05zm3.335 3.29a11.429 11.429 0 012.322 2.66.239.239 0 00.391.07l.966-.71a.234.234 0 00.069-.37 10.518 10.518 0 00-2.185-2.46c-.138-.11-.23-.14-.345-.04zm2.115-1.52a10.8 10.8 0 012.3 2.64.234.234 0 00.39.07l.92-.71a.262.262 0 00.069-.41 9.448 9.448 0 00-2.184-2.37.233.233 0 00-.345-.05zm14.331-3.29a40.509 40.509 0 01-5.726.37c.138.73.3 1.58.368 1.84a.386.386 0 00.46.32 39.645 39.645 0 005.588-.55c.3.64.644 1.42.874 1.91a40 40 0 01-6.186.57 11.518 11.518 0 00.414 1.89.365.365 0 00.414.32 54.748 54.748 0 006.3-.69 26.422 26.422 0 001.909 2.71 10.68 10.68 0 00-3.955-.57c-3.587 0-5.7 1.54-5.7 4 0 2.83 2.8 4.32 8.094 4.32.575 0 1.127-.02 1.656-.07a.423.423 0 00.483-.34 15.04 15.04 0 00.46-2.09.235.235 0 00-.276-.3c-.828.04-1.679.13-2.53.13-3.518 0-5.472-.48-5.472-1.97 0-1.08 1.264-1.75 3.426-1.75a11.119 11.119 0 014.323.74 5.408 5.408 0 011.357.73.635.635 0 00.322.14.478.478 0 00.367-.23 6.747 6.747 0 00.943-1.43.369.369 0 00-.115-.55 16.965 16.965 0 01-3.012-3.98 28.429 28.429 0 003.886-1.12.292.292 0 00.184-.42 8.816 8.816 0 00-.414-1.52c-.069-.2-.184-.25-.414-.13a27.429 27.429 0 01-4.185 1.19c-.3-.64-.6-1.35-.8-1.93 1.564-.34 2.967-.69 4.507-1.17a.36.36 0 00.276-.42c-.092-.46-.253-1.1-.391-1.54-.069-.18-.184-.2-.391-.11a36.457 36.457 0 01-4.691 1.22c-.138-.39-.206-.6-.367-1.2a4 4 0 01-.092-.69c0-.14.046-.3.046-.44a.444.444 0 00-.506-.41 16.361 16.361 0 00-2.783.25 5.875 5.875 0 01.8 1.48c.219.57.361.96.541 1.49zm23.874 10.21c-1.081-.09-1.633-.09-2.208-.09-2.782 0-4.6 1.4-4.6 3.26 0 1.91 1.7 3.22 4.691 3.22 3.151 0 4.645-1.01 4.668-3.49a18.251 18.251 0 014.576 2.62.352.352 0 00.253.11.329.329 0 00.3-.18 6.783 6.783 0 001.012-1.7.412.412 0 00-.161-.55 20.348 20.348 0 00-6.094-2.79c-.069-1.05-.115-2.18-.161-3.24a42.938 42.938 0 004.507-.55c.253-.02.345-.09.345-.32 0-.69-.046-1.45-.069-1.89-.023-.2-.092-.25-.368-.18-1.655.25-2.759.48-4.507.6 0-.83-.023-1.68-.023-2.6a46.5 46.5 0 005.312-.6c.184-.02.253-.07.253-.37a12.4 12.4 0 00-.115-1.68c-.023-.27-.115-.34-.391-.27a39.545 39.545 0 01-5.036.69c.023-.69.023-1.01.046-1.47a2.923 2.923 0 01.345-1.11.47.47 0 00-.253-.69 13.871 13.871 0 00-2.9-.41 6.617 6.617 0 01.276 1.54c.023.78.046 1.38.046 2.23a52.567 52.567 0 01-6.025-.23c.046.94.092 1.49.161 2.07a.323.323 0 00.391.32 39.7 39.7 0 005.5.12c.023.87.023 1.77.046 2.64a33.063 33.063 0 01-5.174-.18 13.688 13.688 0 00.138 1.95c.023.3.115.39.368.39a39.42 39.42 0 004.737.09c.014.79.06 1.73.106 2.74zm.046 2.18a2.2 2.2 0 01-.253 1.29 2.816 2.816 0 01-2.093.69c-1.586 0-2.276-.43-2.276-1.03 0-.74.805-1.22 2.483-1.22a9.968 9.968 0 012.131.27zm23.828-12.18c-2.76.16-5.726.34-7.129.46a15.494 15.494 0 01-2.8.09 16.162 16.162 0 00.575 2.32.356.356 0 00.391.32c.206 0 .574-.2 1.08-.27 1.817-.26 5.059-.53 7.957-.69 0 .76.023 1.54.023 2.34a2.832 2.832 0 00-1.748-.46 3.35 3.35 0 00-3.472 3.45 3.185 3.185 0 003.2 3.52 2.646 2.646 0 002.162-.92c-.414 1.93-2.024 3.86-4.714 5.06a5.011 5.011 0 011.747.92 1.32 1.32 0 00.69.34 2.194 2.194 0 00.9-.43 8.591 8.591 0 004.093-7.43 7.175 7.175 0 00-.345-2.28c-.023-1.4-.023-2.87-.023-4.27 2.392-.03 4.622-.03 7.014.04.275.03.39-.04.39-.3.023-.57.023-1.17 0-1.74-.023-.3-.069-.35-.345-.35-2.207 0-4.576.02-7.059.12.023-.88.023-1.18.046-1.48a2.461 2.461 0 01.184-.66.983.983 0 00.207-.53.64.64 0 00-.644-.44 24.891 24.891 0 00-2.69-.32 7.291 7.291 0 01.276 1.68c.003.62.003 1.19.026 1.91zm-1.472 5.91a1.378 1.378 0 011.518 1.47 1.479 1.479 0 01-1.564 1.59 1.432 1.432 0 01-1.472-1.57 1.461 1.461 0 011.51-1.49zm26.314-9.06h-3.59l.64 13.68h2.33zm-3.45 15.91v3.1h3.26v-3.1h-3.26z" transform="translate(-187 -4288)" fill-rule="evenodd"/><path id="線_10" data-name="線 10" class="cls-3" d="M198.9 4362v-2.05H624v2.05H198.9z" transform="translate(-187 -4288)"/><path id="線_10_のコピー" data-name="線 10 のコピー" class="cls-3" d="M643.985 4362v-2.02h457v2.02h-457z" transform="translate(-187 -4288)"/><path id="線_10_のコピー_2" data-name="線 10 のコピー 2" class="cls-3" d="M199.229 4289.91V4288h900.641v1.91H199.229z" transform="translate(-187 -4288)"/><path id="線_24" data-name="線 24" class="cls-4" d="M199 4288h2v73h-2v-73z" transform="translate(-187 -4288)"/><path id="線_24_のコピー" data-name="線 24 のコピー" class="cls-4" d="M1099 4288h2v73h-2v-73z" transform="translate(-187 -4288)"/><path id="線_25" data-name="線 25" class="cls-4" d="M622.308 4361.72l1.384-1.44 24 23-1.384 1.44z" transform="translate(-187 -4288)"/></svg>