<?xml version="1.0" encoding="utf-8"?>
<!-- Generator: Adobe Illustrator 26.0.3, SVG Export Plug-In . SVG Version: 6.00 Build 0)  -->
<svg version="1.1" id="レイヤー_1" xmlns="http://www.w3.org/2000/svg" xmlns:xlink="http://www.w3.org/1999/xlink" x="0px"
	 y="0px" viewBox="0 0 3808 403" style="enable-background:new 0 0 3808 403;" xml:space="preserve">
<style type="text/css">
	.st0{fill:#FFFC8E;}
	.st1{font-family:'YuGothic-Bold';}
	.st2{font-size:102px;}
	.st3{letter-spacing:-1;}
	.st4{letter-spacing:-4;}
	.st5{letter-spacing:-7;}
	.st6{letter-spacing:-5;}
	.st7{letter-spacing:-6;}
	.st8{letter-spacing:-16;}
	.st9{letter-spacing:-18;}
	.st10{letter-spacing:-11;}
	.st11{letter-spacing:-10;}
	.st12{letter-spacing:-8;}
	.st13{letter-spacing:-13;}
	.st14{letter-spacing:-12;}
	.st15{letter-spacing:-3;}
	.st16{letter-spacing:-2;}
	.st17{letter-spacing:-17;}
	.st18{letter-spacing:-25;}
	.st19{letter-spacing:-24;}
	.st20{fill:none;stroke:#AAAAAA;stroke-width:8;stroke-miterlimit:10;}
</style>
<rect y="56.5" class="st0" width="3748.4" height="296.7"/>
<rect x="593.7" y="97.1" class="st0" width="2620.6" height="120.7"/>
<text transform="matrix(1 0 0 1 142.1801 217.76)" class="st1 st2 st3">日</text>
<text transform="matrix(1 0 0 1 242.45 217.76)" class="st1 st2 st4">本</text>
<text transform="matrix(1 0 0 1 338.9399 217.76)" class="st1 st2 st5">ワ</text>
<text transform="matrix(1 0 0 1 432.99 217.76)" class="st1 st2 st6">ー</text>
<text transform="matrix(1 0 0 1 529.0701 217.76)" class="st1 st2 st7">ケ</text>
<text transform="matrix(1 0 0 1 623.8301 217.76)" class="st1 st2 st7">ー</text>
<text transform="matrix(1 0 0 1 718.28 217.76)" class="st1 st2 st8">シ</text>
<text transform="matrix(1 0 0 1 803.25 217.76)" class="st1 st2 st9">ョ</text>
<text transform="matrix(1 0 0 1 886.07 217.76)" class="st1 st2 st4">ン</text>
<text transform="matrix(1 0 0 1 982.67 217.76)" class="st1 st2">協会公</text>
<text transform="matrix(1 0 0 1 1294.67 217.76)" class="st1 st2">認</text>
<text transform="matrix(1 0 0 1 1395.65 217.76)" class="st1 st2 st6">の</text>
<text transform="matrix(1 0 0 1 1491.4301 217.76)" class="st1 st2 st5">ワ</text>
<text transform="matrix(1 0 0 1 1585.4701 217.76)" class="st1 st2 st6">ー</text>
<text transform="matrix(1 0 0 1 1681.5601 217.76)" class="st1 st2 st7">ケ</text>
<text transform="matrix(1 0 0 1 1776.3201 217.76)" class="st1 st2 st7">ー</text>
<text transform="matrix(1 0 0 1 1870.77 217.76)" class="st1 st2 st8">シ</text>
<text transform="matrix(1 0 0 1 1955.7401 217.76)" class="st1 st2 st9">ョ</text>
<text transform="matrix(1 0 0 1 2038.5601 217.76)" class="st1 st2 st10">ン</text>
<text transform="matrix(1 0 0 1 2127.9099 217.76)" class="st1 st2 st11">コ</text>
<text transform="matrix(1 0 0 1 2218.3899 217.76)" class="st1 st2 st12">ン</text>
<text transform="matrix(1 0 0 1 2311.6199 217.76)" class="st1 st2 st13">シ</text>
<text transform="matrix(1 0 0 1 2399.03 217.76)" class="st1 st2 st11">ェ</text>
<text transform="matrix(1 0 0 1 2489.3 217.76)" class="st1 st2 st3">ル</text>
<text transform="matrix(1 0 0 1 2589.77 217.76)" class="st1 st2 st14">ジ</text>
<text transform="matrix(1 0 0 1 2678.0999 217.76)" class="st1 st2 st10">ュ</text>
<text transform="matrix(1 0 0 1 2767.5598 217.76)" class="st1 st2 st15">に</text>
<text transform="matrix(1 0 0 1 2864.97 217.76)" class="st1 st2">無料相</text>
<text transform="matrix(1 0 0 1 3170.97 217.76)" class="st1 st2 st16">談</text>
<text transform="matrix(1 0 0 1 3269.5 217.76)" class="st1 st2 st5">で</text>
<text transform="matrix(1 0 0 1 3363.6499 217.76)" class="st1 st2 st17">き</text>
<text transform="matrix(1 0 0 1 3446.98 217.76)" class="st1 st2 st12">ま</text>
<text transform="matrix(1 0 0 1 3539.5 217.76)" class="st1 st2 st18">す</text>
<text transform="matrix(1 0 0 1 3633.98 217.76)" class="st1 st2 st19">！</text>
<line class="st20" x1="1817.9" y1="304.9" x2="1914.8" y2="403"/>
<polyline class="st20" points="1904,304.9 3804.6,305.9 3804.6,8.7 3807.9,7.8 55,7.8 55,304.9 1817.9,304.9 "/>
</svg>
