<?xml version="1.0" encoding="utf-8"?>
<!-- Generator: Adobe Illustrator 26.0.3, SVG Export Plug-In . SVG Version: 6.00 Build 0)  -->
<svg version="1.1" id="レイヤー_1" xmlns="http://www.w3.org/2000/svg" xmlns:xlink="http://www.w3.org/1999/xlink" x="0px"
	 y="0px" viewBox="0 0 296.1 80.5" style="enable-background:new 0 0 296.1 80.5;" xml:space="preserve">
<style type="text/css">
	.st0{fill:#FFFC8E;}
	.st1{fill:#9B9B9B;}
	.st2{font-family:'YuGothic-Bold';}
	.st3{font-size:13px;}
	.st4{letter-spacing:-1;}
	.st5{letter-spacing:-2;}
	.st6{letter-spacing:-3;}
</style>
<g id="グループ_7">
	<g id="グループ_5">
		<path id="パス_9" class="st0" d="M205.4,6.2H0v64.1h290.1v-64L205.4,6.2z"/>
		<path id="パス_10" class="st1" d="M213.3,0H7.2v67h139.9l13.4,13.4l1.2-1.2l-13.7-13.7l-0.3,0.3v-0.6H8.9V1.7h285.5v63.6H162.2
			V67h133.8V0H213.3z"/>
	</g>
	<path id="パス_11" class="st1" d="M152.5,26.6"/>
</g>
<text transform="matrix(1 0 0 1 61.94 33.42)" class="st2 st3">日</text>
<text transform="matrix(1 0 0 1 74.72 33.42)" class="st2 st3">本</text>
<text transform="matrix(1 0 0 1 87.02 33.42)" class="st2 st3 st4">ワ</text>
<text transform="matrix(1 0 0 1 99 33.42)" class="st2 st3">ー</text>
<text transform="matrix(1 0 0 1 111.25 33.42)" class="st2 st3">ケ</text>
<text transform="matrix(1 0 0 1 123.33 33.42)" class="st2 st3">ー</text>
<text transform="matrix(1 0 0 1 135.36 33.42)" class="st2 st3 st5">シ</text>
<text transform="matrix(1 0 0 1 146.19 33.42)" class="st2 st3 st5">ョ</text>
<text transform="matrix(1 0 0 1 156.75 33.42)" class="st2 st3">ン</text>
<text transform="matrix(1 0 0 1 169.06 33.42)" class="st2 st3">協会公</text>
<text transform="matrix(1 0 0 1 209.0601 33.42)" class="st2 st3">認</text>
<text transform="matrix(1 0 0 1 221.9301 33.42)" class="st2 st3">の</text>
<text transform="matrix(1 0 0 1 9.95 49.02)" class="st2 st3 st4">ワ</text>
<text transform="matrix(1 0 0 1 21.94 49.02)" class="st2 st3">ー</text>
<text transform="matrix(1 0 0 1 34.18 49.02)" class="st2 st3">ケ</text>
<text transform="matrix(1 0 0 1 46.26 49.02)" class="st2 st3">ー</text>
<text transform="matrix(1 0 0 1 58.3 49.02)" class="st2 st3 st5">シ</text>
<text transform="matrix(1 0 0 1 69.13 49.02)" class="st2 st3 st5">ョ</text>
<text transform="matrix(1 0 0 1 79.68 49.02)" class="st2 st3 st4">ン</text>
<text transform="matrix(1 0 0 1 91.07 49.02)" class="st2 st3 st4">コ</text>
<text transform="matrix(1 0 0 1 102.6 49.02)" class="st2 st3 st4">ン</text>
<text transform="matrix(1 0 0 1 114.48 49.02)" class="st2 st3 st4">シ</text>
<text transform="matrix(1 0 0 1 125.63 49.02)" class="st2 st3 st4">ェ</text>
<text transform="matrix(1 0 0 1 137.13 49.02)" class="st2 st3">ル</text>
<text transform="matrix(1 0 0 1 149.94 49.02)" class="st2 st3 st4">ジ</text>
<text transform="matrix(1 0 0 1 161.19 49.02)" class="st2 st3 st4">ュ</text>
<text transform="matrix(1 0 0 1 172.59 49.02)" class="st2 st3">に</text>
<text transform="matrix(1 0 0 1 185.01 49.02)" class="st2 st3">無料相</text>
<text transform="matrix(1 0 0 1 224.01 49.02)" class="st2 st3">談</text>
<text transform="matrix(1 0 0 1 236.5701 49.02)" class="st2 st3 st4">で</text>
<text transform="matrix(1 0 0 1 248.5701 49.02)" class="st2 st3 st5">き</text>
<text transform="matrix(1 0 0 1 259.1899 49.02)" class="st2 st3 st4">ま</text>
<text transform="matrix(1 0 0 1 270.98 49.02)" class="st2 st3 st6">す</text>
<text transform="matrix(1 0 0 1 282.6 49.02)" class="st2 st3 st6">！</text>
</svg>
