<svg xmlns="http://www.w3.org/2000/svg" width="296.062" height="114.3" viewBox="0 0 296.062 114.3"><g id="グループ_6" data-name="グループ 6" transform="translate(-20.938 -24.219)"><g id="グループ_5" data-name="グループ 5" transform="translate(20.938 24.219)"><path id="パス_9" data-name="パス 9" d="M531.439 1108.77v-32.42H397.745v32.42H326v64.055h290.1v-64.055z" transform="translate(-326 -1068.787)" fill="#fffc8e"/><path id="パス_10" data-name="パス 10" d="M540.556 1100.316v-33.827H405.7v33.827h-71.206v67.03h139.894l13.443 13.443 1.2-1.2-13.692-13.689-.312.312v-.561H336.191v-63.637H407.4v-33.827h131.46v33.827h82.794v63.637H489.517v1.7h133.834v-67.03z" transform="translate(-327.288 -1066.489)" fill="#9b9b9b"/><path id="長方形_1" data-name="長方形 1" transform="rotate(-3.012 273.436 -3546.805)" fill="#313131" d="M0 0h1.504v9.053H0z"/><path id="長方形_2" data-name="長方形 2" transform="translate(193.2 23.666)" fill="#313131" d="M0 0h9.053v1.504H0z"/><path id="長方形_3" data-name="長方形 3" transform="rotate(-45 119.7 -220.746)" fill="#313131" d="M0 0h9.053v1.503H0z"/></g><path id="パス_12" data-name="パス 12" d="M10.23-8.28a4.221 4.221 0 00-4.43-3.54c-3 0-5.055 2.19-5.055 6.045C.75-1.935 2.79.24 5.8.24a4.159 4.159 0 004.49-3.465l-1.9-.585c-.33 1.7-1.17 2.49-2.565 2.49-1.7 0-2.925-1.515-2.925-4.47 0-2.97 1.2-4.47 2.925-4.47 1.32 0 2.16.84 2.445 2.46zm6.285-3.525c-2.97 0-4.995 2.19-4.995 6.045S13.515.255 16.5.255s4.995-2.2 4.995-6.045c0-3.855-1.995-6.015-4.98-6.015zm0 1.56c1.71 0 2.835 1.485 2.835 4.47 0 2.97-1.125 4.47-2.835 4.47s-2.85-1.5-2.85-4.47c0-2.985 1.14-4.47 2.85-4.47zm11.145 5h-4.38v1.47h4.38zm13.92-6.36h-3.3L36.795-5.64c-.345 1.335-.585 2.535-.9 3.81h-.21a72.106 72.106 0 00-.84-3.84l-1.47-5.94H30.09V.03h1.785v-5.85c0-1.44-.015-2.79-.045-4.14h.21c.345 1.425.63 2.685.99 4.035L34.56.03h2.37L38.5-6c.39-1.425.66-2.625.96-3.96h.21c-.015 1.38-.03 2.655-.03 4.11V.03h1.94zm4.83 0h-2.04V.03h2.04zm10.8 0h-8.94v1.635h3.435v10h2.04V-9.975h3.465zm8.88 2.64a5.426 5.426 0 00-2.88 4.755c0 3.11 2.89 4.63 5.535 4.63.18 0 .24-.09.285-.315a5.336 5.336 0 00.165-1.29c0-.165-.09-.225-.33-.225-2.61-.165-3.99-1.215-3.99-3.15 0-1.8 1.275-3.555 3.825-4.425a6.693 6.693 0 011.83-.33c.195 0 .285-.045.285-.225a8.57 8.57 0 00-.165-1.32c-.015-.105-.09-.2-.315-.165-3.87.51-7.17 1.005-9.015 1.275a20.693 20.693 0 01-2.385.255 10.453 10.453 0 00.555 1.62.351.351 0 00.285.225.876.876 0 00.33-.12c.225-.075.375-.1.945-.24 1.6-.33 3.21-.645 5.04-.99zm2.175 2.145a7.443 7.443 0 011.515 1.74.157.157 0 00.255.045l.63-.465a.151.151 0 00.045-.24 6.9 6.9 0 00-1.425-1.61c-.09-.075-.15-.09-.225-.03zm1.38-.99a7.1 7.1 0 011.5 1.725.154.154 0 00.255.045l.6-.47a.173.173 0 00.045-.27 6.264 6.264 0 00-1.425-1.545c-.09-.075-.135-.09-.225-.03zm12.66 4.08a6.26 6.26 0 00-1.2-.12c-1.515 0-2.625.885-2.625 2.115 0 1.29.96 2.1 2.685 2.1 1.77 0 2.625-.69 2.745-1.95a8.908 8.908 0 011.62 1.2.207.207 0 00.135.075.181.181 0 00.135-.09 8.1 8.1 0 00.69-1.155c.075-.165.06-.21-.075-.3a9.817 9.817 0 00-2.49-1.44 62.985 62.985 0 01-.105-4.02 16.9 16.9 0 002.31-.315c.1-.015.165-.09.165-.225a6 6 0 00-.09-1.065c-.03-.165-.06-.225-.24-.18-.645.1-1.425.21-2.13.27 0-.69 0-1.08.03-1.59a1.692 1.692 0 01.12-.525.643.643 0 00.09-.255c0-.135-.105-.21-.27-.255a8.35 8.35 0 00-1.815-.285 6.184 6.184 0 01.195 1.47c0 .555.015 1.035.015 1.575a21.7 21.7 0 01-3.42-.045 9.19 9.19 0 00.1 1.365c.015.15.075.2.27.2a30.332 30.332 0 003.09.015c.02 1.175.035 2.27.065 3.425zm.03 1.425a2.113 2.113 0 01.015.3c0 .54-.48.975-1.23.975-.885 0-1.215-.285-1.215-.75s.42-.72 1.125-.72a4.178 4.178 0 011.305.19zm-6.96-9.405a7.548 7.548 0 01-.1 1.77 32.582 32.582 0 00-.615 5.685 13.973 13.973 0 00.64 4.57c.075.21.135.225.3.18A6.282 6.282 0 0076.725.24c.135-.045.195-.09.18-.2a2.832 2.832 0 01.015-.8 8.891 8.891 0 01.765-2.28.435.435 0 00.09-.24.324.324 0 00-.09-.21 3.989 3.989 0 01-.525-.945c-.315.75-.63 1.395-.93 2.085-.045-.63-.045-1.32-.045-1.92a29.786 29.786 0 01.75-5.46 3.044 3.044 0 01.27-.825.766.766 0 00.105-.33c0-.12-.06-.21-.225-.3a11.713 11.713 0 00-1.71-.53z" transform="translate(120.838 57.95)" fill="#313131"/><path id="パス_11" data-name="パス 11" d="M-86.232-4.128c1.184.016 1.632.032 1.712.032.16 0 .176-.016.176-.176V-5.44c0-.16-.016-.176-.176-.176-.08 0-.528.032-1.712.032a1.248 1.248 0 01.1-.64.506.506 0 00.1-.272c0-.08-.1-.16-.256-.192a13.787 13.787 0 00-1.632-.176 6.043 6.043 0 01.112 1.28h-3.152c-1.52 0-2.032-.032-2.128-.032h-.08a12.495 12.495 0 01-.048-1.056c-.512.272-1.008.5-1.472.72V-8.56c.816.016 1.152.032 1.264.032-.032.032-.032.064-.032.144v1.136c0 .16.016.176.176.176.1 0 .624-.032 2.16-.032h4.512c1.52 0 2.048.032 2.128.032.16 0 .176-.016.176-.176v-1.136c0-.144-.016-.16-.176-.16-.08 0-.608.032-2.128.032h-1.76v-1.6h1.12c1.44 0 1.92.032 2.016.032.16 0 .176-.016.176-.176v-1.136c0-.16-.016-.176-.176-.176-.1 0-.576.032-2.016.032h-1.12a3.625 3.625 0 01.112-1.216.817.817 0 00.1-.32c0-.1-.1-.144-.256-.16a17.945 17.945 0 00-1.68-.128 9.162 9.162 0 01.144 1.824h-.656c-1.424 0-1.888-.032-1.984-.032-.176 0-.192.016-.192.176v1.136c0 .16.016.176.192.176.1 0 .56-.032 1.984-.032h.656v1.6h-1.168c-1.456 0-2-.032-2.128-.032.032-.016.048-.064.048-.16v-1.232c0-.144-.016-.16-.192-.16-.08 0-.416.032-1.3.032v-.928a6.571 6.571 0 01.1-1.776.89.89 0 00.1-.336c0-.08-.1-.144-.256-.16a16.5 16.5 0 00-1.648-.112 17.012 17.012 0 01.128 2.416v.9h-.768l.064-.784a1.858 1.858 0 01.08-.544.531.531 0 00.08-.256c0-.1-.064-.144-.256-.192-.4-.08-.88-.144-1.3-.192a7.4 7.4 0 01.016 1.024 17.433 17.433 0 01-.672 4.192 5.788 5.788 0 01.88.32 1.029 1.029 0 00.368.16c.1 0 .128-.112.192-.384a17.013 17.013 0 00.368-1.84h.944v3.28q-.6.24-1.2.432a8.124 8.124 0 01-1.488.432 14.8 14.8 0 00.528 1.552c.064.144.128.176.24.176a.384.384 0 00.272-.144 1.593 1.593 0 01.528-.32l1.12-.48v1.948c0 1.808-.032 2.7-.032 2.8 0 .16.016.176.176.176h1.28c.176 0 .192-.016.192-.176 0-.08-.032-.992-.032-2.816v-2.672c.384-.192.768-.368 1.12-.56a2.467 2.467 0 00.3-.16v.816c0 .16.016.176.176.176.1 0 .608-.032 2.128-.032h3.152V-.96c0 .352-.1.48-.448.5a12.279 12.279 0 01-1.72-.04 3.432 3.432 0 01.5 1.2c.112.512.128.5.608.5a4.172 4.172 0 002.124-.352 1.478 1.478 0 00.544-1.36c0-.56-.032-1.248-.032-1.984zM-92.3-3.072c-.176.112-.192.144-.08.288a9.946 9.946 0 011.472 2c.032.08.064.128.112.128s.1-.032.192-.1l.96-.688c.176-.128.192-.16.1-.3A12.716 12.716 0 00-91.1-3.6c-.112-.112-.16-.112-.336-.016zm11.456-9.12a12.909 12.909 0 01-.288 2.384 30.544 30.544 0 00-.544 5.248 15 15 0 00.74 4.768c.032.112.1.192.208.176a7.942 7.942 0 001.312-.256c.144-.032.208-.1.208-.208 0-.128-.032-.256-.032-.448a1.817 1.817 0 01.048-.5 15.642 15.642 0 01.912-2.412.443.443 0 00.08-.26.637.637 0 00-.112-.24 4.153 4.153 0 01-.56-1.008c-.464 1.12-.752 1.648-1.088 2.384a15.43 15.43 0 01-.1-1.872 25.926 25.926 0 01.676-5.164A3.78 3.78 0 01-79-10.736c.208-.32.24-.368.24-.48 0-.144-.1-.24-.368-.384a7.081 7.081 0 00-1.712-.592zm3.68 8.256a3.525 3.525 0 00.56 2.08c.688.944 1.792 1.328 4.16 1.328A21.482 21.482 0 00-69.832-.7c.272-.032.272-.048.272-.24a11.854 11.854 0 00-.1-1.376c-.032-.208-.064-.224-.224-.208a22.935 22.935 0 01-3.056.208c-1.744 0-2.512-.4-2.608-1.5 0-.176-.032-.256-.16-.24zm.512-4.544a19.561 19.561 0 013.632-.368c.816 0 1.648.032 2.608.1.144.016.192-.048.208-.192.032-.448.032-.88.032-1.36 0-.16-.032-.192-.368-.208-.672-.064-1.408-.1-2.368-.1a25.546 25.546 0 00-3.472.288c-.16.032-.208.08-.224.272-.028.272-.028.672-.044 1.568zm11.456-.672a1.692 1.692 0 011.7-1.68 1.549 1.549 0 011.68 1.712c0 1.232-.64 1.92-2.24 1.92h-.844v1.632h.928c1.712 0 2.368.816 2.368 2.208A1.822 1.822 0 01-63.48-1.3c-1.056 0-1.632-.5-1.9-1.728l-1.968.576c.544 1.888 1.872 2.7 3.888 2.7a3.58 3.58 0 003.9-3.632 2.971 2.971 0 00-2.576-3.072v-.104A2.654 2.654 0 00-59.8-9.312c0-1.776-1.44-3.072-3.664-3.072a3.519 3.519 0 00-3.7 2.64zm7.264.784A9.3 9.3 0 00-56.9-6.7c.176.24.3.336.464.336.08 0 .208-.048.432-.24a10.184 10.184 0 011.1-.576 15.615 15.615 0 015.776-1.648c1.776 0 2.752.928 2.752 2.432a3.491 3.491 0 01-2.208 3.184 15.03 15.03 0 01-4.336 1.18A2.969 2.969 0 01-51.8-.768c.112.3.24.32.56.256a13.613 13.613 0 004.064-1.328 4.642 4.642 0 002.816-4.448c0-2.512-1.84-4.24-4.7-4.24A20.75 20.75 0 00-54.824-9.2a14.2 14.2 0 01-3.104.832zm23.92-1.44A3.634 3.634 0 01-30.424-6.1c0 3.024-2.128 4.144-4.832 4.784A3.393 3.393 0 01-34.136-.3c.208.32.352.384.688.288 3.248-.98 4.928-2.852 4.928-5.828 0-3.184-2.256-5.552-6.1-5.552a7 7 0 00-5.2 2.048 5.9 5.9 0 00-1.808 4.16c0 2.608 1.424 4.112 2.832 4.112a3.039 3.039 0 002.72-1.84 20.035 20.035 0 002-6.9zm-1.92.1a18.281 18.281 0 01-1.7 5.728c-.432.768-.784.976-1.2.976-.5 0-1.088-.816-1.088-2.288a4.607 4.607 0 011.248-2.96 4.819 4.819 0 012.744-1.46zM-14.808-3.9c1.248 0 1.7.032 1.808.032.16 0 .176-.016.176-.176 0-.1-.032-.688-.032-1.952v-4.592c0-1.264.032-1.856.032-1.952 0-.176-.016-.192-.176-.192-.112 0-.592.032-2 .032h-3.168c-1.408 0-1.9-.032-1.984-.032-.16 0-.176.016-.176.192 0 .1.032.688.032 1.952V-6c0 1.264-.032 1.84-.032 1.952 0 .16.016.176.176.176.064 0 .464-.016 1.44-.032-.16 2.352-1.52 3.28-3.664 3.824a2.353 2.353 0 01.816.9c.16.24.224.336.352.336a1.331 1.331 0 00.384-.112c1.936-.816 3.488-1.872 3.7-4.944h.736v3.628a1.119 1.119 0 00.48 1.088 4.04 4.04 0 001.728.224 2.3 2.3 0 001.708-.48 2.964 2.964 0 00.656-2.016c.032-.416 0-.464-.368-.576a2.714 2.714 0 01-1.024-.5c-.032 1.216-.112 1.632-.32 1.84-.176.176-.3.176-.576.176a2.358 2.358 0 01-.528-.032c-.16-.064-.176-.176-.176-.512zm.336-1.36h-4.24v-1.156h4.24zm0-6v1.136h-4.24v-1.136zm-4.24 3.552v-1.12h4.24v1.12zm-4.064-3.072v-.72a2.776 2.776 0 01.144-1.248.75.75 0 00.1-.336c0-.08-.1-.144-.256-.16a15.1 15.1 0 00-1.728-.144 7.952 7.952 0 01.16 1.952v.656h-.176c-1.168 0-1.552-.032-1.648-.032-.16 0-.176.016-.176.176v1.184c0 .16.016.176.176.176.1 0 .48-.032 1.648-.032h1.68a11.14 11.14 0 01-3.984 4.8 4.13 4.13 0 01.56 1.3c.048.16.1.256.176.256s.192-.08.352-.224c.48-.432.944-.88 1.392-1.36v3.28c0 1.184-.032 2.272-.032 2.368 0 .16.016.176.192.176h1.264c.176 0 .192-.016.192-.176 0-.08-.032-1.184-.032-2.368v-3.9a9.321 9.321 0 001.04 1.312c.112.128.192.192.256.192.08 0 .144-.08.224-.208a4.218 4.218 0 01.832-1.168A6.791 6.791 0 01-22.456-6.9 12.213 12.213 0 00-21.3-9.008a1.535 1.535 0 01.38-.592.386.386 0 00.192-.352c0-.112-.08-.208-.432-.544-.384-.352-.544-.448-.672-.448a.365.365 0 00-.192.1.506.506 0 01-.3.064zm18.192 2.22h-1.472c-1.568 0-2.128-.032-2.224-.032-.16 0-.176.016-.176.16 0 .112.032.512.032 1.44v2.224c0 .928-.032 1.312-.032 1.424 0 .16.016.176.176.176.1 0 .656-.032 2.224-.032h5.312c1.552 0 2.112.032 2.224.032.16 0 .176-.016.176-.176 0-.1-.032-.5-.032-1.424v-2.224c0-.928.032-1.344.032-1.44 0-.144-.016-.16-.176-.16-.112 0-.672.032-2.224.032h-2.128V-10H.744c1.472 0 1.984.032 2.08.032.16 0 .176-.016.176-.16v-1.28c0-.16-.016-.176-.176-.176-.1 0-.608.032-2.08.032h-3.616v-.128a2.736 2.736 0 01.112-1.12.814.814 0 00.064-.32c0-.1-.08-.144-.24-.16a15.714 15.714 0 00-1.776-.128 13.6 13.6 0 01.128 2.064zm-2.144 1.52h6.656v2.32h-6.656zM-9.4 1.072a.378.378 0 00.208.08c.064 0 .1-.032.144-.112a10.119 10.119 0 001.68-3.008c.064-.16.016-.176-.176-.256l-.928-.352c-.224-.08-.272-.1-.336.08A9.221 9.221 0 01-10.52.208c-.112.128-.112.176.112.3zM.568-2.336c-.192.08-.24.128-.144.256A14.89 14.89 0 011.976.928c.048.144.08.128.288.064L3.336.544c.208-.1.208-.144.144-.288A15.35 15.35 0 001.8-2.64c-.112-.144-.144-.128-.352-.048zm-3.36.112c-.224.048-.256.08-.192.224A14.816 14.816 0 01-2.168.9c.032.16.064.16.3.128l1.14-.244C-.52.736-.5.7-.536.528A16.982 16.982 0 00-1.48-2.32c-.064-.16-.08-.192-.288-.144zM-5.88-2.24c-.208.016-.256.064-.224.224A18.694 18.694 0 01-5.816.88c0 .16.048.176.272.16L-4.36.976c.208-.016.24-.08.224-.24a17.8 17.8 0 00-.432-2.88c-.032-.176-.064-.192-.272-.176zm13.248-9.952a12.909 12.909 0 01-.288 2.384 30.544 30.544 0 00-.544 5.248A15 15 0 007.272.208c.032.112.1.192.208.176A7.942 7.942 0 008.792.128C8.936.1 9 .032 9-.08c0-.128-.032-.256-.032-.448a1.817 1.817 0 01.048-.5 15.642 15.642 0 01.912-2.412.443.443 0 00.08-.256.637.637 0 00-.112-.24 4.153 4.153 0 01-.56-1.008C8.872-3.824 8.584-3.3 8.248-2.56a15.429 15.429 0 01-.1-1.872A25.926 25.926 0 018.824-9.6a3.78 3.78 0 01.384-1.136c.208-.32.24-.368.24-.48 0-.144-.1-.24-.368-.384a7.081 7.081 0 00-1.712-.592zm3.68 8.256a3.525 3.525 0 00.56 2.08c.692.944 1.792 1.328 4.16 1.328A21.482 21.482 0 0018.376-.7c.272-.032.272-.048.272-.24a11.855 11.855 0 00-.1-1.376c-.032-.208-.064-.224-.224-.208a22.935 22.935 0 01-3.056.208c-1.744 0-2.512-.4-2.608-1.5 0-.176-.032-.256-.16-.24zm.512-4.544a19.561 19.561 0 013.632-.368c.816 0 1.648.032 2.608.1.144.016.192-.048.208-.192.032-.448.032-.88.032-1.36 0-.16-.032-.192-.368-.208-.672-.064-1.408-.1-2.368-.1a25.546 25.546 0 00-3.472.288c-.16.032-.208.08-.224.272-.032.272-.032.672-.048 1.568zm12.384 2.928a4.222 4.222 0 00-.844 2.288c0 2.08 1.84 3.232 5.424 3.232a24.127 24.127 0 004.768-.384c.192-.032.288-.1.272-.24a13.378 13.378 0 00-.264-1.568c-.032-.144-.112-.192-.336-.144a20.355 20.355 0 01-4.336.464c-2.752 0-3.792-.5-3.792-1.5a2.629 2.629 0 01.416-1.216c.08-.128.064-.208-.08-.288a32.753 32.753 0 00-1.228-.644zM24.3-11.6c-.032.576-.064 1.04-.064 1.424 0 .192.064.256.208.288a19.97 19.97 0 002.8.272 11 11 0 001.312-.048 71.98 71.98 0 00-2.1 1.328 3.823 3.823 0 011.12.512.672.672 0 00.336.1.682.682 0 00.4-.144 9.322 9.322 0 013.92-1.584c.192-.016.272-.112.272-.336a10.535 10.535 0 00-.08-1.36c-.016-.128-.08-.192-.24-.176-1.024.064-2.224.144-3.392.144a20.185 20.185 0 01-4.492-.42zm23.1.5a7.939 7.939 0 011.616 1.856.167.167 0 00.272.048l.672-.5a.161.161 0 00.048-.256 7.364 7.364 0 00-1.52-1.712c-.1-.08-.16-.1-.24-.032zm1.472-1.056a7.569 7.569 0 011.6 1.84.164.164 0 00.272.048l.64-.5a.185.185 0 00.048-.288 6.682 6.682 0 00-1.52-1.648c-.1-.08-.144-.1-.24-.032zM43.08-10c.112-.4.224-.944.384-1.52a3.046 3.046 0 01.336-.64.384.384 0 00.08-.256.266.266 0 00-.176-.256 9.325 9.325 0 00-2.016-.448 11.008 11.008 0 01-.1 1.472c-.112.656-.24 1.36-.4 2a21.623 21.623 0 01-2.592.16 7.384 7.384 0 01-1.184-.048c.08.576.16 1.12.224 1.456.032.208.1.256.336.256.752 0 1.872-.08 2.8-.176a60.06 60.06 0 01-2.764 7.584.258.258 0 00.128.32c.336.192 1.12.528 1.28.592.176.048.272.064.352-.16 1.024-2.656 1.84-5.1 2.928-8.656a25.551 25.551 0 002.784-.608c.208-.048.256-.1.24-.3a14.74 14.74 0 00-.112-1.152c-.016-.128-.08-.208-.256-.16-.784.22-1.652.428-2.272.54zm.288 7.344a3.121 3.121 0 00.72 2.192c.72.752 1.808 1.04 3.856 1.04A17.679 17.679 0 0050.168.4c.256-.016.272-.064.256-.256a10 10 0 00-.124-1.392c-.016-.128-.064-.16-.192-.144a23.92 23.92 0 01-2.688.224c-1.536 0-2.32-.336-2.448-1.5-.016-.16-.08-.224-.24-.224a8.149 8.149 0 00-1.364.236zm1.248-3.024a17.706 17.706 0 013.216-.368 10.7 10.7 0 011.984.192c.224.048.3-.016.3-.288a11.292 11.292 0 00-.016-1.28c0-.192-.048-.208-.272-.24a11.652 11.652 0 00-1.872-.16 16.71 16.71 0 00-3.12.368c-.24.048-.288.1-.288.32.004.32.036.896.068 1.456zM58.12-7.7c.384-.56.624-.864.848-1.152.24-.272.272-.336.272-.448s-.064-.24-.256-.5c-.144-.208-.32-.368-.432-.368a.3.3 0 00-.112.032c-.048.016-.08.032-.128.048.032-.688.064-1.056.08-1.44a2.719 2.719 0 01.16-.688c.112-.288.048-.464-.288-.56a12.165 12.165 0 00-1.856-.272 5.8 5.8 0 01.16 1.392c0 .688 0 1.392-.032 2.08-1.232.336-1.856.48-2.272.576a7.782 7.782 0 01-1.088.16 13.607 13.607 0 00.64 1.408c.1.192.208.288.32.288.1 0 .256-.16.528-.272.608-.224 1.36-.448 1.824-.592-.016.3-.016.736-.016 1.136-1.2 1.648-2.112 2.784-3.52 4.5a.277.277 0 00-.1.192.221.221 0 00.1.176 11.106 11.106 0 00.976.96.278.278 0 00.176.1c.08 0 .144-.064.224-.16.592-.848 1.392-2.016 2.16-3.168a509.435 509.435 0 00-.08 4.944c-.016.16.032.224.176.224.528 0 1.248-.048 1.424-.064.128 0 .208-.064.208-.192-.032-2.16-.08-4.1-.1-6.144 1.568-1.344 2.816-2.048 4.288-2.048a2.238 2.238 0 012.384 2.48A3.089 3.089 0 0163.7-2.656a7.371 7.371 0 01-3.216 1.584 4.712 4.712 0 011.268 1.056.525.525 0 00.416.224.61.61 0 00.272-.064c2.752-.992 4.26-2.688 4.26-5.152a3.8 3.8 0 00-3.984-4.064A7.121 7.121 0 0058.12-7.2zm14.08-5.1a14.806 14.806 0 01-.128 1.824 33.819 33.819 0 00-.384 3.984 10.236 10.236 0 00.48 3.248c.032.112.112.224.224.208.4-.048 1.088-.144 1.28-.192a.224.224 0 00.208-.256 2 2 0 01.08-.48 13.1 13.1 0 01.94-2.048.754.754 0 00.16-.4.368.368 0 00-.1-.256 3.317 3.317 0 01-.5-1.04 82.442 82.442 0 01-1.12 2.048 16.164 16.164 0 01.06-1.76c.1-.832.224-1.968.448-3.056a1.846 1.846 0 01.288-.752.366.366 0 00.112-.256c0-.144-.1-.24-.3-.32A8.385 8.385 0 0072.2-12.8zm5.12.032a7.666 7.666 0 01.336 1.744c.112 1.024.192 2.688.192 3.824 0 2.528-.416 3.84-1.344 5.1a7.919 7.919 0 01-2.72 2.148 3.713 3.713 0 011.36.736.464.464 0 00.336.176.554.554 0 00.32-.112 8.817 8.817 0 002.64-2.576 10.51 10.51 0 001.216-5.552c0-1.152-.112-2.608-.224-4.128a5.665 5.665 0 01.032-.736c.032-.272 0-.352-.32-.432a9.239 9.239 0 00-1.824-.192zM93.352-4.88c1.36-.56 2.4-.912 3.44-1.28a5.117 5.117 0 01.976-.24c.16-.032.24-.1.24-.224a.633.633 0 00-.128-.352 9.856 9.856 0 00-1.12-1.408 4.812 4.812 0 01-1.216.864c-.816.416-1.728.832-2.352 1.12a1.767 1.767 0 00-1.952-1.728 3.184 3.184 0 00-1.6.5l-.016-.032a16.51 16.51 0 001.2-1.776 99.97 99.97 0 003.744-.48c.224-.032.288-.1.272-.256a5.4 5.4 0 00-.16-1.152c-.032-.144-.08-.192-.256-.16a25.739 25.739 0 01-2.912.5c.192-.432.272-.64.368-.864a1.246 1.246 0 01.272-.384.309.309 0 00.112-.24.287.287 0 00-.192-.272 10.1 10.1 0 00-1.824-.448 3.9 3.9 0 01-.112.976 12.329 12.329 0 01-.48 1.376 35.292 35.292 0 01-3.68.016c.048.48.112 1.072.16 1.328.032.176.08.256.224.256.944 0 1.808-.016 2.56-.048a16.35 16.35 0 01-3.344 3.968c-.08.064-.112.112-.112.176a.26.26 0 00.064.144 7.611 7.611 0 00.912 1.056.319.319 0 00.176.112c.064 0 .112-.048.192-.144a21.562 21.562 0 011.6-1.744 3.863 3.863 0 012.208-1.16c.72-.032.912.288.96 1.1C89.16-4.528 88.2-3.408 88.2-1.872c0 1.856 1.392 2.64 4.016 2.64A28.458 28.458 0 0096.184.56c.128 0 .192-.112.176-.3a7.161 7.161 0 00-.144-1.312c-.016-.144-.08-.192-.224-.176a27.344 27.344 0 01-3.984.32c-1.68 0-2.224-.432-2.224-1.1 0-.768.512-1.392 1.936-2.128-.016.576-.016 1.376-.016 1.952 0 .16.064.256.208.256a8.656 8.656 0 001.136-.08c.208-.032.3-.112.3-.288zM-130.24 19.376c.352-.128.7-.272 1.04-.416.448-.192.448-.192.448-.7a6.869 6.869 0 01.08-1.04 13.329 13.329 0 01-1.568.624v-2.612c.928 0 1.248.032 1.344.032.144 0 .16-.016.16-.176V13.92c0-.176-.016-.192-.16-.192-.1 0-.416.032-1.344.032v-.86a5.11 5.11 0 01.1-1.632.75.75 0 00.1-.336c0-.08-.1-.144-.256-.16-.544-.064-1.04-.1-1.648-.112a13.285 13.285 0 01.128 2.272v.832h-.208c-1.088 0-1.424-.032-1.52-.032-.144 0-.16.016-.16.192v1.168c0 .16.016.176.16.176.1 0 .432-.032 1.52-.032h.208v3.1l-.512.144a9.9 9.9 0 01-1.456.3 13.561 13.561 0 00.256 1.52c.032.16.112.208.208.208a.426.426 0 00.256-.1 1.855 1.855 0 01.56-.256c.224-.064.448-.144.688-.224v3.032c0 .464-.112.608-.5.608a8.745 8.745 0 01-1.136-.048 5.6 5.6 0 01.4 1.152c.112.48.112.48.624.48a2.76 2.76 0 001.728-.352c.368-.272.512-.7.512-1.6 0-.8-.048-1.664-.048-3.184zm8.7-2.5c1.536 0 2.08.032 2.176.032.144 0 .16-.016.16-.192V15.6c0-.16-.016-.176-.16-.176-.1 0-.64.032-2.176.032h-1.824v-1.584h1.184c1.44 0 1.936.032 2.032.032.16 0 .176-.016.176-.176v-1.136c0-.176-.016-.192-.176-.192-.1 0-.592.032-2.032.032h-1.184a3.535 3.535 0 01.08-1.2.745.745 0 00.1-.32c0-.08-.1-.144-.256-.16-.544-.048-1.04-.1-1.664-.112a10.981 10.981 0 01.112 1.792h-.8c-1.456 0-1.936-.032-2.032-.032-.176 0-.192.016-.192.192v1.136c0 .16.016.176.192.176.1 0 .576-.032 2.032-.032h.8v1.584h-1.344c-1.536 0-2.08-.032-2.176-.032-.16 0-.176.016-.176.176v1.12c0 .176.016.192.176.192.1 0 .64-.032 2.176-.032zm-1.28 2.976v3.2a.435.435 0 01-.448.5 15.4 15.4 0 01-1.712-.048 3.71 3.71 0 01.48 1.216c.128.5.112.5.608.48a4.01 4.01 0 002.144-.352 1.5 1.5 0 00.544-1.36c0-.544-.032-1.232-.032-1.968v-1.664c1.28.016 1.76.032 1.856.032.144 0 .16-.016.16-.176v-1.168c0-.16-.016-.176-.16-.176-.1 0-.576.032-1.856.032a1.7 1.7 0 01.08-.736.472.472 0 00.08-.24c0-.08-.1-.144-.272-.176a12.631 12.631 0 00-1.568-.128 6.275 6.275 0 01.1 1.28h-3.312c-1.52 0-2.048-.032-2.144-.032-.176 0-.192.048-.192.208v1.136c0 .16.016.176.192.176.1 0 .624-.032 2.144-.032zm-4.624 1.136c-.176.112-.192.176-.08.3a9.193 9.193 0 011.472 2.032c.048.08.08.112.128.112a.5.5 0 00.192-.1l.928-.656c.192-.128.192-.176.1-.32a11.469 11.469 0 00-1.552-1.92.169.169 0 00-.144-.08.342.342 0 00-.192.08zm11.344-3.216a8.178 8.178 0 00.864 1.552c.16.192.272.288.416.288a.5.5 0 00.32-.16 5.135 5.135 0 01.9-.5 14.317 14.317 0 014.528-1.248c1.28 0 1.984.624 1.984 1.76a2.5 2.5 0 01-1.44 2.384 11.627 11.627 0 01-3.856 1.1 3.36 3.36 0 01.976 1.056c.112.208.24.272.528.224a8.68 8.68 0 003.312-1.056 3.824 3.824 0 002.288-3.572 3.381 3.381 0 00-3.648-3.424 15.726 15.726 0 00-4.672.976 17.223 17.223 0 01-2.5.624zM-95.7 14c.112-.4.224-.944.384-1.52a3.046 3.046 0 01.336-.64.384.384 0 00.08-.256.266.266 0 00-.176-.256 9.325 9.325 0 00-2.016-.448 11.01 11.01 0 01-.1 1.472c-.112.656-.24 1.36-.4 2a21.623 21.623 0 01-2.592.16 7.384 7.384 0 01-1.184-.048c.08.576.16 1.12.224 1.456.032.208.1.256.336.256.752 0 1.872-.08 2.8-.176a60.061 60.061 0 01-2.768 7.584.258.258 0 00.128.32c.336.192 1.12.528 1.28.592.176.048.272.064.352-.16 1.024-2.656 1.84-5.1 2.928-8.656a25.551 25.551 0 002.784-.608c.208-.048.256-.1.24-.3a14.74 14.74 0 00-.112-1.152c-.016-.128-.08-.208-.256-.16-.776.22-1.64.428-2.268.54zm.288 7.344a3.121 3.121 0 00.72 2.192c.72.752 1.808 1.04 3.9 1.04a19.013 19.013 0 002.176-.176c.256-.016.272-.064.256-.256a10 10 0 00-.128-1.392c-.016-.128-.064-.16-.192-.144a23.92 23.92 0 01-2.688.224c-1.536 0-2.32-.336-2.448-1.5-.016-.16-.08-.224-.24-.224a8.149 8.149 0 00-1.352.236zm1.248-3.024a17.706 17.706 0 013.216-.368 10.7 10.7 0 011.984.192c.224.048.3-.016.3-.288a11.291 11.291 0 00-.016-1.28c0-.192-.048-.208-.272-.24a11.652 11.652 0 00-1.872-.16 16.71 16.71 0 00-3.12.368c-.24.048-.288.1-.288.32.008.32.04.896.072 1.456zm15.84 3.408c.032.7-.1.864-.464.944a11.469 11.469 0 01-2.256.16 3.246 3.246 0 011.12 1.424c.08.208.192.272.5.272a4.9 4.9 0 002.208-.56 1.683 1.683 0 00.768-1.7l-.288-6.016h1.3c.992 0 1.9.032 3.072.08a.2.2 0 00.224-.224 20.19 20.19 0 000-1.392c0-.112-.08-.192-.24-.192-1.184.048-1.984.08-3.1.08h-1.4l-.048-1.216a4.544 4.544 0 01.064-1.472.9.9 0 00.064-.24c0-.1-.048-.16-.208-.192a14.018 14.018 0 00-2.016-.176 8.021 8.021 0 01.256 1.888l.064 1.424h-3.808c-.96 0-1.9-.016-2.864-.08a14.287 14.287 0 00.128 1.552c.016.176.08.288.224.272.832-.048 1.728-.08 2.56-.08l2.8-.016a15.38 15.38 0 01-2.352 2.48 18.854 18.854 0 01-3.728 2.528 3.62 3.62 0 011.312.944.334.334 0 00.272.16.674.674 0 00.368-.144A18.041 18.041 0 00-80.768 20a13.251 13.251 0 002.256-2.464zm18.48-7.04a13.467 13.467 0 01-2.7 4.56 15.463 15.463 0 01-5.232 4 4.757 4.757 0 011.488.88.561.561 0 00.4.176.774.774 0 00.432-.144 17.942 17.942 0 004.544-3.808 18.842 18.842 0 003.1-5.2 1.926 1.926 0 01.368-.624.546.546 0 00.224-.4.4.4 0 00-.112-.272A4.924 4.924 0 00-58.5 12.8a.782.782 0 00-.3-.08.452.452 0 00-.24.064 1.53 1.53 0 01-.88.16h-5.712a28 28 0 01-3.072-.112c.032.464.1 1.3.144 1.616.032.224.1.336.3.32.688-.032 1.6-.08 2.64-.08zm16.256.272v-1.52a4.406 4.406 0 01.128-1.408.856.856 0 00.064-.288c0-.128-.064-.208-.288-.256a14.871 14.871 0 00-1.872-.272 10.636 10.636 0 01.144 2.192l-.016 1.568h-3.44v-1.168a4.008 4.008 0 01.112-1.536 1.087 1.087 0 00.1-.336c0-.112-.064-.192-.24-.224a15.534 15.534 0 00-1.952-.256 11.12 11.12 0 01.192 2.352v1.168h-.48c-1.232 0-2.272-.032-2.944-.08a14.356 14.356 0 00.112 1.552c.016.208.064.3.192.3.5-.032 1.776-.08 2.64-.08h.48v.608a42.97 42.97 0 01-.08 2.624c-.016.176.08.208.288.224a9.873 9.873 0 001.376 0c.176-.016.288-.048.272-.224-.048-.848-.048-1.712-.048-2.656v-.576h3.408a7.742 7.742 0 01-.944 4.08c-.816 1.312-2.048 2.128-4.32 2.832a3.693 3.693 0 011.328.96c.128.128.208.176.3.176a1.342 1.342 0 00.448-.144 7.538 7.538 0 003.78-2.972 9.516 9.516 0 001.232-4.928h.656c.784 0 1.76.016 2.3.016.224.016.256-.048.272-.256a8.334 8.334 0 000-1.264c-.016-.176-.032-.272-.224-.256-.736.032-1.632.048-2.416.048zm13.408.752A25.327 25.327 0 00-28.3 13.7a5.271 5.271 0 01.96-.88.458.458 0 00.224-.352.283.283 0 00-.128-.24 14.235 14.235 0 00-1.776-1.12 4.638 4.638 0 01-1.008 1.648A25.959 25.959 0 01-33.44 16.1a25.684 25.684 0 01-5.04 3.28 5.989 5.989 0 011.376.944.446.446 0 00.336.16.452.452 0 00.24-.064 27.68 27.68 0 004.4-3.072v3.728c0 1.088-.048 2.128-.064 3.28-.016.192.048.256.224.256a13.346 13.346 0 001.6 0c.176 0 .256-.064.24-.272-.032-1.28-.048-2.224-.048-3.328zm13.488-2.224a4.167 4.167 0 01.112-1.5.842.842 0 00.128-.368c0-.128-.08-.224-.3-.272a11.81 11.81 0 00-2-.256 12.209 12.209 0 01.16 2.368v7.872c0 1.024-.016 1.968-.064 3.152 0 .192.08.24.3.24a10.573 10.573 0 001.424 0c.224 0 .3-.048.288-.24-.032-1.152-.064-2.1-.064-3.136v-3.54a17.721 17.721 0 014.208 2.048.245.245 0 00.176.08c.08 0 .144-.064.208-.176a9.4 9.4 0 00.688-1.392c.08-.208 0-.32-.176-.416a22.569 22.569 0 00-5.088-2.176zm20.26 4.736v4.592c0 1.584-.016 2.064-.016 2.176 0 .16.016.176.16.176H5.04c.16 0 .176-.016.176-.176 0-.1-.032-.592-.032-2.176v-4.592c1.2.016 1.648.032 1.744.032.16 0 .176-.016.176-.176v-1.2c0-.176-.016-.192-.176-.192-.1 0-.544.032-1.744.032v-3.888c.912.016 1.264.032 1.344.032.16 0 .176-.016.176-.16V11.52c0-.16-.016-.176-.176-.176-.1 0-.592.032-2.032.032H.96c-1.44 0-1.936-.032-2.032-.032-.144 0-.16.016-.16.176v1.18c0 .144.016.16.16.16.064 0 .4-.016 1.2-.032v3.892c-1.04 0-1.44-.032-1.52-.032-.16 0-.176.016-.176.192v1.2c0 .16.016.176.176.176.08 0 .48-.016 1.488-.032a10.9 10.9 0 01-.528 3.248A5.654 5.654 0 01-2.64 24.24a4 4 0 011.056.72c.192.192.272.288.368.288.08 0 .176-.08.336-.256a7.007 7.007 0 002.08-3.216 13.033 13.033 0 00.528-3.552zM1.76 16.72v-3.888h1.808v3.888zm-5.44-3.62c1.168 0 1.536.032 1.632.032.16 0 .176-.016.176-.176v-1.164c0-.16-.016-.176-.176-.176-.1 0-.464.032-1.632.032h-1.968c-1.152 0-1.52-.032-1.632-.032-.16 0-.176.016-.176.176v1.168c0 .16.016.176.176.176.112 0 .48-.032 1.632-.032h.1A10.218 10.218 0 01-7.9 18.512a4.5 4.5 0 01.416 1.376c.032.208.08.3.176.3.08 0 .176-.08.288-.224.24-.3.48-.624.7-.944v2.208c0 2.3-.032 2.8-.032 2.9 0 .16.016.176.192.176h1.072c.176 0 .192-.016.192-.176v-1.344H-3.5v.384c0 .176.016.192.176.192h1.072c.16 0 .176-.016.176-.192 0-.1-.032-.544-.032-2.832v-1.6c0-1.568.032-2.048.032-2.16 0-.16-.016-.176-.176-.176-.112 0-.432.032-1.152.032h-1.54A15.054 15.054 0 00-4 13.1zm.18 4.74v3.552h-1.4V17.84zm26.192-5.456c0-.144-.016-.16-.16-.16-.1 0-.544.032-1.888.032h-3.556l.208-.416a2.169 2.169 0 01.3-.528.358.358 0 00.128-.24c0-.1-.08-.16-.192-.192-.512-.144-.912-.24-1.408-.336a4.4 4.4 0 01-.3.976 8.9 8.9 0 01-2.112 2.98 1.716 1.716 0 01.08-.56 1.182 1.182 0 00.128-.352c0-.1-.128-.176-.272-.192a15.694 15.694 0 00-1.584-.112 14.329 14.329 0 01.112 2.064v5.132c0 1.408-.032 2.1-.032 2.192 0 .176.016.192.176.192h1.232c.16 0 .176-.016.176-.192 0-.1-.032-.784-.032-2.192v-5.9a2.6 2.6 0 01.672.592c.16.192.24.288.336.288.08 0 .176-.1.352-.256.272-.288.528-.576.752-.848a7.131 7.131 0 001.28 1.568 13.84 13.84 0 01-3.28 1.152 3.068 3.068 0 01.544.88c.128.288.176.4.336.4a1.365 1.365 0 00.336-.08 13.784 13.784 0 003.264-1.424A13.957 13.957 0 0022 18.48a1.449 1.449 0 00.352.08c.144 0 .176-.112.288-.448a3.408 3.408 0 01.512-1.024 12.054 12.054 0 01-3.6-1.184 7.8 7.8 0 001.776-2.336c.816.016 1.12.032 1.2.032.144 0 .16-.016.16-.192zm-3.024 1.184a5.993 5.993 0 01-1.348 1.552 6.982 6.982 0 01-1.44-1.552zm-9.94 9.072c0 1.568-.032 2.336-.032 2.432 0 .16.016.176.176.176h1.28c.16 0 .176-.016.176-.176 0-.08-.032-.864-.032-2.432v-8.128a21.108 21.108 0 00.96-2.3 1.683 1.683 0 01.32-.672c.112-.1.16-.16.16-.272 0-.128-.064-.176-.24-.24a9.256 9.256 0 00-1.5-.448 5.41 5.41 0 01-.256 1.12 15.209 15.209 0 01-2.9 5.1 4.576 4.576 0 01.528 1.376c.048.192.112.288.176.288.08 0 .16-.08.288-.224q.48-.576.912-1.152c-.016.72-.016 1.488-.016 2.08zm3.972 1.232a3.485 3.485 0 01.688 1.008c.112.24.16.32.3.32a2.391 2.391 0 00.352-.048 14.014 14.014 0 007.1-3.5 2.931 2.931 0 01.512-.368c.112-.048.176-.112.176-.208 0-.08-.048-.144-.144-.224A9.033 9.033 0 0021.472 20a3.465 3.465 0 01-.576.7 13 13 0 01-7.196 3.172zm.56-2.352a3.285 3.285 0 01.672.9c.112.208.16.3.288.3a1.42 1.42 0 00.384-.1 13.2 13.2 0 004.72-2.384 1.883 1.883 0 01.576-.352.2.2 0 00.144-.192c0-.08-.016-.128-.128-.208a9.388 9.388 0 00-1.184-.752 3.162 3.162 0 01-.592.64 11.478 11.478 0 01-4.884 2.148zm3.728-4a2.5 2.5 0 01-.592.56 11.179 11.179 0 01-3.44 1.408 3.578 3.578 0 01.656.8c.112.208.144.288.288.288a1.712 1.712 0 00.368-.08 11.734 11.734 0 003.328-1.632 1.819 1.819 0 01.528-.272c.112-.032.176-.1.176-.176s-.032-.128-.128-.192a10.511 10.511 0 00-1.188-.704zm15.1 1.6c1.36-.56 2.4-.912 3.44-1.28a5.117 5.117 0 01.976-.24c.16-.032.24-.1.24-.224a.633.633 0 00-.128-.352 9.856 9.856 0 00-1.12-1.408 4.812 4.812 0 01-1.216.864c-.816.416-1.728.832-2.352 1.12a1.767 1.767 0 00-1.952-1.728 3.184 3.184 0 00-1.6.5l-.016-.032a16.511 16.511 0 001.2-1.776 99.97 99.97 0 003.744-.48c.224-.032.288-.1.272-.256a5.4 5.4 0 00-.16-1.152c-.032-.144-.08-.192-.256-.16a25.739 25.739 0 01-2.912.5c.192-.432.272-.64.368-.864a1.246 1.246 0 01.272-.384.309.309 0 00.112-.248.287.287 0 00-.192-.272 10.1 10.1 0 00-1.824-.448 3.9 3.9 0 01-.112.976 12.329 12.329 0 01-.48 1.376 35.292 35.292 0 01-3.68.016c.048.48.112 1.072.16 1.328.032.176.08.256.224.256.944 0 1.808-.016 2.56-.048a16.35 16.35 0 01-3.344 3.968c-.08.064-.112.112-.112.176a.26.26 0 00.064.144 7.611 7.611 0 00.912 1.056.319.319 0 00.176.112c.064 0 .112-.048.192-.144a21.561 21.561 0 011.6-1.744 3.863 3.863 0 012.208-1.152c.72-.032.912.288.96 1.1-2.416 1.248-3.376 2.368-3.376 3.9 0 1.856 1.392 2.64 4.016 2.64a28.458 28.458 0 003.968-.208c.128 0 .192-.112.176-.3a7.16 7.16 0 00-.144-1.312c-.016-.144-.08-.192-.224-.176a27.344 27.344 0 01-3.984.32c-1.68 0-2.224-.432-2.224-1.1 0-.768.512-1.392 1.936-2.128-.016.576-.016 1.376-.016 1.952 0 .16.064.256.208.256a8.655 8.655 0 001.136-.08c.208-.032.3-.112.3-.288zm9.456-.288a4.222 4.222 0 00-.844 2.288c0 2.08 1.808 3.232 5.5 3.232a25.4 25.4 0 004.688-.384c.192-.032.288-.1.272-.24a13.378 13.378 0 00-.26-1.568c-.032-.144-.112-.192-.336-.144a20.355 20.355 0 01-4.336.464c-2.752 0-3.792-.5-3.792-1.5a2.629 2.629 0 01.416-1.216c.08-.128.064-.208-.08-.288a32.753 32.753 0 00-1.228-.644zm.352-6.048c-.032.576-.064 1.04-.064 1.424 0 .192.064.256.208.288a19.145 19.145 0 002.944.272 9.77 9.77 0 001.168-.048 71.98 71.98 0 00-2.1 1.328 3.823 3.823 0 011.12.512.672.672 0 00.336.1.682.682 0 00.4-.144 9.322 9.322 0 013.92-1.584c.192-.016.272-.112.272-.336a9.339 9.339 0 00-.144-1.36c-.016-.128-.08-.192-.24-.176-1.024.08-2.16.144-3.328.144a20.185 20.185 0 01-4.488-.42zm8-.768a7.939 7.939 0 011.616 1.856.167.167 0 00.272.048l.672-.5a.161.161 0 00.048-.256 7.364 7.364 0 00-1.52-1.712c-.1-.08-.16-.1-.24-.032zm1.472-1.056a7.569 7.569 0 011.6 1.84.164.164 0 00.272.048l.64-.5a.185.185 0 00.048-.288 6.682 6.682 0 00-1.52-1.648c-.1-.08-.144-.1-.24-.032zm11.76 14.24c.176 0 .192-.016.192-.192v-.672h3.632v.608c0 .144.016.16.176.16h1.232c.176 0 .192-.016.192-.16 0-.1-.032-.544-.032-2.912v-1.648c0-1.2.032-1.68.032-1.76 0-.176-.016-.192-.192-.192-.1 0-.56.032-1.872.032h-2.672c-1.328 0-1.776-.032-1.888-.032-.16 0-.176.016-.176.192 0 .08.032.56.032 2.016v1.44c0 2.4-.032 2.848-.032 2.928 0 .176.016.192.176.192zm.192-5.264h3.632v2.928H64.32zm-4.1-3.888c-.224.08-.224.128-.16.288q.216.456.384.912c-.576.048-1.168.1-1.744.128a45.562 45.562 0 002.432-3.472 1.9 1.9 0 01.528-.656c.128-.064.176-.128.176-.24 0-.1-.048-.16-.192-.24a14.863 14.863 0 00-1.344-.688 8.059 8.059 0 01-.48 1.088c-.352.608-.7 1.2-1.088 1.792-.224-.272-.464-.544-.7-.816.5-.7.9-1.344 1.408-2.224a.976.976 0 01.3-.384c.08-.064.144-.128.144-.208 0-.1-.064-.176-.208-.256a12.839 12.839 0 00-1.36-.576 4.89 4.89 0 01-.368.992 13.449 13.449 0 01-.88 1.648l-.432-.448q-.1-.1-.144-.1c-.048 0-.1.048-.16.144l-.544.832c-.112.176-.16.224-.016.336a24.034 24.034 0 012.128 2.32c-.3.416-.608.832-.912 1.216a12.657 12.657 0 01-1.328-.032c.064.512.144.96.224 1.344.032.16.08.272.192.272a.6.6 0 00.256-.08 1.39 1.39 0 01.576-.128l1.408-.1v4.24c0 1.472-.032 2-.032 2.1 0 .16.016.176.176.176h1.22c.16 0 .176-.016.176-.176 0-.08-.032-.624-.032-2.1v-4.376l1.008-.1.176.7c.032.176.08.192.272.128l.816-.24c.208-.064.256-.112.208-.288a15.6 15.6 0 00-1.072-2.88c-.08-.16-.128-.192-.336-.112zm8.08-3.328a9.776 9.776 0 01-.336 2.976.787.787 0 01-.752.352 11.206 11.206 0 01-1.472-.128 3.839 3.839 0 01.336 1.072c.08.5.08.512.528.528.3.016.544.016.912.016a1.851 1.851 0 001.872-1.024 13.168 13.168 0 00.48-3.936c.016-.32.016-.7.016-1.1 0-.176-.016-.208-.176-.208-.1 0-.576.032-2.016.032H64.3c-1.424 0-1.9-.032-2.016-.032-.16 0-.176.016-.176.192v1.1c0 .176.016.192.176.192.112 0 .592-.032 2.016-.032h.144a4.33 4.33 0 01-2.768 3.9 2.74 2.74 0 01.832.832c.16.24.224.352.336.352.08 0 .176-.08.368-.208a5.851 5.851 0 002.8-4.88zM55.632 23.584a5.392 5.392 0 01.9.416.68.68 0 00.288.128c.1 0 .16-.1.24-.352a20.352 20.352 0 00.56-2.976 1.928 1.928 0 01.1-.528.425.425 0 00.08-.224c0-.08-.08-.144-.272-.192a12.169 12.169 0 00-1.232-.224 4.134 4.134 0 01-.016.9 13.014 13.014 0 01-.648 3.052zm4.912-3.712c-.176.048-.224.08-.176.256a23.176 23.176 0 01.608 3.04c.016.16.048.176.288.1l.768-.256c.208-.064.224-.112.208-.288a17.442 17.442 0 00-.656-2.9c-.064-.176-.08-.192-.272-.144zm19.28-8.656c.112-.1.16-.16.16-.24 0-.112-.128-.208-.272-.24a10.512 10.512 0 00-1.664-.336 4.35 4.35 0 01-.56 1.168 12.438 12.438 0 01-6.032 4.992 3.761 3.761 0 01.736 1.136c.128.272.192.4.288.4a1.015 1.015 0 00.384-.176 15 15 0 005.984-5.264 14.513 14.513 0 006.272 5.232 1.259 1.259 0 00.368.144c.128 0 .176-.128.288-.416a4.718 4.718 0 01.688-1.264 13.877 13.877 0 01-6.752-5.04zm-7.808 12.656a4.493 4.493 0 01.944 1.088c.144.256.224.352.32.352a1.2 1.2 0 00.384-.16 6.233 6.233 0 002.848-2.272 8.1 8.1 0 00.9-4.48 4.747 4.747 0 01.1-1.3 1.009 1.009 0 00.08-.352c0-.112-.1-.176-.272-.192a21.336 21.336 0 00-1.776-.08 11.547 11.547 0 01.112 1.872 6.623 6.623 0 01-.608 3.472 5.248 5.248 0 01-3.032 2.052zm8.336-.944c0 1.312-.032 1.952-.032 2.064 0 .144.016.16.176.16h1.424c.176 0 .192-.016.192-.16 0-.1-.032-.752-.032-2.064V18.88a11.264 11.264 0 01.08-1.728 1.773 1.773 0 00.08-.4c0-.1-.08-.16-.24-.176a18.91 18.91 0 00-1.76-.128 16.669 16.669 0 01.112 2.448zm10.64-11.552a10.638 10.638 0 01.16 2.928c-.08 1.92-.224 4.224-.224 6.912 0 2.448.96 3.264 3.008 3.264a9.141 9.141 0 006.064-2.4c.256-.224.32-.352.32-.5a1.052 1.052 0 00-.128-.384 5.562 5.562 0 01-.368-1.52 8.437 8.437 0 01-5.6 2.944c-1.28 0-1.472-.368-1.472-1.984 0-2.1.08-3.728.24-6.192a9.59 9.59 0 01.224-1.952 1.552 1.552 0 00.16-.528c0-.16-.112-.24-.384-.3a16.548 16.548 0 00-2-.288zm18.912 9.1c-.752-.064-1.136-.064-1.536-.064-1.936 0-3.2.976-3.2 2.272 0 1.328 1.184 2.24 3.264 2.24 2.192 0 3.232-.7 3.248-2.432a12.7 12.7 0 013.184 1.824.245.245 0 00.176.08.235.235 0 00.208-.128 4.813 4.813 0 00.7-1.184c.048-.192.048-.24-.112-.384a14.266 14.266 0 00-4.24-1.936c-.048-.736-.08-1.52-.112-2.256a28.979 28.979 0 003.136-.384c.176-.016.24-.064.24-.224 0-.48-.032-1.008-.048-1.312-.016-.144-.064-.176-.256-.128-1.152.176-1.92.336-3.136.416 0-.576-.016-1.168-.016-1.808a32.731 32.731 0 003.7-.416c.128-.016.176-.048.176-.256a8.548 8.548 0 00-.08-1.168c-.016-.192-.08-.24-.272-.192a26.923 26.923 0 01-3.5.48c.016-.48.016-.7.032-1.024a2.056 2.056 0 01.24-.768.326.326 0 00-.176-.48 9.271 9.271 0 00-2.016-.288 4.6 4.6 0 01.192 1.072c.016.544.032.96.032 1.552a36.581 36.581 0 01-4.192-.16c.032.656.064 1.04.112 1.44.016.16.1.224.272.224a26.331 26.331 0 003.824.08c.016.608.016 1.232.032 1.84a22.512 22.512 0 01-3.6-.128 9.55 9.55 0 00.1 1.36c.016.208.08.272.256.272a28.331 28.331 0 003.3.064c.004.548.036 1.204.064 1.908zm.032 1.52a1.535 1.535 0 01-.176.9 1.976 1.976 0 01-1.456.48c-1.1 0-1.584-.3-1.584-.72 0-.512.56-.848 1.728-.848a6.9 6.9 0 011.488.192zm16.416-8.48c-1.92.112-3.984.24-4.96.32a10.553 10.553 0 01-1.952.064 11.211 11.211 0 00.4 1.616c.048.16.112.224.272.224.144 0 .4-.144.752-.192 1.264-.176 3.52-.368 5.536-.48 0 .528.016 1.072.016 1.632a1.961 1.961 0 00-1.216-.32 2.331 2.331 0 00-2.416 2.4 2.216 2.216 0 002.224 2.448 1.847 1.847 0 001.5-.64 5.345 5.345 0 01-3.28 3.52 3.566 3.566 0 011.216.64.906.906 0 00.48.24 1.525 1.525 0 00.624-.3 5.974 5.974 0 002.852-5.168 4.984 4.984 0 00-.24-1.584c-.016-.976-.016-2-.016-2.976 1.664-.016 3.216-.016 4.88.032.192.016.272-.032.272-.208.016-.4.016-.816 0-1.216-.016-.208-.048-.24-.24-.24-1.536 0-3.184.016-4.912.08.016-.608.016-.816.032-1.024a1.672 1.672 0 01.128-.464.675.675 0 00.144-.368c0-.144-.176-.256-.448-.3a16.256 16.256 0 00-1.872-.224 5.084 5.084 0 01.192 1.168c.016.428.016.828.032 1.324zm-1.024 4.112a.959.959 0 011.056 1.024 1.028 1.028 0 01-1.088 1.1.992.992 0 01-1.024-1.088 1.018 1.018 0 011.056-1.032z" transform="translate(173.471 84.684)" fill="#313131"/></g></svg>