<svg xmlns="http://www.w3.org/2000/svg" width="24.531" height="15.6" viewBox="0 0 24.531 15.6"><path id="txt_slide01_2.svg" d="M628.282 2764.88v1.74h2.569l-.536 2.95h-2.859v1.75h2.524l-.849 4.6h1.969l.849-4.6h3.351l-.849 4.6h1.943l.849-4.6h2.792v-1.75h-2.457l.536-2.95h2.747v-1.74h-2.412l.827-4.38h-1.966l-.826 4.38h-3.351l.826-4.38h-1.943l-.826 4.38h-2.9zm4.534 1.74h3.351l-.559 2.95h-3.35zm19.143 7.56h-6.522l4.244-5.14c.983-1.19 2.323-2.66 2.323-4.49a4.429 4.429 0 00-8.845-.09h1.9a2.515 2.515 0 015.026 0c0 1.16-.692 2.21-1.742 3.44l-5.428 6.41v1.61h9.046v-1.74z" transform="translate(-627.469 -2760.31)" fill="#ededed" fill-rule="evenodd"/></svg>