<svg xmlns="http://www.w3.org/2000/svg" width="261.6" height="424.81" viewBox="0 0 261.6 424.81"><path id="txt_feature_3.svg" d="M1092.51 2961.52h28.8c48 0 72.6 25.2 72.6 67.21 0 34.8-24.6 61.2-60.6 61.2-42.6 0-63.6-22.8-68.4-52.8h-63.6c3.6 65.4 51 113.4 135 113.4 79.8 0 126.6-54.6 126.6-120 0-51.01-27-83.41-64.8-100.21 32.4-16.2 58.8-47.4 58.8-92.4 0-62.4-52.8-112.2-125.4-112.2-66.6 0-123 43.8-124.8 110.4h63.6c3-28.8 25.2-51 58.8-51 35.4 0 58.8 24.6 58.8 54.6 0 39-23.4 61.8-66.6 61.8h-28.8v60z" transform="translate(-1001.31 -2725.72)" fill="#fff" fill-rule="evenodd"/></svg>