<svg height="158.72" viewBox="0 0 973 158.72" width="973" xmlns="http://www.w3.org/2000/svg"><path d="M0 75h959v72H0z" fill="#fffc8e"/><path d="M309 12h251v72H309z" fill="#fffc8e"/><g fill-rule="evenodd"><path d="M75.722 104.4c2.22.03 3.059.06 3.209.06.3 0 .33-.03.33-.33v-2.19c0-.3-.03-.33-.33-.33-.15 0-.989.06-3.209.06a2.341 2.341 0 01.18-1.2.948.948 0 00.18-.51.5.5 0 00-.48-.36 25.851 25.851 0 00-3.06-.33 11.332 11.332 0 01.21 2.4h-5.91c-2.85 0-3.81-.06-3.99-.06H62.7c-.06-.66-.09-1.41-.09-1.98-.96.51-1.89.93-2.76 1.35v-4.89c1.53.03 2.16.06 2.37.06a.329.329 0 00-.06.27v2.13c0 .3.03.33.33.33.18 0 1.17-.06 4.05-.06H75c2.85 0 3.839.06 3.989.06.3 0 .33-.03.33-.33v-2.13c0-.27-.03-.3-.33-.3-.15 0-1.139.06-3.989.06h-3.3v-3h2.1c2.7 0 3.6.06 3.78.06.3 0 .33-.03.33-.33v-2.13c0-.3-.03-.33-.33-.33-.18 0-1.08.06-3.78.06h-2.1a6.8 6.8 0 01.21-2.28 1.532 1.532 0 00.18-.6c0-.18-.18-.27-.48-.3-1.05-.12-1.98-.21-3.15-.24a17.18 17.18 0 01.27 3.42H67.5c-2.67 0-3.54-.06-3.72-.06-.33 0-.36.03-.36.33v2.13c0 .3.03.33.36.33.18 0 1.05-.06 3.72-.06h1.23v3h-2.19c-2.73 0-3.75-.06-3.99-.06a.318.318 0 00.09-.3v-2.31c0-.27-.03-.3-.36-.3-.15 0-.78.06-2.43.06v-1.74a12.322 12.322 0 01.18-3.33 1.669 1.669 0 00.18-.63.438.438 0 00-.48-.3c-1.05-.12-1.95-.18-3.09-.21a31.9 31.9 0 01.24 4.53v1.68h-1.44l.12-1.47a3.485 3.485 0 01.15-1.02 1 1 0 00.15-.48c0-.18-.12-.27-.48-.36-.75-.15-1.65-.27-2.429-.36a13.874 13.874 0 01.03 1.92 32.686 32.686 0 01-1.26 7.86 10.853 10.853 0 011.65.6 1.92 1.92 0 00.689.3c.18 0 .24-.21.36-.72a31.9 31.9 0 00.69-3.45h1.77v6.15q-1.125.45-2.25.81a15.224 15.224 0 01-2.789.81 27.741 27.741 0 00.99 2.91.43.43 0 00.45.33.719.719 0 00.509-.27 2.988 2.988 0 01.99-.6l2.1-.9v3.66c0 3.39-.06 5.07-.06 5.25 0 .3.03.33.33.33h2.4c.33 0 .36-.03.36-.33 0-.15-.06-1.86-.06-5.28v-5.01c.72-.36 1.44-.69 2.1-1.05a4.627 4.627 0 00.57-.3v1.53c0 .3.03.33.33.33.18 0 1.14-.06 3.99-.06h5.91v5.94a.745.745 0 01-.84.93 23.023 23.023 0 01-3.21-.06 6.436 6.436 0 01.93 2.25c.21.96.24.93 1.14.93 2.04 0 3.33-.21 3.99-.66a2.771 2.771 0 001.02-2.55c0-1.05-.06-2.34-.06-3.72v-3.06zm-11.37 1.98c-.33.21-.36.27-.15.54a18.648 18.648 0 012.76 3.75.291.291 0 00.21.24.769.769 0 00.36-.18l1.8-1.29c.33-.24.36-.3.18-.57a23.841 23.841 0 00-2.91-3.48c-.21-.21-.3-.21-.63-.03zm21.78-17.1a24.2 24.2 0 01-.54 4.47 57.27 57.27 0 00-1.02 9.84 28.124 28.124 0 001.38 8.94.362.362 0 00.39.33 14.891 14.891 0 002.46-.48.394.394 0 00.39-.39c0-.24-.06-.48-.06-.84a3.407 3.407 0 01.09-.93 29.329 29.329 0 011.71-4.53.83.83 0 00.15-.48 1.2 1.2 0 00-.21-.45 7.788 7.788 0 01-1.05-1.89c-.87 2.1-1.41 3.09-2.04 4.47a28.93 28.93 0 01-.18-3.51 48.611 48.611 0 011.26-9.69 7.087 7.087 0 01.72-2.13 1.685 1.685 0 00.45-.9.916.916 0 00-.69-.72 13.277 13.277 0 00-3.21-1.11zm6.9 15.48a6.61 6.61 0 001.05 3.9c1.29 1.77 3.36 2.49 7.8 2.49a40.279 40.279 0 004.89-.33c.51-.06.51-.09.51-.45a22.227 22.227 0 00-.18-2.58c-.06-.39-.12-.42-.42-.39a43 43 0 01-5.73.39c-3.27 0-4.71-.75-4.89-2.82 0-.33-.06-.48-.3-.45zm.96-8.52a36.676 36.676 0 016.81-.69c1.53 0 3.09.06 4.89.18.27.03.36-.09.39-.36.06-.84.06-1.65.06-2.55 0-.3-.06-.36-.69-.39-1.26-.12-2.64-.18-4.44-.18a47.9 47.9 0 00-6.51.54.438.438 0 00-.42.51c-.06.51-.06 1.26-.09 2.94zm21.78-1.26c.3-2.16 1.59-3.15 3.18-3.15a2.9 2.9 0 013.15 3.21c0 2.31-1.2 3.6-4.2 3.6h-1.59v3.06h1.74c3.21 0 4.44 1.53 4.44 4.14 0 2.43-1.35 3.87-3.51 3.87-1.98 0-3.06-.93-3.57-3.24l-3.689 1.08c1.02 3.54 3.509 5.07 7.289 5.07 4.38 0 7.32-2.76 7.32-6.81a5.57 5.57 0 00-4.83-5.76v-.21a4.976 4.976 0 004.38-5.16c0-3.33-2.7-5.76-6.87-5.76-3.48 0-6.059 1.71-6.929 4.95zm13.92 1.47a17.442 17.442 0 001.92 3.12 1.134 1.134 0 00.87.63 1.429 1.429 0 00.81-.45 19.1 19.1 0 012.07-1.08c4.56-2.01 8.13-3.09 10.83-3.09 3.33 0 5.16 1.74 5.16 4.56 0 2.76-1.59 4.68-4.14 5.97a28.181 28.181 0 01-8.13 2.22 5.567 5.567 0 012.1 2.37c.21.57.45.6 1.05.48a25.525 25.525 0 007.62-2.49c3.57-1.92 5.279-4.41 5.279-8.34 0-4.71-3.449-7.95-8.819-7.95-2.43 0-6.18.93-10.8 2.49a26.615 26.615 0 01-5.82 1.56zm45.15-2.7a6.814 6.814 0 016.72 6.96c0 5.67-3.99 7.77-9.06 8.97a6.363 6.363 0 012.1 1.89.954.954 0 001.29.54c6.09-1.83 9.239-5.34 9.239-10.92 0-5.97-4.229-10.41-11.429-10.41a13.128 13.128 0 00-9.75 3.84 11.053 11.053 0 00-3.39 7.8c0 4.89 2.67 7.71 5.31 7.71 2.25 0 3.81-1.2 5.1-3.45 1.8-3.15 3.06-7.83 3.75-12.93zm-3.6.18a34.277 34.277 0 01-3.18 10.74c-.81 1.44-1.47 1.83-2.25 1.83-.93 0-2.04-1.53-2.04-4.29a8.639 8.639 0 012.34-5.55 9.035 9.035 0 015.13-2.73zm39.9 10.89c2.34 0 3.179.06 3.389.06.3 0 .33-.03.33-.33 0-.18-.06-1.29-.06-3.66v-8.61c0-2.37.06-3.48.06-3.66 0-.33-.03-.36-.33-.36-.21 0-1.109.06-3.749.06h-5.94c-2.64 0-3.57-.06-3.72-.06-.3 0-.33.03-.33.36 0 .18.06 1.29.06 3.66v8.61c0 2.37-.06 3.45-.06 3.66 0 .3.03.33.33.33.12 0 .87-.03 2.7-.06-.3 4.41-2.85 6.15-6.87 7.17a4.411 4.411 0 011.53 1.68.957.957 0 00.66.63 2.5 2.5 0 00.72-.21c3.63-1.53 6.54-3.51 6.93-9.27h1.38v6.81a2.1 2.1 0 00.9 2.04 7.574 7.574 0 003.24.42 4.317 4.317 0 003.209-.9c.66-.6 1.08-1.74 1.23-3.78.06-.78 0-.87-.69-1.08a5.088 5.088 0 01-1.92-.93c-.06 2.28-.21 3.06-.6 3.45a1.221 1.221 0 01-1.08.33 4.422 4.422 0 01-.99-.06c-.3-.12-.33-.33-.33-.96v-5.34zm.63-2.55h-7.95v-2.16h7.95zm0-11.25v2.13h-7.95v-2.13zm-7.95 6.66v-2.1h7.95v2.1zm-7.62-5.76v-1.35a5.206 5.206 0 01.27-2.34 1.406 1.406 0 00.18-.63.438.438 0 00-.48-.3 28.305 28.305 0 00-3.24-.27 14.91 14.91 0 01.3 3.66v1.23h-.332c-2.19 0-2.91-.06-3.09-.06-.3 0-.33.03-.33.33v2.22c0 .3.03.33.33.33.18 0 .9-.06 3.09-.06h3.15a20.892 20.892 0 01-7.469 9 7.743 7.743 0 011.049 2.43.524.524 0 00.33.48 1.323 1.323 0 00.66-.42c.9-.81 1.77-1.65 2.61-2.55v6.15c0 2.22-.06 4.26-.06 4.44 0 .3.03.33.36.33h2.37c.33 0 .36-.03.36-.33 0-.15-.06-2.22-.06-4.44v-7.32a17.478 17.478 0 001.95 2.46.836.836 0 00.48.36.63.63 0 00.42-.39 7.908 7.908 0 011.56-2.19 12.732 12.732 0 01-3.81-3.48 22.9 22.9 0 002.16-3.96 2.878 2.878 0 01.72-1.11.724.724 0 00.36-.66 1.88 1.88 0 00-.81-1.02 2.384 2.384 0 00-1.26-.84.684.684 0 00-.36.18.948.948 0 01-.57.12h-.84zm34.41 4.17h-2.76c-2.94 0-3.99-.06-4.17-.06-.3 0-.33.03-.33.3 0 .21.06.96.06 2.7v4.17c0 1.74-.06 2.46-.06 2.67 0 .3.03.33.33.33.18 0 1.23-.06 4.17-.06h9.96c2.91 0 3.96.06 4.17.06.3 0 .33-.03.33-.33 0-.18-.06-.93-.06-2.67v-4.17c0-1.74.06-2.52.06-2.7 0-.27-.03-.3-.33-.3-.21 0-1.26.06-4.17.06h-3.99v-2.7h6.78c2.76 0 3.719.06 3.9.06.3 0 .33-.03.33-.3v-2.4c0-.3-.03-.33-.33-.33-.18 0-1.139.06-3.9.06h-6.78v-.24a5.13 5.13 0 01.21-2.1 1.526 1.526 0 00.12-.6c0-.18-.15-.27-.45-.3a29.465 29.465 0 00-3.33-.24 25.494 25.494 0 01.24 3.87zm-4.02 2.85h12.48v4.35h-12.48zm-5.01 15.21a.709.709 0 00.39.15.305.305 0 00.27-.21 18.973 18.973 0 003.15-5.64c.12-.3.03-.33-.33-.48l-1.74-.66c-.42-.15-.51-.18-.63.15a17.29 17.29 0 01-3.21 5.07c-.21.24-.21.33.21.57zm18.69-6.39c-.36.15-.45.24-.27.48a27.919 27.919 0 012.91 5.64c.09.27.15.24.54.12l2.009-.84c.39-.18.39-.27.27-.54a28.776 28.776 0 00-3.149-5.43c-.21-.27-.27-.24-.66-.09zm-6.3.21c-.42.09-.48.15-.36.42a27.781 27.781 0 011.53 5.43c.06.3.12.3.57.24l2.13-.45c.39-.09.42-.15.36-.48a31.841 31.841 0 00-1.77-5.34c-.12-.3-.15-.36-.54-.27zm-5.79-.03c-.39.03-.48.12-.42.42a35.052 35.052 0 01.54 5.43c0 .3.09.33.51.3l2.22-.12c.39-.03.45-.15.42-.45a33.371 33.371 0 00-.81-5.4c-.06-.33-.12-.36-.51-.33zm25.14-18.66a24.2 24.2 0 01-.54 4.47 57.27 57.27 0 00-1.02 9.84 28.124 28.124 0 001.38 8.94.362.362 0 00.39.33 14.891 14.891 0 002.46-.48.394.394 0 00.39-.39c0-.24-.06-.48-.06-.84a3.407 3.407 0 01.09-.93 29.329 29.329 0 011.71-4.53.83.83 0 00.15-.48 1.2 1.2 0 00-.21-.45 7.788 7.788 0 01-1.05-1.89c-.87 2.1-1.41 3.09-2.04 4.47a28.93 28.93 0 01-.18-3.51 48.611 48.611 0 011.26-9.69 7.087 7.087 0 01.72-2.13 1.685 1.685 0 00.45-.9.916.916 0 00-.69-.72 13.277 13.277 0 00-3.21-1.11zm6.9 15.48a6.61 6.61 0 001.05 3.9c1.29 1.77 3.36 2.49 7.8 2.49a40.252 40.252 0 004.889-.33c.51-.06.51-.09.51-.45a22.227 22.227 0 00-.18-2.58c-.06-.39-.12-.42-.42-.39a42.977 42.977 0 01-5.729.39c-3.27 0-4.71-.75-4.89-2.82 0-.33-.06-.48-.3-.45zm.96-8.52a36.676 36.676 0 016.81-.69c1.53 0 3.09.06 4.89.18.27.03.36-.09.39-.36.06-.84.06-1.65.06-2.55 0-.3-.06-.36-.69-.39-1.26-.12-2.64-.18-4.44-.18a47.9 47.9 0 00-6.51.54.438.438 0 00-.42.51c-.06.51-.06 1.26-.09 2.94zm23.52 5.49a7.917 7.917 0 00-1.59 4.29c0 3.9 3.45 6.06 10.17 6.06a45.239 45.239 0 008.94-.72c.36-.06.54-.18.51-.45a25.084 25.084 0 00-.48-2.94c-.06-.27-.21-.36-.63-.27a38.166 38.166 0 01-8.13.87c-5.16 0-7.11-.93-7.11-2.82a4.93 4.93 0 01.78-2.28.324.324 0 00-.15-.54c-.78-.42-1.53-.81-2.312-1.2zm.66-11.34c-.06 1.08-.12 1.95-.12 2.67a.447.447 0 00.39.54 37.444 37.444 0 005.25.51 20.628 20.628 0 002.46-.09c-1.05.63-2.37 1.47-3.93 2.49a7.168 7.168 0 012.1.96 1.26 1.26 0 00.63.18 1.278 1.278 0 00.75-.27 17.478 17.478 0 017.35-2.97.514.514 0 00.51-.63 19.754 19.754 0 00-.15-2.55.345.345 0 00-.45-.33c-1.92.12-4.17.27-6.36.27a37.846 37.846 0 01-8.43-.78zm43.62.93a14.886 14.886 0 013.03 3.48.313.313 0 00.51.09l1.26-.93a.3.3 0 00.089-.48 13.783 13.783 0 00-2.849-3.21.308.308 0 00-.45-.06zm2.76-1.98a14.188 14.188 0 013 3.45.308.308 0 00.51.09l1.2-.93a.347.347 0 00.09-.54 12.543 12.543 0 00-2.849-3.09.306.306 0 00-.45-.06zm-10.86 4.05c.21-.75.42-1.77.72-2.85a5.712 5.712 0 01.63-1.2.721.721 0 00.15-.48.5.5 0 00-.33-.48 17.485 17.485 0 00-3.78-.84 20.642 20.642 0 01-.18 2.76c-.21 1.23-.45 2.55-.75 3.75a40.543 40.543 0 01-4.86.3 13.846 13.846 0 01-2.22-.09c.15 1.08.3 2.1.42 2.73.06.39.18.48.63.48 1.41 0 3.51-.15 5.25-.33a112.612 112.612 0 01-5.19 14.22.483.483 0 00.24.6c.63.36 2.1.99 2.4 1.11.33.09.51.12.66-.3 1.92-4.98 3.45-9.57 5.49-16.23a47.908 47.908 0 005.22-1.14c.39-.09.48-.18.45-.57-.03-.63-.12-1.5-.21-2.16a.324.324 0 00-.48-.3c-1.47.42-3.09.81-4.26 1.02zm.54 13.77a5.851 5.851 0 001.35 4.11c1.35 1.41 3.39 1.95 7.23 1.95a33.115 33.115 0 004.169-.33c.48-.03.51-.12.48-.48a18.755 18.755 0 00-.24-2.61.261.261 0 00-.36-.27 44.81 44.81 0 01-5.039.42c-2.88 0-4.35-.63-4.59-2.82a.389.389 0 00-.45-.42 15.279 15.279 0 00-2.55.45zm2.34-5.67a33.2 33.2 0 016.03-.69 20.062 20.062 0 013.72.36c.419.09.569-.03.569-.54a21.172 21.172 0 00-.03-2.4c0-.36-.09-.39-.509-.45a21.847 21.847 0 00-3.51-.3 31.332 31.332 0 00-5.85.69c-.45.09-.54.18-.54.6 0 .6.058 1.68.12 2.73zm25.62-3.78c.72-1.05 1.17-1.62 1.59-2.16a1.266 1.266 0 00.51-.84 1.749 1.749 0 00-.48-.93 1.451 1.451 0 00-.81-.69.556.556 0 00-.21.06c-.09.03-.15.06-.24.09.06-1.29.12-1.98.15-2.7a5.1 5.1 0 01.3-1.29.68.68 0 00-.54-1.05 22.809 22.809 0 00-3.48-.51 10.88 10.88 0 01.3 2.61c0 1.29 0 2.61-.06 3.9-2.31.63-3.48.9-4.26 1.08a14.591 14.591 0 01-2.04.3 25.513 25.513 0 001.2 2.64.782.782 0 00.6.54 10.833 10.833 0 00.99-.51c1.14-.42 2.55-.84 3.42-1.11-.03.57-.03 1.38-.03 2.13-2.25 3.09-3.96 5.22-6.6 8.43a.519.519 0 00-.18.36.415.415 0 00.18.33 20.823 20.823 0 001.83 1.8.521.521 0 00.33.18.621.621 0 00.42-.3c1.11-1.59 2.61-3.78 4.05-5.94-.06 3.06-.12 6.21-.15 9.27-.03.3.06.42.33.42.99 0 2.34-.09 2.67-.12a.34.34 0 00.39-.36c-.06-4.05-.15-7.68-.18-11.52 2.94-2.52 5.28-3.84 8.04-3.84 2.88 0 4.47 1.83 4.47 4.65a5.793 5.793 0 01-2.04 4.53 13.82 13.82 0 01-6.03 2.97 8.834 8.834 0 012.37 1.98.984.984 0 00.78.42 1.143 1.143 0 00.51-.12c5.16-1.86 7.979-5.04 7.979-9.66 0-4.53-2.939-7.62-7.469-7.62-3.15 0-5.91 1.29-8.61 3.51zm26.7-9.57a27.759 27.759 0 01-.24 3.42 63.411 63.411 0 00-.72 7.47 19.193 19.193 0 00.9 6.09.445.445 0 00.42.39c.75-.09 2.04-.27 2.4-.36a.421.421 0 00.39-.48 3.749 3.749 0 01.15-.9 24.561 24.561 0 011.77-3.84 1.413 1.413 0 00.3-.75.69.69 0 00-.18-.48 6.219 6.219 0 01-.93-1.95c-.81 1.53-1.44 2.67-2.1 3.84a30.306 30.306 0 01.09-3.3c.18-1.56.42-3.69.84-5.73a3.462 3.462 0 01.54-1.41.687.687 0 00.21-.48.68.68 0 00-.57-.6 15.722 15.722 0 00-3.27-.93zm9.6.06a14.372 14.372 0 01.63 3.27c.21 1.92.36 5.04.36 7.17 0 4.74-.78 7.2-2.52 9.57a14.847 14.847 0 01-5.1 4.02 6.961 6.961 0 012.55 1.38.869.869 0 00.63.33 1.039 1.039 0 00.6-.21 16.531 16.531 0 004.95-4.83c1.59-2.46 2.28-6.15 2.28-10.41 0-2.16-.21-4.89-.42-7.74a10.621 10.621 0 01.06-1.38c.06-.51 0-.66-.6-.81a17.324 17.324 0 00-3.42-.36zm30.36 14.79c2.55-1.05 4.5-1.71 6.45-2.4a9.6 9.6 0 011.829-.45.435.435 0 00.45-.42 1.186 1.186 0 00-.24-.66 18.456 18.456 0 00-2.1-2.64 9.022 9.022 0 01-2.28 1.62c-1.53.78-3.24 1.56-4.41 2.1a3.313 3.313 0 00-3.66-3.24 5.969 5.969 0 00-3 .93l-.03-.06a30.958 30.958 0 002.25-3.33c2.19-.24 4.77-.57 7.02-.9.42-.06.54-.18.51-.48a10.115 10.115 0 00-.3-2.16c-.06-.27-.15-.36-.48-.3a48.261 48.261 0 01-5.46.93c.36-.81.51-1.2.69-1.62a2.337 2.337 0 01.51-.72.579.579 0 00.21-.45.538.538 0 00-.36-.51 18.943 18.943 0 00-3.42-.84 7.3 7.3 0 01-.21 1.83 23.117 23.117 0 01-.9 2.58 66.172 66.172 0 01-6.9.03c.09.9.21 2.01.3 2.49.06.33.15.48.42.48 1.77 0 3.39-.03 4.8-.09a30.656 30.656 0 01-6.27 7.44.418.418 0 00-.21.33.488.488 0 00.12.27 14.27 14.27 0 001.71 1.98.6.6 0 00.33.21.536.536 0 00.36-.27 40.427 40.427 0 013-3.27 7.243 7.243 0 014.14-2.16c1.35-.06 1.71.54 1.8 2.07-4.53 2.34-6.33 4.44-6.33 7.32 0 3.48 2.61 4.95 7.53 4.95a53.359 53.359 0 007.44-.39c.24 0 .36-.21.33-.57a13.426 13.426 0 00-.27-2.46.32.32 0 00-.42-.33 51.27 51.27 0 01-7.47.6c-3.15 0-4.17-.81-4.17-2.07 0-1.44.96-2.61 3.63-3.99-.03 1.08-.03 2.58-.03 3.66a.393.393 0 00.39.48 16.229 16.229 0 002.13-.15.527.527 0 00.57-.54v-4.83zm19.56.48c.66-.24 1.32-.51 1.95-.78.84-.36.84-.36.84-1.32a12.881 12.881 0 01.15-1.95 24.991 24.991 0 01-2.94 1.17V95.7c1.74 0 2.34.06 2.52.06.27 0 .3-.03.3-.33v-2.19c0-.33-.03-.36-.3-.36-.18 0-.78.06-2.52.06v-1.62c0-2.04 0-2.67.18-3.06a1.406 1.406 0 00.18-.63.438.438 0 00-.48-.3c-1.02-.12-1.95-.18-3.09-.21a24.909 24.909 0 01.24 4.26v1.56h-.39c-2.04 0-2.67-.06-2.85-.06-.269 0-.3.03-.3.36v2.19c0 .3.03.33.3.33.18 0 .81-.06 2.85-.06h.39v5.82l-.96.27a18.578 18.578 0 01-2.729.57 25.678 25.678 0 00.479 2.85.39.39 0 00.39.39.8.8 0 00.48-.18 3.479 3.479 0 011.05-.48c.42-.12.84-.27 1.29-.42v5.67c0 .87-.21 1.14-.93 1.14a16.4 16.4 0 01-2.13-.09 10.5 10.5 0 01.75 2.16c.21.9.21.9 1.17.9 1.86-.03 2.58-.18 3.24-.66.69-.51.96-1.32.96-3 0-1.5-.09-3.12-.09-5.97zm16.32-4.68c2.879 0 3.9.06 4.079.06.27 0 .3-.03.3-.36v-2.1c0-.3-.03-.33-.3-.33-.18 0-1.2.06-4.079.06H448.5v-2.97h2.22c2.7 0 3.629.06 3.809.06.3 0 .33-.03.33-.33v-2.13c0-.33-.03-.36-.33-.36-.18 0-1.109.06-3.809.06h-2.22a6.628 6.628 0 01.15-2.25 1.4 1.4 0 00.18-.6.438.438 0 00-.48-.3c-1.02-.09-1.95-.18-3.12-.21a20.59 20.59 0 01.21 3.36h-1.5c-2.73 0-3.63-.06-3.81-.06-.33 0-.36.03-.36.36v2.13c0 .3.03.33.36.33.18 0 1.08-.06 3.81-.06h1.5v2.97h-2.52c-2.88 0-3.9-.06-4.08-.06-.3 0-.33.03-.33.33v2.1c0 .33.03.36.33.36.18 0 1.2-.06 4.08-.06h9zm-2.4 5.58v6a.815.815 0 01-.84.93 28.879 28.879 0 01-3.21-.09 6.957 6.957 0 01.9 2.28c.24.93.21.93 1.14.9 2.46-.03 3.36-.24 4.02-.66a2.811 2.811 0 001.02-2.55c0-1.02-.06-2.31-.06-3.69v-3.12c2.4.03 3.3.06 3.479.06.27 0 .3-.03.3-.33v-2.19c0-.3-.03-.33-.3-.33-.18 0-1.08.06-3.479.06a3.184 3.184 0 01.15-1.38.885.885 0 00.15-.45.5.5 0 00-.51-.33 23.683 23.683 0 00-2.94-.24 11.767 11.767 0 01.18 2.4h-6.21c-2.85 0-3.84-.06-4.02-.06-.33 0-.36.09-.36.39v2.13c0 .3.03.33.36.33.18 0 1.17-.06 4.02-.06zm-8.67 2.13c-.33.21-.36.33-.15.57a17.237 17.237 0 012.76 3.81.308.308 0 00.24.21.928.928 0 00.36-.18l1.74-1.23c.36-.24.36-.33.18-.6a21.505 21.505 0 00-2.91-3.6.318.318 0 00-.27-.15.641.641 0 00-.36.15zm21.57-6.03a15.334 15.334 0 001.62 2.91 1.1 1.1 0 00.78.54.938.938 0 00.6-.3 9.629 9.629 0 011.68-.93c3.27-1.32 6.42-2.34 8.49-2.34 2.4 0 3.72 1.17 3.72 3.3a4.691 4.691 0 01-2.7 4.47 21.8 21.8 0 01-7.23 2.07 6.3 6.3 0 011.83 1.98.779.779 0 00.99.42 16.275 16.275 0 006.21-1.98c2.85-1.53 4.29-3.66 4.29-6.72 0-3.75-2.76-6.42-6.84-6.42a29.487 29.487 0 00-8.76 1.83 32.292 32.292 0 01-4.68 1.17zm38.55-7.08c.21-.75.42-1.77.72-2.85a5.712 5.712 0 01.63-1.2.721.721 0 00.15-.48.5.5 0 00-.33-.48 17.485 17.485 0 00-3.78-.84 20.642 20.642 0 01-.18 2.76c-.21 1.23-.45 2.55-.75 3.75a40.543 40.543 0 01-4.86.3 13.846 13.846 0 01-2.22-.09c.15 1.08.3 2.1.42 2.73.06.39.18.48.63.48 1.41 0 3.51-.15 5.25-.33a112.612 112.612 0 01-5.19 14.22.483.483 0 00.24.6c.63.36 2.1.99 2.4 1.11.33.09.51.12.66-.3 1.92-4.98 3.45-9.57 5.49-16.23a47.908 47.908 0 005.22-1.14c.39-.09.48-.18.45-.57-.03-.63-.12-1.5-.21-2.16a.324.324 0 00-.48-.3c-1.47.42-3.09.81-4.26 1.02zm.54 13.77a5.851 5.851 0 001.35 4.11c1.35 1.41 3.39 1.95 7.32 1.95a35.613 35.613 0 004.079-.33c.48-.03.51-.12.48-.48a18.755 18.755 0 00-.24-2.61.261.261 0 00-.36-.27 44.81 44.81 0 01-5.039.42c-2.88 0-4.35-.63-4.59-2.82a.389.389 0 00-.45-.42 15.279 15.279 0 00-2.55.45zm2.34-5.67a33.2 33.2 0 016.03-.69 20.062 20.062 0 013.72.36c.419.09.569-.03.569-.54a21.172 21.172 0 00-.03-2.4c0-.36-.09-.39-.509-.45a21.847 21.847 0 00-3.51-.3 31.332 31.332 0 00-5.85.69c-.45.09-.54.18-.54.6 0 .6.06 1.68.12 2.73zm30 6.39c.06 1.32-.18 1.62-.87 1.77a21.505 21.505 0 01-4.23.3 6.086 6.086 0 012.1 2.67.783.783 0 00.93.51 9.189 9.189 0 004.14-1.05 3.155 3.155 0 001.44-3.18l-.54-11.28h2.43c1.86 0 3.57.06 5.759.15a.379.379 0 00.42-.42c.03-.84.03-1.77 0-2.61a.377.377 0 00-.45-.36c-2.219.09-3.719.15-5.819.15h-2.61l-.09-2.28a8.52 8.52 0 01.12-2.76 1.685 1.685 0 00.12-.45.368.368 0 00-.39-.36 26.284 26.284 0 00-3.78-.33 15.04 15.04 0 01.48 3.54l.12 2.67h-7.14c-1.8 0-3.57-.03-5.37-.15a26.787 26.787 0 00.24 2.91c.03.33.15.54.42.51 1.56-.09 3.24-.15 4.8-.15l5.25-.03a28.838 28.838 0 01-4.41 4.65 35.351 35.351 0 01-6.99 4.74 6.788 6.788 0 012.46 1.77.626.626 0 00.51.3 1.265 1.265 0 00.69-.27 33.828 33.828 0 005.67-4.2 24.846 24.846 0 004.23-4.62zm34.95-13.2a25.251 25.251 0 01-5.07 8.55 28.993 28.993 0 01-9.81 7.5 8.92 8.92 0 012.79 1.65 1.053 1.053 0 00.75.33 1.452 1.452 0 00.81-.27 33.641 33.641 0 008.52-7.14 35.328 35.328 0 005.82-9.75 3.611 3.611 0 01.69-1.17 1.027 1.027 0 00.42-.75.753.753 0 00-.21-.51 9.232 9.232 0 00-2.19-1.98 1.467 1.467 0 00-.57-.15.847.847 0 00-.45.12 2.869 2.869 0 01-1.65.3h-10.71a52.5 52.5 0 01-5.76-.21c.06.87.18 2.43.27 3.03.06.42.18.63.57.6 1.29-.06 3-.15 4.95-.15H568.8zm30.78.51v-2.85a8.261 8.261 0 01.24-2.64 1.606 1.606 0 00.12-.54c0-.24-.12-.39-.54-.48a27.883 27.883 0 00-3.51-.51 19.943 19.943 0 01.27 4.11l-.03 2.94h-6.45v-2.19c0-2.04 0-2.34.21-2.88a2.038 2.038 0 00.18-.63.432.432 0 00-.45-.42 29.125 29.125 0 00-3.66-.48 20.851 20.851 0 01.36 4.41v2.19h-.9c-2.31 0-4.26-.06-5.52-.15a27.18 27.18 0 00.21 2.91c.03.39.12.57.36.57.93-.06 3.33-.15 4.95-.15h.9v1.14c0 1.89-.06 3.36-.15 4.92-.03.33.15.39.54.42a18.511 18.511 0 002.58 0c.33-.03.54-.09.51-.42-.09-1.59-.09-3.21-.09-4.98V98.4h6.39c-.12 3.66-.6 5.73-1.77 7.65-1.53 2.46-3.84 3.99-8.1 5.31a6.924 6.924 0 012.49 1.8.819.819 0 00.57.33 2.517 2.517 0 00.84-.27 14.134 14.134 0 007.08-5.58c1.47-2.43 2.13-4.95 2.31-9.24h1.23c1.47 0 3.3.03 4.319.03.42.03.48-.09.51-.48a15.625 15.625 0 000-2.37c-.03-.33-.06-.51-.42-.48-1.379.06-3.059.09-4.529.09zm26.64 1.41a47.488 47.488 0 003.51-3.78 9.884 9.884 0 011.8-1.65.859.859 0 00.42-.66.531.531 0 00-.24-.45 26.69 26.69 0 00-3.33-2.1 8.7 8.7 0 01-1.89 3.09 48.673 48.673 0 01-6.39 6.27 48.158 48.158 0 01-9.45 6.15 11.229 11.229 0 012.58 1.77.836.836 0 00.63.3.847.847 0 00.45-.12 51.9 51.9 0 008.25-5.76v6.99c0 2.04-.09 3.99-.12 6.15-.03.36.09.48.42.48a25.022 25.022 0 003 0 .391.391 0 00.45-.51c-.06-2.4-.09-4.17-.09-6.24zm25.59-4.17a7.813 7.813 0 01.21-2.82 1.579 1.579 0 00.24-.69.555.555 0 00-.57-.51 22.144 22.144 0 00-3.75-.48 22.891 22.891 0 01.3 4.44v14.76c0 1.92-.03 3.69-.12 5.91 0 .36.15.45.57.45a19.825 19.825 0 002.67 0c.42 0 .57-.09.54-.45-.06-2.16-.12-3.93-.12-5.88v-6.63a33.227 33.227 0 017.89 3.84.46.46 0 00.33.15.506.506 0 00.39-.33 17.632 17.632 0 001.29-2.61.555.555 0 00-.33-.78 42.317 42.317 0 00-9.54-4.08zm38.28 8.88v8.61c0 2.97-.03 3.87-.03 4.08 0 .3.03.33.3.33h2.49c.3 0 .33-.03.33-.33 0-.18-.06-1.11-.06-4.08v-8.61c2.249.03 3.089.06 3.269.06.3 0 .33-.03.33-.33v-2.25c0-.33-.03-.36-.33-.36-.18 0-1.02.06-3.269.06V91.2c1.709.03 2.369.06 2.519.06.3 0 .33-.03.33-.3v-2.22c0-.3-.03-.33-.33-.33-.18 0-1.11.06-3.809.06H685.2c-2.7 0-3.63-.06-3.81-.06-.27 0-.3.03-.3.33v2.22c0 .27.03.3.3.3.12 0 .75-.03 2.25-.06v7.29c-1.95 0-2.7-.06-2.85-.06-.3 0-.33.03-.33.36v2.25c0 .3.03.33.33.33.15 0 .9-.03 2.79-.06a20.445 20.445 0 01-.99 6.09 10.6 10.6 0 01-4.14 5.19 7.493 7.493 0 011.98 1.35 1.378 1.378 0 00.69.54 1.146 1.146 0 00.63-.48 13.139 13.139 0 003.9-6.03 24.437 24.437 0 00.99-6.66h3.45zm-3.39-2.82V91.2h3.39v7.29H686.7zm-10.2-6.78c2.19 0 2.88.06 3.06.06.3 0 .33-.03.33-.33v-2.19c0-.3-.03-.33-.33-.33-.18 0-.87.06-3.06.06h-3.69c-2.16 0-2.85-.06-3.059-.06-.3 0-.331.03-.331.33v2.19c0 .3.03.33.331.33.209 0 .9-.06 3.059-.06h.18a19.165 19.165 0 01-4.409 10.14 8.435 8.435 0 01.779 2.58c.06.39.151.57.33.57a.873.873 0 00.54-.42c.45-.57.9-1.17 1.32-1.77v4.14c0 4.32-.06 5.25-.06 5.43 0 .3.03.33.36.33h2.01c.33 0 .36-.03.36-.33v-2.52h2.61v.72c0 .33.03.36.33.36h2.01c.3 0 .33-.03.33-.36 0-.18-.06-1.02-.06-5.31v-3c0-2.94.06-3.84.06-4.05 0-.3-.03-.33-.33-.33-.21 0-.81.06-2.16.06h-2.88a28.225 28.225 0 001.77-6.24zm.33 8.88v6.66h-2.61v-6.66zm49.409-10.23c0-.27-.03-.3-.3-.3-.18 0-1.02.06-3.539.06h-6.66l.39-.78a4.066 4.066 0 01.57-.99.672.672 0 00.24-.45.411.411 0 00-.36-.36c-.96-.27-1.71-.45-2.64-.63a8.243 8.243 0 01-.57 1.83 16.679 16.679 0 01-3.96 5.58 3.217 3.217 0 01.15-1.05 2.217 2.217 0 00.24-.66.509.509 0 00-.51-.36 29.426 29.426 0 00-2.97-.21 26.867 26.867 0 01.21 3.87v9.63c0 2.64-.06 3.93-.06 4.11 0 .33.03.36.33.36h2.31c.3 0 .33-.03.33-.36 0-.18-.06-1.47-.06-4.11V94.47a4.865 4.865 0 011.26 1.11 1.117 1.117 0 00.63.54 1.512 1.512 0 00.66-.48c.51-.54.99-1.08 1.41-1.59a13.37 13.37 0 002.4 2.94 25.949 25.949 0 01-6.15 2.16 5.753 5.753 0 011.02 1.65c.24.54.33.75.63.75a2.559 2.559 0 00.63-.15 25.845 25.845 0 006.12-2.67 26.177 26.177 0 006.959 3.06 2.717 2.717 0 00.66.15c.27 0 .33-.21.54-.84a6.389 6.389 0 01.96-1.92 22.594 22.594 0 01-6.749-2.22 14.6 14.6 0 003.329-4.38c1.53.03 2.1.06 2.25.06.27 0 .3-.03.3-.36zm-5.669 2.22a11.237 11.237 0 01-2.52 2.91 13.091 13.091 0 01-2.7-2.91zm-18.63 17.01c0 2.94-.06 4.38-.06 4.56 0 .3.03.33.33.33h2.4c.3 0 .33-.03.33-.33 0-.15-.06-1.62-.06-4.56V94.35a39.578 39.578 0 001.8-4.32 3.156 3.156 0 01.6-1.26.626.626 0 00.3-.51c0-.24-.12-.33-.45-.45a17.354 17.354 0 00-2.82-.84 10.144 10.144 0 01-.48 2.1 28.532 28.532 0 01-5.429 9.57 8.58 8.58 0 01.99 2.58.6.6 0 00.329.54.952.952 0 00.54-.42q.9-1.08 1.71-2.16c-.03 1.35-.03 2.79-.03 3.9zm7.44 2.31a6.535 6.535 0 011.29 1.89c.21.45.3.6.57.6a4.484 4.484 0 00.66-.09 26.268 26.268 0 0013.319-6.57 5.5 5.5 0 01.96-.69.436.436 0 00.33-.39.567.567 0 00-.27-.42 16.937 16.937 0 00-2.28-1.59 6.493 6.493 0 01-1.079 1.32c-3.3 2.91-7.082 4.95-13.5 5.94zm1.05-4.41a6.159 6.159 0 011.26 1.68.725.725 0 00.54.57 2.662 2.662 0 00.72-.18 24.759 24.759 0 008.85-4.47 3.531 3.531 0 011.08-.66.377.377 0 00.27-.36.414.414 0 00-.24-.39 17.6 17.6 0 00-2.22-1.41 5.928 5.928 0 01-1.11 1.2 21.52 21.52 0 01-9.15 4.02zm6.99-7.5a4.7 4.7 0 01-1.11 1.05 20.96 20.96 0 01-6.45 2.64 6.709 6.709 0 011.23 1.5c.21.39.27.54.54.54a3.21 3.21 0 00.69-.15 22 22 0 006.24-3.06 3.411 3.411 0 01.99-.51.377.377 0 00.33-.33.4.4 0 00-.24-.36 19.708 19.708 0 00-2.22-1.32zm28.62 3c2.55-1.05 4.5-1.71 6.45-2.4a9.584 9.584 0 011.829-.45.435.435 0 00.45-.42 1.186 1.186 0 00-.24-.66 18.456 18.456 0 00-2.1-2.64 9.022 9.022 0 01-2.28 1.62c-1.53.78-3.24 1.56-4.41 2.1a3.313 3.313 0 00-3.66-3.24 5.969 5.969 0 00-3 .93l-.03-.06a30.958 30.958 0 002.25-3.33c2.19-.24 4.77-.57 7.02-.9.42-.06.54-.18.51-.48a10.115 10.115 0 00-.3-2.16c-.06-.27-.15-.36-.48-.3a48.261 48.261 0 01-5.46.93c.36-.81.51-1.2.69-1.62a2.337 2.337 0 01.51-.72.579.579 0 00.21-.45.538.538 0 00-.36-.51 18.943 18.943 0 00-3.42-.84 7.3 7.3 0 01-.21 1.83 23.117 23.117 0 01-.9 2.58 66.172 66.172 0 01-6.9.03c.09.9.21 2.01.3 2.49.06.33.15.48.42.48 1.77 0 3.39-.03 4.8-.09a30.656 30.656 0 01-6.27 7.44.418.418 0 00-.21.33.488.488 0 00.12.27 14.27 14.27 0 001.71 1.98.6.6 0 00.33.21.536.536 0 00.36-.27 40.427 40.427 0 013-3.27 7.243 7.243 0 014.14-2.16c1.35-.06 1.71.54 1.8 2.07-4.53 2.34-6.33 4.44-6.33 7.32 0 3.48 2.61 4.95 7.53 4.95a53.359 53.359 0 007.44-.39c.24 0 .36-.21.33-.57a13.426 13.426 0 00-.27-2.46.32.32 0 00-.42-.33 51.27 51.27 0 01-7.47.6c-3.15 0-4.17-.81-4.17-2.07 0-1.44.96-2.61 3.63-3.99-.03 1.08-.03 2.58-.03 3.66a.393.393 0 00.39.48 16.229 16.229 0 002.13-.15.527.527 0 00.57-.54v-4.83zm18.03-.54a7.917 7.917 0 00-1.59 4.29c0 3.9 3.39 6.06 10.32 6.06a47.616 47.616 0 008.79-.72c.36-.06.54-.18.51-.45a25.084 25.084 0 00-.48-2.94c-.06-.27-.21-.36-.63-.27a38.166 38.166 0 01-8.13.87c-5.16 0-7.11-.93-7.11-2.82a4.93 4.93 0 01.78-2.28.324.324 0 00-.15-.54 87.89 87.89 0 00-2.31-1.2zm.66-11.34c-.06 1.08-.12 1.95-.12 2.67a.447.447 0 00.39.54 35.9 35.9 0 005.52.51 18.318 18.318 0 002.19-.09c-1.05.63-2.37 1.47-3.93 2.49a7.168 7.168 0 012.1.96 1.26 1.26 0 00.63.18 1.278 1.278 0 00.75-.27 17.478 17.478 0 017.35-2.97.514.514 0 00.51-.63 17.511 17.511 0 00-.27-2.55.345.345 0 00-.45-.33c-1.92.15-4.05.27-6.24.27a37.846 37.846 0 01-8.43-.78zm15-1.44a14.886 14.886 0 013.03 3.48.313.313 0 00.51.09l1.259-.93a.3.3 0 00.09-.48 13.783 13.783 0 00-2.849-3.21.308.308 0 00-.45-.06zm2.76-1.98a14.188 14.188 0 013 3.45.308.308 0 00.51.09l1.2-.93a.347.347 0 00.09-.54 12.528 12.528 0 00-2.85-3.09.305.305 0 00-.449-.06zm22.35 26.7c.33 0 .36-.03.36-.36v-1.26h6.81v1.14c0 .27.03.3.33.3h2.309c.33 0 .36-.03.36-.3 0-.18-.06-1.02-.06-5.46v-3.09c0-2.25.06-3.15.06-3.3 0-.33-.03-.36-.36-.36-.179 0-1.049.06-3.509.06h-5.01c-2.49 0-3.33-.06-3.54-.06-.3 0-.33.03-.33.36 0 .15.06 1.05.06 3.78v2.7c0 4.5-.06 5.34-.06 5.49 0 .33.03.36.33.36zm.36-9.87h6.81v5.49H805.2v-5.49zm-7.68-7.29c-.42.15-.42.24-.3.54q.4.855.72 1.71c-1.08.09-2.19.18-3.27.24 1.41-1.8 3.03-4.11 4.56-6.51a3.571 3.571 0 01.99-1.23.464.464 0 00.33-.45.511.511 0 00-.36-.45 27.868 27.868 0 00-2.52-1.29 15.111 15.111 0 01-.9 2.04c-.66 1.14-1.32 2.25-2.04 3.36-.42-.51-.87-1.02-1.32-1.53.93-1.32 1.68-2.52 2.64-4.17a1.831 1.831 0 01.57-.72.556.556 0 00.27-.39.586.586 0 00-.39-.48 24.073 24.073 0 00-2.55-1.08 9.17 9.17 0 01-.69 1.86 25.217 25.217 0 01-1.65 3.09l-.81-.84a.5.5 0 00-.27-.18.468.468 0 00-.3.27l-1.02 1.56c-.209.33-.3.42-.029.63a45.181 45.181 0 013.989 4.35c-.57.78-1.14 1.56-1.71 2.28a23.737 23.737 0 01-2.49-.06c.12.96.271 1.8.421 2.52.059.3.149.51.36.51a1.132 1.132 0 00.479-.15 2.607 2.607 0 011.08-.24l2.64-.18v7.95c0 2.76-.06 3.75-.06 3.93 0 .3.03.33.33.33h2.28c.3 0 .33-.03.33-.33 0-.15-.06-1.17-.06-3.93v-8.22l1.89-.18.33 1.32c.06.33.15.36.51.24l1.53-.45c.39-.12.48-.21.39-.54a29.252 29.252 0 00-2.01-5.4c-.15-.3-.24-.36-.63-.21zm15.15-6.24c-.03 2.64-.3 5.04-.63 5.58a1.475 1.475 0 01-1.41.66 21.012 21.012 0 01-2.76-.24 7.2 7.2 0 01.63 2.01c.15.93.15.96.99.99.57.03 1.02.03 1.71.03a3.468 3.468 0 003.509-1.92c.54-1.2.81-3.96.9-7.38.03-.6.03-1.32.03-2.07 0-.33-.03-.39-.33-.39-.18 0-1.079.06-3.779.06h-6.36c-2.67 0-3.57-.06-3.78-.06-.3 0-.33.03-.33.36v2.07c0 .33.03.36.33.36.21 0 1.11-.06 3.78-.06h.27c-.3 3.69-1.98 5.76-5.19 7.32a5.137 5.137 0 011.56 1.56 1.071 1.071 0 00.63.66 1.845 1.845 0 00.69-.39 10.97 10.97 0 005.25-9.15zm-23.759 20.37a10.14 10.14 0 011.679.78 1.274 1.274 0 00.54.24c.18 0 .3-.18.45-.66a38.161 38.161 0 001.05-5.58 3.614 3.614 0 01.18-.99.8.8 0 00.15-.42c0-.15-.15-.27-.51-.36a22.815 22.815 0 00-2.31-.42 7.751 7.751 0 01-.03 1.68 24.449 24.449 0 01-1.199 5.73zm9.209-6.96c-.33.09-.42.15-.33.48a43.455 43.455 0 011.14 5.7c.03.3.09.33.54.18l1.44-.48c.39-.12.42-.21.39-.54a32.7 32.7 0 00-1.23-5.43c-.12-.33-.15-.36-.51-.27zm36.448-16.23a.625.625 0 00.3-.45.579.579 0 00-.51-.45 19.71 19.71 0 00-3.12-.63 8.157 8.157 0 01-1.05 2.19c-2.55 4.14-6.06 7.08-11.31 9.36a7.053 7.053 0 011.38 2.13 1.051 1.051 0 00.54.75 1.9 1.9 0 00.72-.33 28.128 28.128 0 0011.22-9.87 27.212 27.212 0 0011.76 9.81 2.36 2.36 0 00.69.27c.24 0 .33-.24.54-.78a8.847 8.847 0 011.29-2.37c-5.94-2.34-9.45-5.07-12.66-9.45zm-14.64 23.73a8.425 8.425 0 011.77 2.04.969.969 0 00.6.66 2.241 2.241 0 00.72-.3 11.687 11.687 0 005.34-4.26c1.17-1.92 1.68-4.2 1.68-8.4a8.9 8.9 0 01.18-2.43 1.892 1.892 0 00.15-.66c0-.21-.18-.33-.51-.36-.99-.09-2.28-.15-3.33-.15a21.65 21.65 0 01.21 3.51c0 3.21-.27 5.04-1.14 6.51-.93 1.59-2.88 2.94-5.67 3.84zm15.63-1.77c0 2.46-.06 3.66-.06 3.87 0 .27.03.3.33.3h2.67c.33 0 .36-.03.36-.3 0-.18-.06-1.41-.06-3.87v-7.59a21.119 21.119 0 01.15-3.24 3.325 3.325 0 00.15-.75.393.393 0 00-.45-.33c-.99-.12-2.13-.21-3.3-.24a31.253 31.253 0 01.21 4.59zm20.25-21.66a19.945 19.945 0 01.3 5.49c-.15 3.6-.42 7.92-.42 12.96 0 4.59 1.8 6.12 5.64 6.12a17.139 17.139 0 0011.37-4.5 1.25 1.25 0 00.6-.93 1.972 1.972 0 00-.24-.72 10.43 10.43 0 01-.69-2.85c-3.66 3.9-7.83 5.52-10.5 5.52-2.4 0-2.76-.69-2.76-3.72 0-3.93.15-6.99.45-11.61a17.982 17.982 0 01.42-3.66 2.91 2.91 0 00.3-.99c0-.3-.21-.45-.72-.57a31.028 31.028 0 00-3.75-.54zm35.76 17.07c-1.41-.12-2.13-.12-2.88-.12-3.63 0-6 1.83-6 4.26 0 2.49 2.22 4.2 6.12 4.2 4.11 0 6.06-1.32 6.09-4.56a23.8 23.8 0 015.97 3.42.46.46 0 00.33.15.441.441 0 00.39-.24 9.025 9.025 0 001.32-2.22.544.544 0 00-.21-.72 26.748 26.748 0 00-7.95-3.63c-.09-1.38-.15-2.85-.21-4.23a54.335 54.335 0 005.88-.72c.33-.03.45-.12.45-.42 0-.9-.06-1.89-.09-2.46-.03-.27-.12-.33-.48-.24-2.16.33-3.6.63-5.88.78 0-1.08-.03-2.19-.03-3.39a61.371 61.371 0 006.93-.78c.24-.03.33-.09.33-.48a16.029 16.029 0 00-.15-2.19c-.03-.36-.15-.45-.51-.36a50.481 50.481 0 01-6.57.9c.03-.9.03-1.32.06-1.92a3.856 3.856 0 01.45-1.44.611.611 0 00-.33-.9 17.383 17.383 0 00-3.78-.54 8.63 8.63 0 01.36 2.01c.03 1.02.06 1.8.06 2.91a68.589 68.589 0 01-7.86-.3c.06 1.23.12 1.95.21 2.7a.423.423 0 00.51.42 49.37 49.37 0 007.17.15c.03 1.14.03 2.31.06 3.45a42.21 42.21 0 01-6.75-.24 17.9 17.9 0 00.18 2.55c.03.39.15.51.48.51a53.12 53.12 0 006.18.12c.03 1.02.09 2.25.15 3.57zm.06 2.85a2.879 2.879 0 01-.33 1.68 3.705 3.705 0 01-2.73.9c-2.07 0-2.97-.57-2.97-1.35 0-.96 1.05-1.59 3.24-1.59a12.939 12.939 0 012.79.36zm31.08-15.9c-3.6.21-7.47.45-9.3.6a19.787 19.787 0 01-3.66.12 21.022 21.022 0 00.75 3.03.467.467 0 00.51.42c.27 0 .75-.27 1.41-.36 2.37-.33 6.6-.69 10.38-.9 0 .99.03 2.01.03 3.06a3.676 3.676 0 00-2.28-.6 4.371 4.371 0 00-4.53 4.5c0 2.88 1.8 4.59 4.17 4.59a3.463 3.463 0 002.82-1.2c-.54 2.52-2.64 5.04-6.15 6.6a6.686 6.686 0 012.28 1.2 1.7 1.7 0 00.9.45 2.86 2.86 0 001.17-.57 11.2 11.2 0 005.34-9.69 9.346 9.346 0 00-.45-2.97c-.03-1.83-.03-3.75-.03-5.58 3.12-.03 6.03-.03 9.15.06.36.03.51-.06.51-.39.03-.75.03-1.53 0-2.28-.03-.39-.09-.45-.45-.45-2.88 0-5.97.03-9.21.15.03-1.14.03-1.53.06-1.92a3.136 3.136 0 01.24-.87 1.265 1.265 0 00.27-.69.835.835 0 00-.84-.57 30.48 30.48 0 00-3.51-.42 9.533 9.533 0 01.36 2.19c.03.81.03 1.56.06 2.49zm-1.92 7.71a1.8 1.8 0 011.98 1.92 1.927 1.927 0 01-2.04 2.07 1.86 1.86 0 01-1.92-2.04 1.909 1.909 0 011.98-1.95zM377.5 38.42c-.96-4.41-4.08-7.08-8.849-7.08-6 0-10.11 4.38-10.11 12.09 0 7.68 4.08 12.03 10.11 12.03 4.739 0 7.739-2.13 8.969-6.93l-3.81-1.17c-.66 3.39-2.34 4.98-5.129 4.98-3.39 0-5.85-3.03-5.85-8.94 0-5.94 2.4-8.94 5.85-8.94 2.639 0 4.319 1.68 4.889 4.92zm12.57-7.05c-5.94 0-9.989 4.38-9.989 12.09 0 7.68 3.989 12.03 9.959 12.03s9.99-4.41 9.99-12.09c-.002-7.71-3.992-12.03-9.962-12.03zm0 3.12c3.42 0 5.67 2.97 5.67 8.94 0 5.94-2.25 8.94-5.67 8.94s-5.7-3-5.7-8.94c-.002-5.97 2.278-8.94 5.698-8.94zm22.29 9.99h-8.76v2.94h8.759v-2.94zm27.839-12.72h-6.6l-2.97 11.94c-.69 2.67-1.17 5.07-1.8 7.62h-.42c-.48-2.55-1.08-5.25-1.68-7.68l-2.94-11.88h-6.57v23.28h3.57v-11.7c0-2.88-.03-5.58-.09-8.28h.42c.69 2.85 1.26 5.37 1.98 8.07l3.06 11.91h4.74l3.15-12.06c.78-2.85 1.32-5.25 1.92-7.92h.42c-.03 2.76-.06 5.31-.06 8.22v11.76h3.871V31.76zm9.661 0h-4.08v23.28h4.08zm21.6 0h-17.882v3.27h6.87v20.01h4.08V35.03h6.929v-3.27zm17.76 5.28c-3.63 2.37-5.76 5.25-5.76 9.51 0 6.24 5.79 9.27 11.07 9.27.36 0 .48-.18.57-.63a10.672 10.672 0 00.33-2.58c0-.33-.18-.45-.66-.45-5.22-.33-7.98-2.43-7.98-6.3 0-3.6 2.55-7.11 7.65-8.85a13.386 13.386 0 013.66-.66c.39 0 .57-.09.57-.45a17.139 17.139 0 00-.33-2.64c-.03-.21-.18-.39-.63-.33-7.74 1.02-14.34 2.01-18.03 2.55a41.35 41.35 0 01-4.769.51 20.905 20.905 0 001.11 3.24.7.7 0 00.57.45 1.751 1.751 0 00.66-.24c.45-.15.75-.21 1.889-.48 3.21-.66 6.42-1.29 10.08-1.98zm4.35 4.29a14.886 14.886 0 013.03 3.48.313.313 0 00.51.09l1.26-.93a.3.3 0 00.09-.48 13.807 13.807 0 00-2.85-3.21.308.308 0 00-.45-.06zm2.76-1.98a14.192 14.192 0 013 3.45.308.308 0 00.51.09l1.2-.93a.347.347 0 00.09-.54 12.528 12.528 0 00-2.85-3.09.306.306 0 00-.45-.06zm25.32 8.16a12.519 12.519 0 00-2.4-.24c-3.03 0-5.25 1.77-5.25 4.23 0 2.58 1.92 4.2 5.37 4.2 3.54 0 5.25-1.38 5.49-3.9a17.815 17.815 0 013.24 2.4.415.415 0 00.27.15.363.363 0 00.27-.18 16.207 16.207 0 001.38-2.31c.15-.33.12-.42-.15-.6a19.633 19.633 0 00-4.98-2.88c-.15-2.58-.21-4.68-.21-8.04a33.806 33.806 0 004.62-.63.39.39 0 00.33-.45 11.993 11.993 0 00-.18-2.13c-.06-.33-.12-.45-.48-.36-1.29.21-2.85.42-4.26.54 0-1.38 0-2.16.06-3.18a3.384 3.384 0 01.24-1.05 1.287 1.287 0 00.18-.51.576.576 0 00-.54-.51 16.7 16.7 0 00-3.63-.57 12.367 12.367 0 01.39 2.94c0 1.11.03 2.07.03 3.15a43.4 43.4 0 01-6.84-.09 18.379 18.379 0 00.21 2.73c.03.3.15.39.54.39a60.664 60.664 0 006.18.03c.027 2.37.057 4.56.117 6.87zm.06 2.85a4.225 4.225 0 01.03.6c0 1.08-.96 1.95-2.46 1.95-1.77 0-2.43-.57-2.43-1.5s.84-1.44 2.25-1.44a8.356 8.356 0 012.607.39zm-13.919-18.81a15.1 15.1 0 01-.21 3.54 65.165 65.165 0 00-1.23 11.37 27.945 27.945 0 001.29 9.15c.15.42.27.45.6.36a12.564 12.564 0 002.25-.51c.27-.09.39-.18.36-.39a5.665 5.665 0 01.03-1.59 17.782 17.782 0 011.53-4.56.871.871 0 00.18-.48.648.648 0 00-.18-.42 7.978 7.978 0 01-1.05-1.89c-.63 1.5-1.26 2.79-1.86 4.17-.09-1.26-.09-2.64-.09-3.84a59.572 59.572 0 011.5-10.92 6.088 6.088 0 01.54-1.65 1.532 1.532 0 00.21-.66.67.67 0 00-.45-.6 23.447 23.447 0 00-3.423-1.08z" fill="#313131"/><path d="M10.9 136v-2.05H446V136zm459.085 0v-2.02h503V136zM12.229 63.91V62h309.64v1.91zm310-62V0h248.64v1.91zm249 62V62H971.87v1.91z" opacity=".38"/><path d="M11 62h2v73h-2zm960 0h2v73h-2zM569 1h2v63h-2zM322 1h2v63h-2zm122.308 134.72l1.384-1.44 24 23-1.384 1.44z" fill="#9e9e9e"/><path d="M546.989 12.7l1.62 1.42-12.536 14.33-1.62-1.42zm8.958 22.41l.143 2.15-19 1.27-.144-2.15zm-30.84-29.96l2.148-.15 1.27 19-2.147.14z" fill="#393939"/></g></svg>