<svg xmlns="http://www.w3.org/2000/svg" width="17.385" height="15.279" viewBox="0 0 17.385 15.279">
  <g id="グループ_215" data-name="グループ 215" transform="translate(-260.329 -423.499)">
    <path id="パス_96" data-name="パス 96" d="M281.4,450.468l-.41-.346a2.512,2.512,0,0,0-.521,1.159l.526.1a1.987,1.987,0,0,1,.4-.912" transform="translate(-11.163 -14.756)" fill="#00b2b0"/>
    <path id="パス_97" data-name="パス 97" d="M284.095,448.539l-.316-.433a1.854,1.854,0,0,1-.539.264,2.143,2.143,0,0,0-.473.208l.274.46a1.64,1.64,0,0,1,.357-.157,2.349,2.349,0,0,0,.7-.343" transform="translate(-12.437 -13.639)" fill="#00b2b0"/>
    <path id="パス_98" data-name="パス 98" d="M286.1,445.242a1.746,1.746,0,0,1-.3.932l.438.309a2.282,2.282,0,0,0,.4-1.219Z" transform="translate(-14.118 -12.052)" fill="#00b2b0"/>
    <path id="パス_99" data-name="パス 99" d="M271.967,452.151a2.762,2.762,0,0,0-.456-1.074l-.439.307h0a2.218,2.218,0,0,1,.369.866Z" transform="translate(-5.955 -15.286)" fill="#00b2b0"/>
    <path id="パス_100" data-name="パス 100" d="M268.852,448.576l-.262.467a3.715,3.715,0,0,1,.794.587l.378-.381a4.254,4.254,0,0,0-.91-.673" transform="translate(-4.579 -13.9)" fill="#00b2b0"/>
    <path id="パス_101" data-name="パス 101" d="M277.707,448.308l-.3-.649-3.074-6.773H270.05c-.058.1-.11.2-.171.3-.165.283-.318.538-.46.769h2.372l0,0a.857.857,0,0,1,.153.36l.522-.119a2.049,2.049,0,0,0-.075-.245h1.26l2.445,5.387h-6.739l.448-.069v0a3.018,3.018,0,0,1-.024-.4c0-.028,0-.056,0-.085l-.535-.012c0,.033,0,.066,0,.1a3.632,3.632,0,0,0,.029.471h-3.222c.008-.087.014-.173.015-.257l-.536-.007c0,.085-.008.174-.018.264h-3.558l1.314-2.9c.078.027.179.064.3.113l.209-.492c-.107-.046-.2-.082-.282-.11l.908-2h1.319c-.141-.231-.294-.486-.46-.769-.061-.1-.114-.2-.172-.3h-1.379l-3.37,7.422a.076.076,0,0,0,.07.107h17.232a.075.075,0,0,0,.07-.107" transform="translate(0 -9.637)" fill="#00b2b0"/>
    <path id="パス_102" data-name="パス 102" d="M272.127,434.013c.17,0,3.57-4.971,3.57-6.943a3.571,3.571,0,0,0-7.141,0c0,1.972,3.4,6.943,3.571,6.943m-1.366-6.943a1.366,1.366,0,1,1,1.366,1.366,1.366,1.366,0,0,1-1.366-1.366" transform="translate(-4.56 0)" fill="#00b2b0"/>
  </g>
</svg>
