<svg xmlns="http://www.w3.org/2000/svg" width="21.492" height="26.612" viewBox="0 0 21.492 26.612">
  <path id="パス_191" data-name="パス 191" d="M23.05.841A64.162,64.162,0,0,0,2.44.825,2.916,2.916,0,0,0,.034,4.138Q.352,6.2.667,8.264A1.347,1.347,0,0,0,2.18,9.391L6.367,8.8A1.342,1.342,0,0,0,7.508,7.268l-.4-2.616a59.117,59.117,0,0,1,11.285.042L18,7.271A1.341,1.341,0,0,0,19.139,8.8l4.184.591a1.346,1.346,0,0,0,1.513-1.128q.318-2.053.633-4.113A2.916,2.916,0,0,0,23.05.841Z" transform="matrix(-0.53, -0.848, 0.848, -0.53, 13.514, 26.612)" fill="#343b4a" fill-rule="evenodd"/>
</svg>
