<svg xmlns="http://www.w3.org/2000/svg" width="33" height="33" viewBox="0 0 33 33">
  <path id="パス_140" data-name="パス 140" d="M248.891,392.055h24.585a.836.836,0,0,1,.836.831v22.5a.836.836,0,0,1-.836.831H248.891a.835.835,0,0,1-.831-.831v-22.5a.835.835,0,0,1,.831-.831Zm-1.373-3.338a2.836,2.836,0,0,0-2.832,2.832v27.336a2.837,2.837,0,0,0,2.832,2.832h27.336a2.84,2.84,0,0,0,2.832-2.832V391.549a2.839,2.839,0,0,0-2.832-2.832ZM274.56,390.9H247.812a.946.946,0,0,0-.944.944v26.749a.946.946,0,0,0,.944.944H274.56a.947.947,0,0,0,.944-.944V391.843a.946.946,0,0,0-.944-.944Zm-1.915,18.645V393.717H249.722v11.5l.248-.181a2.168,2.168,0,0,1,2.62.041l7.173,5.624a2.165,2.165,0,0,0,2.516.108l5.4-3.46a2.172,2.172,0,0,1,2.579.167l2.385,2.028Zm-7.353-13.618a4.262,4.262,0,1,0,4.259,4.264A4.266,4.266,0,0,0,265.292,395.926Z" transform="translate(-244.686 -388.717)" fill="#00b2b0" fill-rule="evenodd"/>
</svg>
