<svg xmlns="http://www.w3.org/2000/svg" width="18.078" height="18.077" viewBox="0 0 18.078 18.077">
  <path id="パス_87" data-name="パス 87" d="M356.771,421.3a8.187,8.187,0,0,1,1.779,1.339l.029.032a8.154,8.154,0,0,1,1.309,1.75,2.06,2.06,0,0,1-.345,2.482l0,0h0L349.3,437.144a.5.5,0,0,1-.246.136l-6.308,1.806a.525.525,0,0,1-.649-.649l1.809-6.308a.488.488,0,0,1,.144-.251l10.235-10.235a2.069,2.069,0,0,1,2.485-.347ZM344.1,435.274a6.072,6.072,0,0,1,1.867,1.8l2.335-.671-.387-1.638-1.988.182-.083.005h0a.518.518,0,0,1-.537-.243l-.716-1.159-.492,1.726Zm14.993-10-9.874,9.874.075.51,9.508-9.506h0a1.037,1.037,0,0,0,.3-.582,1,1,0,0,0-.005-.3Zm-13.326,8.17,10.954-10.954c-.15-.1-.3-.19-.459-.278a1.033,1.033,0,0,0-.647-.125,1.02,1.02,0,0,0-.582.3l-9.949,9.949Z" transform="translate(-342.078 -421.031)" fill="#00b2b0" fill-rule="evenodd"/>
</svg>
