<svg xmlns="http://www.w3.org/2000/svg" width="18.338" height="18.341" viewBox="0 0 18.338 18.341">
  <path id="パス_168" data-name="パス 168" d="M512.189,275.885a9.171,9.171,0,1,0,9.168,9.17,9.17,9.17,0,0,0-9.168-9.17Zm2.157,7.923h.983v1.11h-1.621l-.556.942h2.177v1.1h-2.5v2.459h-1.349v-2.459h-2.423v-1.1h2.1l-.523-.942h-1.575v-1.11H510l-1.278-2.23h1.644l1.8,3.351,1.821-3.351h1.667l-1.308,2.23Zm-2.157-5.784a7.03,7.03,0,1,1-7.032,7.032,7.03,7.03,0,0,1,7.032-7.032Zm0-.935a7.965,7.965,0,1,1-7.966,7.966A7.968,7.968,0,0,1,512.189,277.089Z" transform="translate(-503.018 -275.885)" fill="#00b2b0" fill-rule="evenodd"/>
</svg>
