<svg xmlns="http://www.w3.org/2000/svg" width="18.871" height="17.969" viewBox="0 0 18.871 17.969">
  <path id="パス_167" data-name="パス 167" d="M415.291,478.024a2.964,2.964,0,0,1-2.216-1.375,5.1,5.1,0,0,1-.993-2.909v-.026l0-.013c0-.067,0-.137,0-.206,0-2.479-.428-4.489,3.209-4.489s3.209,2.01,3.209,4.489c0,.07,0,.139,0,.206l0,.013v.026a5.1,5.1,0,0,1-.993,2.909,2.965,2.965,0,0,1-2.214,1.375Zm5.6.369a1.914,1.914,0,0,0,1.436-.891,3.3,3.3,0,0,0,.641-1.884V475.6l0-.009c0-.043,0-.089,0-.133,0-1.445.226-2.644-1.449-2.87a3.35,3.35,0,0,0-.628-.056,3.306,3.306,0,0,0-.619.056c-1.682.222-1.458,1.423-1.458,2.87,0,.044,0,.089,0,.133l0,.009v.015a3.3,3.3,0,0,0,.643,1.884,1.921,1.921,0,0,0,1.434.891Zm-1.2-1.062a3,3,0,0,1-.587-1.695l.12-.48a2.229,2.229,0,0,0,.048-.482.907.907,0,0,1,.117-.532c.083-.259,2.972-.265,3,0a.892.892,0,0,1,.12.532,1.984,1.984,0,0,0,.048.482l.117.48a3.014,3.014,0,0,1-.584,1.695,1.32,1.32,0,0,1-2.4,0Zm-10.006,1.063a1.911,1.911,0,0,0,1.434-.891,3.285,3.285,0,0,0,.643-1.884V475.6l0-.009c0-.043,0-.089,0-.133,0-1.462.228-2.672-1.508-2.877a3.4,3.4,0,0,0-.591-.05,3.141,3.141,0,0,0-.658.065c-1.616.243-1.4,1.43-1.4,2.862l0,.133v.024a3.3,3.3,0,0,0,.641,1.884,1.922,1.922,0,0,0,1.434.891Zm-1.2-1.062a3.015,3.015,0,0,1-.584-1.695l.12-.48a2.1,2.1,0,0,0,.048-.482.907.907,0,0,1,.117-.532c.083-.259,2.975-.265,3,0a.908.908,0,0,1,.117.532,1.987,1.987,0,0,0,.05.482l.117.48a3.015,3.015,0,0,1-.584,1.695,1.321,1.321,0,0,1-2.4,0Zm7.453,2.851a.121.121,0,0,0,0-.124.114.114,0,0,0-.106-.061h-1.076a.114.114,0,0,0-.106.061.131.131,0,0,0,0,.124l.361.669a.33.33,0,0,1,.046.189l-.326,3.852a26.156,26.156,0,0,1-2.123-5.756c-1.9.419-3.359,1.317-3.359,2.7v3.954a1.188,1.188,0,0,0,1.189,1.186h9.673a1.188,1.188,0,0,0,1.189-1.186v-3.954c0-1.38-1.458-2.279-3.361-2.7a25.871,25.871,0,0,1-2.09,5.691l-.317-3.787a.312.312,0,0,1,.043-.189l.361-.669Zm8.774,3.085,0-2.542c0-1.6-3.1-2.179-5.352-1.743a3.817,3.817,0,0,1,2.344,2.012,2.411,2.411,0,0,1,.15.839v2.075h2.216a.642.642,0,0,0,.639-.641Zm-18.868,0v-2.542c0-1.6,3.1-2.179,5.349-1.743A3.836,3.836,0,0,0,408.851,481a2.44,2.44,0,0,0-.148.837v2.075h-2.216a.64.64,0,0,1-.639-.641Zm7.59-6.888a2.035,2.035,0,0,0,3.7,0,4.613,4.613,0,0,0,.906-2.618l-.183-.737a3.275,3.275,0,0,1-.076-.745,1.4,1.4,0,0,0-.18-.823c-.272-.374-.7-.252-1.2-.109a3.187,3.187,0,0,1-2.234,0h0c-.5-.143-.93-.265-1.2.109a1.4,1.4,0,0,0-.18.823,3.4,3.4,0,0,1-.074.745l-.185.737A4.626,4.626,0,0,0,413.437,476.379Z" transform="translate(-405.848 -469.005)" fill="#00b2b0" fill-rule="evenodd"/>
</svg>
