<svg xmlns="http://www.w3.org/2000/svg" width="17.289" height="17.288" viewBox="0 0 17.289 17.288">
  <g id="グループ_214" data-name="グループ 214" transform="translate(-1160.479 -92.985)">
    <path id="パス_1" data-name="パス 1" d="M1166.72,96.885a2.617,2.617,0,0,0-2.614,2.615.363.363,0,1,0,.725,0,1.891,1.891,0,0,1,1.888-1.889.363.363,0,0,0,0-.725" transform="translate(-0.412 -0.442)" fill="#ffffff"/>
    <path id="パス_2" data-name="パス 2" d="M1172.692,103.166a6.623,6.623,0,0,0-9.141-9.146,6.674,6.674,0,0,0-2.036,2.038,6.622,6.622,0,0,0,9.141,9.145,6.7,6.7,0,0,0,2.036-2.037m-3.441.632a4.706,4.706,0,0,1-6.333-6.335,4.742,4.742,0,0,1,2.037-2.036,4.7,4.7,0,0,1,6.33,6.334,4.73,4.73,0,0,1-2.035,2.038" transform="translate(0 0)" fill="#ffffff"/>
    <path id="パス_3" data-name="パス 3" d="M1178.754,109.222l-3.825-3.816a7.861,7.861,0,0,1-2.036,2.038l3.824,3.816a1.441,1.441,0,1,0,2.036-2.038" transform="translate(-1.408 -1.409)" fill="#ffffff"/>
  </g>
</svg>
