<svg xmlns="http://www.w3.org/2000/svg" width="32" height="32" viewBox="0 0 32 32">
  <path id="パス_80" data-name="パス 80" d="M446.958,184.375h-22a5,5,0,0,0-5,5v22a5,5,0,0,0,5,5h22a5,5,0,0,0,5-5v-22A5,5,0,0,0,446.958,184.375Zm-4.638,12.739c.007.14.01.281.01.424a9.337,9.337,0,0,1-14.372,7.865,6.774,6.774,0,0,0,.783.045,6.577,6.577,0,0,0,4.076-1.4,3.284,3.284,0,0,1-3.065-2.279,3.283,3.283,0,0,0,1.481-.056,3.286,3.286,0,0,1-2.632-3.219v-.041a3.269,3.269,0,0,0,1.487.41,3.288,3.288,0,0,1-1.016-4.383,9.318,9.318,0,0,0,6.766,3.43,3.285,3.285,0,0,1,5.594-2.994,6.587,6.587,0,0,0,2.085-.8,3.3,3.3,0,0,1-1.444,1.815,6.543,6.543,0,0,0,1.885-.515A6.648,6.648,0,0,1,442.32,197.114Z" transform="translate(-419.958 -184.375)" fill="#1da1f2"/>
</svg>
