<svg xmlns="http://www.w3.org/2000/svg" width="6.701" height="7.917" viewBox="0 0 6.701 7.917">
  <path id="パス_14" data-name="パス 14" d="M1099.794,1461.128a2.914,2.914,0,0,0,.035-.41l-.012-.186a1.746,1.746,0,0,1,.48-1.269,3.841,3.841,0,0,1,1.1-.732c.762-.42,1.03-.723,1.03-1.172,0-.6-.62-.966-1.616-.966a1.776,1.776,0,0,0-1.405.556,1.269,1.269,0,0,0-.281.743l-1.734-.176a2.383,2.383,0,0,1,.925-1.475,4.311,4.311,0,0,1,2.589-.682,4.183,4.183,0,0,1,2.355.586,1.6,1.6,0,0,1,.833,1.366,1.63,1.63,0,0,1-.41,1.152,4.666,4.666,0,0,1-1.442,1.005c-.726.41-.913.644-.913,1.162a3.81,3.81,0,0,0,.035.5Zm1.627,2.147h-1.7v-1.337h1.7Z" transform="translate(-1097.392 -1455.359)" fill="#fff"/>
</svg>
