<svg xmlns="http://www.w3.org/2000/svg" width="18.078" height="16.323" viewBox="0 0 18.078 16.323">
  <path id="パス_90" data-name="パス 90" d="M408.977,440.029v-1.508a.458.458,0,0,0-.456-.456H391.355a.458.458,0,0,0-.456.456v1.508a.458.458,0,0,0,.456.456h17.167a.458.458,0,0,0,.456-.456Zm-.456,14.36a.458.458,0,0,0,.456-.456v-1.511a.455.455,0,0,0-.456-.453H391.355a.455.455,0,0,0-.456.453v1.511a.458.458,0,0,0,.456.456Zm0-4.839a.458.458,0,0,0,.456-.456v-1.508a.458.458,0,0,0-.456-.456H391.355a.458.458,0,0,0-.456.456v1.508a.458.458,0,0,0,.456.456Zm.456-4.988v-1.508a.458.458,0,0,0-.456-.456H391.355a.458.458,0,0,0-.456.456v1.508a.461.461,0,0,0,.456.459h17.167A.461.461,0,0,0,408.977,444.561Z" transform="translate(-390.899 -438.065)" fill="#00b2b0" fill-rule="evenodd"/>
</svg>
