<svg xmlns="http://www.w3.org/2000/svg" width="32" height="32" viewBox="0 0 32 32">
  <g id="グループ_276" data-name="グループ 276" transform="translate(-237.609 -358)">
    <path id="パス_81" data-name="パス 81" d="M494.763,184.375h-22a5,5,0,0,0-5,5v22a5,5,0,0,0,5,5h22a5,5,0,0,0,5-5v-22A5,5,0,0,0,494.763,184.375Zm-1.6,21.107a38.55,38.55,0,0,1-9.4,6.946c-1.276.538-1.087-.342-1.036-.644.031-.18.17-1.024.17-1.024a2.456,2.456,0,0,0-.038-1.082c-.134-.334-.665-.506-1.053-.59-5.748-.76-10.005-4.779-10.005-9.578,0-5.353,5.366-9.708,11.962-9.708s11.964,4.355,11.964,9.708A8.639,8.639,0,0,1,493.161,205.482Z" transform="translate(-230.153 173.625)" fill="#00b900"/>
    <path id="長方形_206" data-name="長方形 206" d="M.231,0h.84A.233.233,0,0,1,1.3.233V5.444a.233.233,0,0,1-.233.233H.232A.232.232,0,0,1,0,5.445V.231A.231.231,0,0,1,.231,0Z" transform="translate(250.106 370.549)" fill="#00b900"/>
    <path id="パス_83" data-name="パス 83" d="M487.107,196.924h-.838a.232.232,0,0,0-.234.231v3.1l-2.389-3.225a.175.175,0,0,0-.017-.024l0,0-.015-.014,0-.005-.012-.009-.005-.005-.013-.008-.007-.005-.013-.007-.006,0-.014-.005-.008,0-.013,0h-.008l-.014,0h-.01l-.012,0h-.859a.232.232,0,0,0-.233.231v5.213a.235.235,0,0,0,.233.234h.839a.235.235,0,0,0,.233-.234v-3.1l2.392,3.23a.255.255,0,0,0,.06.058h0l.014.008.007,0,.012.007.012.005h.005l.015.007h.006a.209.209,0,0,0,.059.009h.838a.236.236,0,0,0,.234-.234v-5.213A.233.233,0,0,0,487.107,196.924Zm-2.385,2.276H484.7a.243.243,0,0,0,.023-.033Z" transform="translate(-230.153 173.625)" fill="#00b900"/>
    <path id="パス_85" data-name="パス 85" d="M479.309,201.3H477.03v-4.141a.232.232,0,0,0-.233-.231h-.841a.23.23,0,0,0-.231.231v5.213a.229.229,0,0,0,.064.161l0,0,0,0a.229.229,0,0,0,.16.067h3.353a.234.234,0,0,0,.233-.234v-.839A.232.232,0,0,0,479.309,201.3Z" transform="translate(-230.153 173.625)" fill="#00b900"/>
    <path id="パス_86" data-name="パス 86" d="M491.741,196.924h-3.352a.239.239,0,0,0-.162.063l0,0,0,.005a.231.231,0,0,0-.064.159v5.213a.234.234,0,0,0,.064.161l0,0,0,0a.238.238,0,0,0,.162.067h3.352a.234.234,0,0,0,.233-.234v-.839a.232.232,0,0,0-.233-.233h-2.279v-.882h2.279a.232.232,0,0,0,.233-.233v-.839a.233.233,0,0,0-.233-.233h-2.279v-.88h2.279a.233.233,0,0,0,.233-.233v-.841A.232.232,0,0,0,491.741,196.924Z" transform="translate(-230.153 173.625)" fill="#00b900"/>
  </g>
</svg>
