<svg id="グループ_217" data-name="グループ 217" xmlns="http://www.w3.org/2000/svg" width="17.821" height="17.821" viewBox="0 0 17.821 17.821">
  <path id="パス_6" data-name="パス 6" d="M1235.509,807.868h-14.1a1.358,1.358,0,0,0-1.356,1.356v14.1a1.357,1.357,0,0,0,1.356,1.355h14.1a1.356,1.356,0,0,0,1.356-1.355v-14.1A1.357,1.357,0,0,0,1235.509,807.868Zm.814,15.456a.814.814,0,0,1-.814.812h-14.1a.814.814,0,0,1-.814-.812v-14.1a.815.815,0,0,1,.814-.814h14.1a.815.815,0,0,1,.814.814Z" transform="translate(-1219.549 -807.363)" fill="#00b2b0"/>
  <path id="パス_7" data-name="パス 7" d="M1235.514,807.873v-.5h-14.1a1.863,1.863,0,0,0-1.861,1.861v14.1a1.863,1.863,0,0,0,1.861,1.86h14.1a1.862,1.862,0,0,0,1.861-1.86v-14.1a1.862,1.862,0,0,0-1.861-1.861v1.01a.855.855,0,0,1,.851.851v14.1a.854.854,0,0,1-.851.85h-14.1a.856.856,0,0,1-.851-.85v-14.1a.857.857,0,0,1,.851-.851h14.1Zm.814,15.456h-.505a.31.31,0,0,1-.309.307h-14.1a.31.31,0,0,1-.309-.307v-14.1a.311.311,0,0,1,.309-.309h14.1a.311.311,0,0,1,.309.309v14.1h1.01v-14.1a1.319,1.319,0,0,0-1.319-1.319h-14.1a1.32,1.32,0,0,0-1.319,1.319v14.1a1.319,1.319,0,0,0,1.319,1.317h14.1a1.319,1.319,0,0,0,1.319-1.317Z" transform="translate(-1219.554 -807.368)" fill="#00b2b0"/>
  <path id="パス_8" data-name="パス 8" d="M1224.292,810.822h-.542v5.151h-1.084v.542h1.084v5.153h.542v-5.153h1.085v-.542h-1.085Z" transform="translate(-1219.524 -807.335)" fill="#00b2b0"/>
  <path id="パス_9" data-name="パス 9" d="M1224.3,810.827v-.5h-.542a.506.506,0,0,0-.5.5v4.646h-.58a.5.5,0,0,0-.5.5v.542a.5.5,0,0,0,.5.5h.58v4.649a.506.506,0,0,0,.5.5h.542a.5.5,0,0,0,.5-.5v-4.649h.581a.5.5,0,0,0,.5-.5v-.542a.5.5,0,0,0-.5-.5h-.581v-4.646a.5.5,0,0,0-.5-.5v.5h-.5v5.151a.507.507,0,0,0,.5.5h.581v.037h.5v-.5H1224.3a.5.5,0,0,0-.5.5v4.649h-.037v.5h.5V816.52a.5.5,0,0,0-.5-.5h-.579v-.037h-.5v.5h1.084a.5.5,0,0,0,.5-.5v-4.646h.037v-.5h0Z" transform="translate(-1219.529 -807.339)" fill="#00b2b0"/>
  <path id="パス_10" data-name="パス 10" d="M1228.663,810.822h-.542v7.862h-1.085v.542h1.085v2.441h.542v-2.441h1.085v-.542h-1.085Z" transform="translate(-1219.482 -807.335)" fill="#00b2b0"/>
  <path id="パス_11" data-name="パス 11" d="M1228.667,810.827v-.5h-.542a.507.507,0,0,0-.5.5v7.357h-.579a.507.507,0,0,0-.5.5v.543a.507.507,0,0,0,.5.5h.579v1.937a.507.507,0,0,0,.5.5h.542a.5.5,0,0,0,.5-.5v-1.937h.581a.507.507,0,0,0,.5-.5v-.543a.507.507,0,0,0-.5-.5h-.581v-7.357a.5.5,0,0,0-.5-.5v.5h-.5v7.862a.505.505,0,0,0,.5.5h.581v.038h.5v-.5h-1.086a.505.505,0,0,0-.5.5v1.937h-.037v.5h.5v-2.441a.5.5,0,0,0-.5-.5h-.58v-.038h-.5v.5h1.084a.5.5,0,0,0,.5-.5v-7.357h.037v-.5h0Z" transform="translate(-1219.486 -807.339)" fill="#00b2b0"/>
  <path id="パス_12" data-name="パス 12" d="M1233.034,810.822h-.542v2.439h-1.085v.542h1.085v7.865h.542V813.8h1.085v-.542h-1.085Z" transform="translate(-1219.439 -807.335)" fill="#00b2b0"/>
  <path id="パス_13" data-name="パス 13" d="M1233.039,810.827v-.5h-.543a.506.506,0,0,0-.5.5v1.934h-.58a.507.507,0,0,0-.505.5v.542a.505.505,0,0,0,.505.5h.58v7.36a.506.506,0,0,0,.5.5h.543a.506.506,0,0,0,.5-.5v-7.36h.579a.5.5,0,0,0,.357-.147.5.5,0,0,0,.148-.357v-.542a.507.507,0,0,0-.5-.5h-.579v-1.934a.506.506,0,0,0-.5-.5v.5h-.5v2.439a.5.5,0,0,0,.5.5h.58v.037h.5v-.5h-1.084a.5.5,0,0,0-.5.5v7.361h-.038v.5h.5v-7.865a.505.505,0,0,0-.5-.5h-.579v-.037h-.5v.5h1.084a.5.5,0,0,0,.5-.5v-1.935h.038v-.5h0Z" transform="translate(-1219.444 -807.339)" fill="#00b2b0"/>
</svg>
