<svg xmlns="http://www.w3.org/2000/svg" width="45" height="44.114" viewBox="0 0 45 44.114">
  <path id="パス_92" data-name="パス 92" d="M419.965,256.732l1.761,1.761a1.036,1.036,0,0,1,0,1.461l-11.2,11.2a1.013,1.013,0,0,1-1.059.249l-2.635-.88a1.006,1.006,0,0,1-.676-.74,1,1,0,0,1,.274-.97L418.5,256.732a1.036,1.036,0,0,1,1.461,0Zm17.016-28.647-.23.2a4.205,4.205,0,0,0-1.1,4.524,4.01,4.01,0,0,1-1.2,4.664c-1.7,1.346-7.146,6.865-9.181,5.723-4.428-2.488-9.7-.612-12.71,2.118a1,1,0,0,0-.344.74,1.029,1.029,0,0,0,.306.759l19.122,19.122a.978.978,0,0,0,.753.3.988.988,0,0,0,.74-.338c2.731-3.011,4.613-8.288,2.125-12.716-1.142-2.035,4.377-7.471,5.717-9.175a4.006,4.006,0,0,1,4.664-1.2,4.046,4.046,0,0,0,1.576.249,3.992,3.992,0,0,0,2.948-1.359l.217-.23c3.956-4.37-9.022-17.348-13.4-13.386Zm-9.768,19.645c-6.125-6.125-9.207-2.68-7.8-1.276l9.137,9.13c1.225,1.231,4.791-1.729-1.334-7.854ZM443.176,230.7c3.452,2.316,3.107,3.535,1.927,4.479s-7.21-4.556-6.406-5.742S441.684,229.7,443.176,230.7Z" transform="translate(-406.12 -227.342)" fill="#00b2b0" fill-rule="evenodd"/>
</svg>
