<svg xmlns="http://www.w3.org/2000/svg" width="31.553" height="31.449" viewBox="0 0 31.553 31.449">
  <path id="パス_139" data-name="パス 139" d="M376.485,421.043h26.829a2.367,2.367,0,0,1,2.362,2.358v26.73a2.368,2.368,0,0,1-2.362,2.362H376.485a2.368,2.368,0,0,1-2.362-2.362V423.4a2.367,2.367,0,0,1,2.362-2.358Zm26.06,22.161h-6.209v6.167h5.847a.365.365,0,0,0,.363-.363v-5.8Zm-9.336,0h-6.62v6.167h6.62V443.2Zm-9.746,0h-6.21v5.8a.365.365,0,0,0,.363.363h5.847V443.2Zm-6.21-12.872h6.21v-6.162h-5.847a.365.365,0,0,0-.363.363v5.8Zm9.336,0h6.62v-6.162h-6.62v6.162Zm9.746,0h6.209v-5.8a.365.365,0,0,0-.363-.363h-5.847v6.162Zm6.209,3.126h-6.209v6.62h6.209v-6.62Zm-9.336,0h-6.62v6.62h6.62v-6.62Zm-9.746,0h-6.21v6.62h6.21Z" transform="translate(-374.123 -421.043)" fill="#00b2b0" fill-rule="evenodd"/>
</svg>
