<svg xmlns="http://www.w3.org/2000/svg" width="10.655" height="11.456" viewBox="0 0 10.655 11.456">
  <path id="集中できる環境で研修したい" d="M5.472-8.688a6.583,6.583,0,0,1,.176-1.984,1.222,1.222,0,0,0,.08-.336.307.307,0,0,0-.256-.3,16.279,16.279,0,0,0-2.08-.352A15.131,15.131,0,0,1,3.568-8.88L3.536-2.864a3.156,3.156,0,0,1-.064.912.649.649,0,0,0-.08.272.392.392,0,0,0,.1.256A4.935,4.935,0,0,0,4.464-.336a.427.427,0,0,0,.272.128.464.464,0,0,0,.288-.128,3.69,3.69,0,0,1,.9-.512A35.8,35.8,0,0,0,9.84-2.832a25.889,25.889,0,0,0,4-2.752.505.505,0,0,0,.16-.64,7.2,7.2,0,0,1-.256-1.856A19.772,19.772,0,0,1,9.5-4.816,26.309,26.309,0,0,1,5.424-2.8Z" transform="translate(-3.392 11.664)" fill="#008faf"/>
</svg>
