<svg xmlns="http://www.w3.org/2000/svg" width="16.055" height="19.143" viewBox="0 0 16.055 19.143">
  <g id="グループ_244" data-name="グループ 244" transform="translate(-1191.041 -669.109)">
    <path id="パス_4" data-name="パス 4" d="M1207.005,672.287l-3.088-3.086a.3.3,0,0,0-.217-.092H1191.35a.309.309,0,0,0-.309.309v18.523a.31.31,0,0,0,.309.31h15.437a.31.31,0,0,0,.309-.31V672.506A.306.306,0,0,0,1207.005,672.287Z" transform="translate(0 0)" fill="#00b2b0"/>
    <path id="パス_5" data-name="パス 5" d="M1206.479,687.635h-14.82V669.727h11.732v2.779a.308.308,0,0,0,.309.308h2.779Zm.526-15.348-3.088-3.086a.3.3,0,0,0-.217-.092H1191.35a.309.309,0,0,0-.309.309v18.523a.31.31,0,0,0,.309.31h15.437a.31.31,0,0,0,.309-.31V672.506A.306.306,0,0,0,1207.005,672.287Zm-3-2.123,2.034,2.034h-2.034Z" transform="translate(0 0)" fill="#fff"/>
    <rect id="長方形_5" data-name="長方形 5" width="9.262" height="0.617" transform="translate(1194.437 675.284)" fill="#fff"/>
    <rect id="長方形_6" data-name="長方形 6" width="9.262" height="0.617" transform="translate(1194.437 678.372)" fill="#fff"/>
    <rect id="長方形_7" data-name="長方形 7" width="9.262" height="0.617" transform="translate(1194.437 681.459)" fill="#fff"/>
  </g>
</svg>
