<?xml version="1.0" encoding="utf-8"?>
<!-- Generator: Adobe Illustrator 28.0.0, SVG Export Plug-In . SVG Version: 6.00 Build 0)  -->
<svg version="1.1" id="icon_tag" xmlns="http://www.w3.org/2000/svg" xmlns:xlink="http://www.w3.org/1999/xlink" x="0px" y="0px"
	 viewBox="0 0 15 15" style="enable-background:new 0 0 15 15;" xml:space="preserve">
<style type="text/css">
	.st0{fill:#00B2B0;}
</style>
<path id="icon_tag-2" class="st0" d="M0,0.7v5.7c0,0.5,0.2,0.9,0.5,1.2l7.1,7.1c0.3,0.3,0.7,0.3,1,0l6.2-6.2c0.3-0.3,0.3-0.7,0-1
	L7.7,0.5C7.3,0.2,6.9,0,6.5,0H0.7C0.3,0,0,0.3,0,0.7z M5.7,4.3c0,0.8-0.6,1.4-1.4,1.4S2.9,5.1,2.9,4.3c0-0.8,0.6-1.4,1.4-1.4
	C5.1,2.9,5.7,3.5,5.7,4.3C5.7,4.3,5.7,4.3,5.7,4.3z"/>
</svg>
