<?xml version="1.0" encoding="UTF-8"?>
<svg width="13px" height="16px" viewBox="0 0 13 16" version="1.1" xmlns="http://www.w3.org/2000/svg" xmlns:xlink="http://www.w3.org/1999/xlink">
    <!-- Generator: Sketch 52.6 (67491) - http://www.bohemiancoding.com/sketch -->
    <title>Group 18</title>
    <desc>Created with Sketch.</desc>
    <g id="Page-1" stroke="none" stroke-width="1" fill="none" fill-rule="evenodd">
        <g id="Mobile" transform="translate(-200.000000, -256.000000)">
            <g id="spot-copy-2" transform="translate(20.000000, 249.000000)">
                <g id="Group" transform="translate(31.000000, 0.000000)">
                    <g id="Group-12" transform="translate(0.000000, 0.500000)">
                        <g id="Group-5" transform="translate(144.500000, 0.000000)">
                            <g id="Group-3" transform="translate(5.000000, 5.500000)">
                                <g id="Group-18">
                                    <g id="ic-people-48px" transform="translate(0.000000, 7.000000)">
                                        <polygon id="Path" points="0 0 12 0 12 12 0 12"></polygon>
                                        <path d="M8,5.5 C8.8275,5.5 9.495,4.8275 9.495,4 C9.495,3.1725 8.8275,2.5 8,2.5 C7.1725,2.5 6.5,3.1725 6.5,4 C6.5,4.8275 7.1725,5.5 8,5.5 Z M4,5.5 C4.8275,5.5 5.495,4.8275 5.495,4 C5.495,3.1725 4.8275,2.5 4,2.5 C3.1725,2.5 2.5,3.1725 2.5,4 C2.5,4.8275 3.1725,5.5 4,5.5 Z M4,6.5 C2.8325,6.5 0.5,7.085 0.5,8.25 L0.5,9.5 L7.5,9.5 L7.5,8.25 C7.5,7.085 5.1675,6.5 4,6.5 Z M8,6.5 C7.855,6.5 7.6925,6.51 7.5175,6.5275 C8.0975,6.945 8.5,7.5075 8.5,8.25 L8.5,9.5 L11.5,9.5 L11.5,8.25 C11.5,7.085 9.1675,6.5 8,6.5 Z" id="Shape" fill="#01B2B0" fill-rule="nonzero"></path>
                                    </g>
                                    <path d="M5.73,5.748 C5.592,5.88 5.478,6.042 5.394,6.216 C5.346,6.318 5.328,6.36 5.286,6.36 C5.256,6.36 5.22,6.336 5.148,6.288 C4.002,5.55 3.306,4.524 3.03,3.42 C2.712,4.686 1.956,5.67 0.858,6.294 C0.792,6.33 0.75,6.354 0.72,6.354 C0.678,6.354 0.654,6.312 0.6,6.21 C0.498,6.042 0.378,5.916 0.252,5.808 C1.83,5.076 2.598,3.576 2.586,1.896 C2.58,1.632 2.574,1.38 2.544,1.116 C2.778,1.128 3.066,1.158 3.282,1.188 C3.36,1.2 3.396,1.236 3.396,1.284 C3.396,1.35 3.366,1.386 3.336,1.434 C3.3,1.494 3.288,1.638 3.288,1.83 C3.282,1.902 3.282,1.974 3.282,2.046 C3.54,3.804 4.296,4.968 5.73,5.748 Z M11.742,2.142 L11.742,2.55 C11.742,2.61 11.736,2.616 11.676,2.616 C11.652,2.616 11.55,2.61 11.322,2.604 C11.28,3.492 11.088,4.308 10.734,4.908 C11.004,5.244 11.352,5.526 11.844,5.856 C11.742,5.958 11.64,6.132 11.562,6.312 C11.52,6.402 11.496,6.444 11.46,6.444 C11.43,6.444 11.394,6.42 11.334,6.372 C10.938,6.042 10.626,5.724 10.386,5.412 C10.098,5.772 9.732,6.108 9.18,6.42 C9.108,6.456 9.066,6.48 9.03,6.48 C8.982,6.48 8.958,6.438 8.91,6.342 C8.838,6.186 8.754,6.078 8.652,5.988 C9.276,5.694 9.732,5.328 10.05,4.896 C9.834,4.488 9.648,4.002 9.558,3.516 C9.492,3.63 9.42,3.738 9.342,3.84 C9.288,3.906 9.258,3.936 9.228,3.936 C9.192,3.936 9.156,3.9 9.102,3.828 C9.006,3.702 8.91,3.618 8.808,3.552 C9.33,2.976 9.594,2.208 9.762,1.494 C9.804,1.32 9.822,1.146 9.828,0.99 C9.996,1.026 10.242,1.074 10.374,1.116 C10.452,1.14 10.482,1.164 10.482,1.206 C10.482,1.248 10.452,1.284 10.416,1.338 C10.386,1.392 10.356,1.452 10.326,1.602 C10.29,1.758 10.242,1.92 10.194,2.088 L10.968,2.088 C11.472,2.088 11.64,2.076 11.676,2.076 C11.736,2.076 11.742,2.082 11.742,2.142 Z M10.746,2.604 L10.014,2.604 L9.93,2.802 C10.014,3.39 10.164,3.912 10.374,4.338 C10.572,3.9 10.71,3.342 10.746,2.604 Z M8.742,5.844 L8.496,6.132 C8.46,6.18 8.436,6.198 8.418,6.198 C8.4,6.198 8.388,6.186 8.364,6.168 C8.244,6.06 8.124,5.958 7.998,5.868 C7.692,6.132 7.296,6.306 6.804,6.432 C6.63,6.474 6.612,6.474 6.528,6.3 C6.48,6.198 6.396,6.078 6.306,5.994 C6.804,5.916 7.212,5.772 7.524,5.544 C7.398,5.472 7.266,5.4 7.128,5.334 L7.038,5.466 C6.966,5.562 6.942,5.598 6.81,5.538 L6.558,5.424 C6.492,5.394 6.462,5.376 6.462,5.352 C6.462,5.34 6.474,5.322 6.492,5.292 C6.576,5.19 6.654,5.082 6.744,4.944 C6.822,4.83 6.9,4.692 6.978,4.542 C6.576,4.548 6.414,4.554 6.384,4.554 C6.33,4.554 6.324,4.548 6.324,4.488 L6.324,4.122 C6.324,4.062 6.336,4.056 6.384,4.056 C6.414,4.056 6.546,4.068 7.134,4.068 L7.218,4.068 C7.308,3.876 7.35,3.756 7.374,3.618 C7.602,3.654 7.752,3.69 7.914,3.744 C7.962,3.762 7.986,3.78 7.986,3.81 C7.986,3.846 7.968,3.864 7.932,3.894 C7.884,3.942 7.86,3.972 7.812,4.068 L8.436,4.068 C8.97,4.068 9.15,4.056 9.186,4.056 C9.252,4.056 9.258,4.062 9.258,4.122 L9.258,4.488 C9.258,4.548 9.246,4.554 9.186,4.554 C9.156,4.554 9.042,4.548 8.778,4.542 C8.676,4.896 8.55,5.196 8.382,5.442 C8.502,5.52 8.616,5.604 8.736,5.694 C8.76,5.718 8.778,5.742 8.778,5.766 C8.778,5.79 8.766,5.814 8.742,5.844 Z M8.22,4.542 L7.59,4.542 C7.518,4.692 7.446,4.83 7.38,4.938 C7.566,5.004 7.746,5.088 7.914,5.172 C8.046,4.992 8.148,4.782 8.22,4.542 Z M8.124,2.1 L8.388,2.1 C8.916,2.1 9.096,2.088 9.132,2.088 C9.198,2.088 9.204,2.094 9.204,2.16 L9.204,2.52 C9.204,2.58 9.198,2.586 9.132,2.586 C9.096,2.586 8.916,2.574 8.388,2.574 L8.346,2.574 C8.526,2.766 8.814,2.964 9.03,3.06 C8.952,3.126 8.868,3.222 8.76,3.39 C8.736,3.426 8.718,3.45 8.688,3.45 C8.658,3.45 8.61,3.42 8.526,3.348 C8.424,3.264 8.238,3.072 8.094,2.88 C8.106,3.24 8.124,3.468 8.124,3.546 C8.124,3.606 8.118,3.612 8.058,3.612 L7.626,3.612 C7.566,3.612 7.56,3.606 7.56,3.546 C7.56,3.468 7.578,3.258 7.584,2.898 C7.35,3.228 7.05,3.504 6.726,3.732 C6.654,3.786 6.606,3.81 6.576,3.81 C6.54,3.81 6.522,3.774 6.486,3.708 C6.408,3.564 6.318,3.462 6.228,3.39 C6.624,3.192 7.032,2.88 7.278,2.574 L7.152,2.574 C6.624,2.574 6.444,2.586 6.408,2.586 C6.354,2.586 6.348,2.58 6.348,2.52 L6.348,2.16 C6.348,2.094 6.354,2.088 6.408,2.088 C6.444,2.088 6.624,2.1 7.152,2.1 L7.56,2.1 L7.56,1.518 C7.56,1.326 7.554,1.164 7.524,0.996 C7.74,1.002 7.896,1.008 8.1,1.032 C8.154,1.038 8.178,1.074 8.178,1.098 C8.178,1.146 8.154,1.182 8.148,1.23 C8.124,1.302 8.124,1.392 8.124,1.59 L8.124,2.1 Z M8.28,1.866 C8.4,1.704 8.502,1.542 8.58,1.386 C8.628,1.29 8.646,1.224 8.664,1.14 C8.856,1.2 8.976,1.248 9.108,1.314 C9.15,1.338 9.18,1.362 9.18,1.386 C9.18,1.428 9.168,1.44 9.132,1.47 C9.102,1.494 9.066,1.53 9.036,1.584 C8.976,1.68 8.892,1.818 8.802,1.944 C8.76,2.016 8.742,2.046 8.706,2.046 C8.676,2.046 8.628,2.022 8.55,1.98 C8.46,1.938 8.364,1.896 8.28,1.866 Z M6.588,1.314 L6.876,1.176 C6.936,1.146 6.954,1.146 6.99,1.194 C7.11,1.338 7.23,1.536 7.326,1.728 C7.35,1.776 7.344,1.8 7.284,1.83 L6.978,1.98 C6.912,2.016 6.888,2.016 6.864,1.956 C6.78,1.758 6.672,1.584 6.558,1.422 C6.516,1.368 6.516,1.35 6.588,1.314 Z" id="人数" fill="#5F5F5F"></path>
                                </g>
                            </g>
                        </g>
                    </g>
                </g>
            </g>
        </g>
    </g>
</svg>