<?xml version="1.0" encoding="UTF-8"?>
<svg width="18px" height="19px" viewBox="0 0 18 19" version="1.1" xmlns="http://www.w3.org/2000/svg" xmlns:xlink="http://www.w3.org/1999/xlink">
    <!-- Generator: Sketch 52.6 (67491) - http://www.bohemiancoding.com/sketch -->
    <title>Group 17</title>
    <desc>Created with Sketch.</desc>
    <g id="Page-1" stroke="none" stroke-width="1" fill="none" fill-rule="evenodd">
        <g id="Mobile" transform="translate(-54.000000, -255.000000)">
            <g id="spot-copy-2" transform="translate(20.000000, 249.000000)">
                <g id="Group" transform="translate(31.000000, 0.000000)">
                    <g id="Group-12" transform="translate(0.000000, 0.500000)">
                        <g id="Group-4">
                            <g id="Group-2" transform="translate(3.000000, 6.000000)">
                                <g id="Group-17">
                                    <g id="ic-location-on-24px" transform="translate(2.500000, 7.500000)">
                                        <path d="M6,1 C4.065,1 2.5,2.565 2.5,4.5 C2.5,7.125 6,11 6,11 C6,11 9.5,7.125 9.5,4.5 C9.5,2.565 7.935,1 6,1 Z M6,5.75 C5.31,5.75 4.75,5.19 4.75,4.5 C4.75,3.81 5.31,3.25 6,3.25 C6.69,3.25 7.25,3.81 7.25,4.5 C7.25,5.19 6.69,5.75 6,5.75 Z" id="Shape" fill="#21B07B" fill-rule="nonzero"></path>
                                        <polygon id="Path" points="0 0 12 0 12 12 0 12"></polygon>
                                    </g>
                                    <path d="M3.318,1.742 L3.318,3.788 L4.176,3.788 C4.578,3.788 4.98,3.776 5.388,3.764 C5.454,3.758 5.484,3.788 5.484,3.86 C5.49,4.016 5.49,4.184 5.484,4.34 C5.484,4.418 5.466,4.448 5.394,4.448 C5.106,4.436 4.572,4.424 4.182,4.424 L1.77,4.424 C1.524,4.424 1.134,4.442 0.666,4.448 C0.57,4.454 0.558,4.43 0.54,4.328 C0.516,4.196 0.498,3.98 0.498,3.764 C0.93,3.788 1.386,3.794 1.77,3.794 L2.586,3.794 L2.586,1.742 L2.118,1.742 C1.686,1.742 1.434,1.754 1.188,1.766 C1.116,1.772 1.104,1.73 1.086,1.64 C1.062,1.52 1.038,1.286 1.038,1.082 C1.338,1.112 1.578,1.106 2.076,1.106 L3.774,1.106 C4.14,1.106 4.47,1.106 4.824,1.088 C4.884,1.082 4.902,1.118 4.902,1.184 C4.908,1.334 4.908,1.502 4.902,1.652 C4.896,1.73 4.884,1.766 4.818,1.766 C4.416,1.748 4.122,1.742 3.786,1.742 L3.318,1.742 Z M7.584,2.42 L7.584,1.244 C7.584,0.83 7.566,0.602 7.518,0.368 C7.77,0.398 8.088,0.434 8.262,0.494 C8.334,0.512 8.364,0.548 8.364,0.59 C8.364,0.62 8.352,0.65 8.34,0.68 C8.286,0.794 8.274,0.944 8.274,1.25 L8.274,2.462 C8.274,2.774 8.286,3.008 8.292,3.218 C8.292,3.308 8.256,3.338 8.16,3.338 L7.68,3.338 C7.596,3.338 7.56,3.308 7.566,3.236 C7.566,3.026 7.584,2.678 7.584,2.42 Z M10.41,1.25 L10.41,2.366 C10.41,3.254 10.278,3.848 9.924,4.322 C9.63,4.712 9.108,5.078 8.604,5.264 C8.556,5.282 8.514,5.294 8.478,5.294 C8.43,5.294 8.388,5.276 8.334,5.222 C8.19,5.078 8.034,4.964 7.824,4.856 C8.466,4.658 8.97,4.376 9.288,3.98 C9.564,3.638 9.69,3.14 9.69,2.378 L9.69,1.244 C9.69,0.728 9.678,0.536 9.624,0.266 C9.912,0.29 10.2,0.332 10.404,0.398 C10.464,0.416 10.488,0.452 10.488,0.5 C10.488,0.53 10.482,0.566 10.464,0.596 C10.41,0.722 10.41,0.878 10.41,1.25 Z M16.524,1.322 L13.932,1.322 C13.59,1.322 13.224,1.346 12.87,1.37 C12.798,1.376 12.774,1.334 12.762,1.28 C12.714,1.112 12.678,0.812 12.654,0.632 C13.062,0.662 13.392,0.674 13.872,0.674 L16.446,0.674 C16.698,0.674 16.8,0.662 16.86,0.638 C16.89,0.626 16.944,0.596 16.974,0.596 C17.022,0.596 17.07,0.632 17.112,0.68 C17.244,0.794 17.358,0.92 17.472,1.058 C17.502,1.094 17.52,1.13 17.52,1.166 C17.52,1.214 17.49,1.256 17.436,1.292 C17.37,1.34 17.322,1.4 17.274,1.466 C16.992,1.892 16.62,2.306 16.218,2.624 C16.182,2.66 16.14,2.678 16.092,2.678 C16.044,2.678 15.99,2.654 15.948,2.618 C15.798,2.498 15.648,2.432 15.45,2.372 C15.93,2.012 16.224,1.754 16.524,1.322 Z M13.014,4.808 C13.668,4.466 14.01,4.142 14.268,3.662 C14.496,3.236 14.562,2.828 14.562,2.246 C14.562,2.024 14.55,1.886 14.502,1.682 C14.796,1.712 15.108,1.754 15.276,1.796 C15.354,1.814 15.378,1.856 15.378,1.91 C15.378,1.946 15.366,1.982 15.348,2.018 C15.306,2.102 15.3,2.162 15.294,2.264 C15.276,2.846 15.216,3.38 14.94,3.914 C14.706,4.364 14.346,4.79 13.848,5.108 C13.794,5.144 13.74,5.168 13.68,5.168 C13.638,5.168 13.596,5.15 13.56,5.114 C13.416,4.988 13.242,4.892 13.014,4.808 Z" id="エリア" fill="#5F5F5F"></path>
                                </g>
                            </g>
                        </g>
                    </g>
                </g>
            </g>
        </g>
    </g>
</svg>