<svg xmlns="http://www.w3.org/2000/svg" xmlns:xlink="http://www.w3.org/1999/xlink" width="190.52" height="30.59" viewBox="0 0 190.52 30.59"><defs><linearGradient id="名称未設定グラデーション_4" y1="15.86" x2="14.96" y2="15.86" gradientUnits="userSpaceOnUse"><stop offset="0" stop-color="#0191af"/><stop offset="1" stop-color="#07c7b1"/></linearGradient><linearGradient id="名称未設定グラデーション_4-2" x1="17.41" y1="15.86" x2="33.1" y2="15.86" xlink:href="#名称未設定グラデーション_4"/><linearGradient id="名称未設定グラデーション_4-3" x1="37.17" y1="15.63" x2="60.9" y2="15.63" xlink:href="#名称未設定グラデーション_4"/><linearGradient id="名称未設定グラデーション_4-4" x1="65.74" y1="12.24" x2="70.04" y2="12.24" xlink:href="#名称未設定グラデーション_4"/><linearGradient id="名称未設定グラデーション_4-5" x1="74.95" y1="15.63" x2="89.44" y2="15.63" xlink:href="#名称未設定グラデーション_4"/><linearGradient id="名称未設定グラデーション_4-6" x1="92.95" y1="17.67" x2="109.45" y2="17.67" xlink:href="#名称未設定グラデーション_4"/><linearGradient id="名称未設定グラデーション_4-7" x1="120.41" y1="15.86" x2="134.65" y2="15.86" xlink:href="#名称未設定グラデーション_4"/><linearGradient id="名称未設定グラデーション_4-8" x1="137.58" y1="15.86" x2="153.26" y2="15.86" xlink:href="#名称未設定グラデーション_4"/><linearGradient id="名称未設定グラデーション_4-9" x1="156.28" y1="15.86" x2="171.97" y2="15.86" xlink:href="#名称未設定グラデーション_4"/><linearGradient id="名称未設定グラデーション_4-10" x1="176.04" y1="15.63" x2="190.52" y2="15.63" xlink:href="#名称未設定グラデーション_4"/></defs><g id="レイヤー_2" data-name="レイヤー 2"><g id="レイヤー_1-2" data-name="レイヤー 1"><path d="M14.87 12.31l-3.87.88q-.53-3.51-3-3.51-3.88 0-3.88 6.16T8 22c1.83 0 2.93-1.22 3.31-3.64l3.7 1a6.91 6.91 0 01-2.72 4.28 7.53 7.53 0 01-4.38 1.23 7.17 7.17 0 01-6-2.71A10.14 10.14 0 010 15.9a9.6 9.6 0 012.4-7 7.27 7.27 0 015.46-2.12 7.08 7.08 0 014.85 1.63 7 7 0 012.16 3.9z" fill="url(#名称未設定グラデーション_4)"/><path d="M25.27 6.78a7.1 7.1 0 015.93 2.73 9.87 9.87 0 011.9 6.3 9.54 9.54 0 01-2.44 7 7.22 7.22 0 01-5.42 2.14 7.13 7.13 0 01-5.95-2.72 10 10 0 01-1.88-6.31 9.59 9.59 0 012.45-7 7.26 7.26 0 015.41-2.14zm0 2.87q-3.8 0-3.79 6.19t3.76 6.23q3.8 0 3.79-6.23t-3.76-6.19z" fill="url(#名称未設定グラデーション_4-2)"/><path d="M41 7.17v3q2.22-3.42 5.45-3.42a4.29 4.29 0 013 1 4.35 4.35 0 011.29 2.34q2.24-3.39 5.49-3.39a4.37 4.37 0 013.57 1.54A5.53 5.53 0 0160.9 12v12.5h-4V13.1q0-2.91-2.4-2.91a3.24 3.24 0 00-2.14.92 6 6 0 00-1.48 2v11.38H47V13.1c0-1.94-.71-2.91-2.14-2.91a3.45 3.45 0 00-2.19.9 6.46 6.46 0 00-1.57 2v11.4h-3.93V7.17z" fill="url(#名称未設定グラデーション_4-3)"/><path d="M70 0v4.07h-4.3V0zm-.17 7.17v17.32h-4V7.17z" fill="url(#名称未設定グラデーション_4-4)"/><path d="M78.8 7.17v3a8.19 8.19 0 012.72-2.6 5.84 5.84 0 013-.82 4.67 4.67 0 013.68 1.57A5.3 5.3 0 0189.44 12v12.5h-4.07V13.1c0-1.94-.8-2.91-2.41-2.91a3.77 3.77 0 00-2.28.89 7.4 7.4 0 00-1.75 2.05v11.36H75V7.17z" fill="url(#名称未設定グラデーション_4-5)"/><path d="M109.39 4.76L109.15 8a6.85 6.85 0 00-2 .23 3.35 3.35 0 00-1.08.67 4.82 4.82 0 011.42 3.46 5.08 5.08 0 01-2.16 4.39 7.66 7.66 0 01-4.68 1.25 8.43 8.43 0 01-2.24-.29c-.85.42-1.27.92-1.27 1.51a.9.9 0 00.53.87 5.54 5.54 0 001.88.39l3.91.32c2.32.23 4 .76 4.88 1.61a3.73 3.73 0 011.11 2.88 4.41 4.41 0 01-2.54 4 12.55 12.55 0 01-6.16 1.31 11.48 11.48 0 01-6-1.31A3.33 3.33 0 0193 26.38q0-2.22 3.19-3.37c-1.62-.36-2.43-1.2-2.43-2.5s.88-2.48 2.65-3.59a5.09 5.09 0 01-2.47-4.58 4.92 4.92 0 012.16-4.22 8.65 8.65 0 018.32-.51 5.21 5.21 0 012.16-2.28 6.19 6.19 0 012.81-.57zM98.53 23.48C97 24 96.2 24.76 96.2 25.84a2 2 0 001.48 1.85 10.25 10.25 0 007.24-.21A1.8 1.8 0 00106 26a1.54 1.54 0 00-.71-1.42 6.55 6.55 0 00-2.48-.6zm2.14-14.36a3.07 3.07 0 00-2.36 1 3.15 3.15 0 00-.78 2.2 3.38 3.38 0 001 2.65 3.39 3.39 0 004.51-.21 3.54 3.54 0 00.79-2.41 3.06 3.06 0 00-1-2.46 3.15 3.15 0 00-2.16-.77z" fill="url(#名称未設定グラデーション_4-6)"/><path d="M134.29 11.2l-3.76 1.08c-.43-1.86-1.45-2.79-3.08-2.79a3.22 3.22 0 00-2.08.62 1.52 1.52 0 00-.63 1.25 1.94 1.94 0 00.69 1.63 7.38 7.38 0 002.39 1l1.45.38a9 9 0 014.33 2.14 4.49 4.49 0 011.05 3.13 4.63 4.63 0 01-2 4 8.45 8.45 0 01-5 1.32q-5.65 0-7.23-4.33l3.7-1.29a3.52 3.52 0 003.62 2.91c2.11 0 3.16-.74 3.16-2.23a1.84 1.84 0 00-.74-1.62 10.92 10.92 0 00-2.61-1l-1.45-.4a8.15 8.15 0 01-4.1-2.11 4.74 4.74 0 01-1-3.18A4.28 4.28 0 01122.91 8a7.73 7.73 0 014.6-1.25q5.29.03 6.78 4.45z" fill="url(#名称未設定グラデーション_4-7)"/><path d="M145.43 6.78a7.13 7.13 0 015.94 2.73 9.93 9.93 0 011.89 6.3 9.58 9.58 0 01-2.43 7 7.26 7.26 0 01-5.43 2.14 7.11 7.11 0 01-5.94-2.72 9.93 9.93 0 01-1.88-6.31 9.55 9.55 0 012.45-7 7.24 7.24 0 015.4-2.14zm0 2.87c-2.52 0-3.79 2.06-3.79 6.19s1.26 6.23 3.76 6.23 3.79-2.08 3.79-6.23-1.25-6.19-3.76-6.19z" fill="url(#名称未設定グラデーション_4-8)"/><path d="M164.14 6.78a7.1 7.1 0 015.93 2.73 9.87 9.87 0 011.9 6.3 9.58 9.58 0 01-2.43 7 7.26 7.26 0 01-5.43 2.14 7.13 7.13 0 01-6-2.72 10 10 0 01-1.88-6.31 9.59 9.59 0 012.45-7 7.26 7.26 0 015.46-2.14zm0 2.87q-3.79 0-3.79 6.19t3.76 6.23q3.79 0 3.79-6.23t-3.76-6.19z" fill="url(#名称未設定グラデーション_4-9)"/><path d="M179.89 7.17v3a8.16 8.16 0 012.71-2.6 5.9 5.9 0 013-.82 4.67 4.67 0 013.71 1.54 5.34 5.34 0 011.21 3.71v12.5h-4.06V13.1c0-1.94-.81-2.91-2.41-2.91a3.75 3.75 0 00-2.28.89 7.43 7.43 0 00-1.77 2.05v11.36h-4V7.17z" fill="url(#名称未設定グラデーション_4-10)"/></g></g></svg>