<svg xmlns="http://www.w3.org/2000/svg" width="18.361" height="18" viewBox="0 0 18.361 18">
  <path id="パス_162" data-name="パス 162" d="M411.769,239.334l.719.719a.423.423,0,0,1,0,.6l-4.572,4.569a.413.413,0,0,1-.432.1l-1.075-.359a.411.411,0,0,1-.276-.3.406.406,0,0,1,.112-.4l4.928-4.928a.423.423,0,0,1,.6,0Zm6.943-11.689-.094.083a1.716,1.716,0,0,0-.45,1.846,1.636,1.636,0,0,1-.489,1.9c-.7.549-2.916,2.8-3.746,2.335a4.6,4.6,0,0,0-5.186.864.41.41,0,0,0-.141.3.42.42,0,0,0,.125.31l7.8,7.8a.4.4,0,0,0,.307.122.4.4,0,0,0,.3-.138,4.609,4.609,0,0,0,.867-5.189c-.466-.83,1.786-3.049,2.333-3.744a1.635,1.635,0,0,1,1.9-.489,1.65,1.65,0,0,0,.643.1,1.629,1.629,0,0,0,1.2-.554l.089-.094c1.614-1.783-3.681-7.079-5.467-5.462Zm-3.986,8.016c-2.5-2.5-3.757-1.093-3.184-.521l3.728,3.725c.5.5,1.955-.706-.544-3.2Zm6.514-6.948c1.408.945,1.268,1.442.786,1.828s-2.942-1.859-2.614-2.343S420.631,228.3,421.24,228.712Z" transform="translate(-406.12 -227.342)" fill="#00b2b0" fill-rule="evenodd"/>
</svg>
